<svg width="426.433594" height="301.000000" viewBox="0 0 426.434 301" fill="none" xmlns="http://www.w3.org/2000/svg" xmlns:xlink="http://www.w3.org/1999/xlink">
	<desc>
			Created with Pixso.
	</desc>
	<defs>
		<filter id="filter_88_236_dd" x="0.000000" y="0.000000" width="426.433594" height="301.000000" filterUnits="userSpaceOnUse" color-interpolation-filters="sRGB">
			<feFlood flood-opacity="0" result="BackgroundImageFix"/>
			<feGaussianBlur in="BackgroundImage" stdDeviation="20"/>
			<feComposite in2="SourceAlpha" operator="in" result="effect_backgroundBlur_1"/>
			<feBlend mode="normal" in="SourceGraphic" in2="effect_backgroundBlur_1" result="shape"/>
		</filter>
		<linearGradient x1="36.644012" y1="-0.000061" x2="262.301331" y2="300.999969" id="paint_linear_88_234_0" gradientUnits="userSpaceOnUse">
			<stop offset="0.122952" stop-color="#E74040"/>
			<stop offset="1.000000" stop-color="#240404"/>
		</linearGradient>
	</defs>
	<path id="Subtract" d="M33.1387 0L0 28.4744L0 301L330.814 301L426.434 217.373L426.434 0L33.1387 0Z" clip-rule="evenodd" fill="url(#paint_linear_88_234_0)" fill-opacity="0.500000" fill-rule="evenodd"/>
	<path id="Поддержка направлений по снижению загрязненности воздуха" d="M332.36 85.34L330.62 85.34C330.62 86.28 330.95 87.06 331.6 87.68C332.26 88.29 333.08 88.6 334.08 88.6C335.06 88.6 335.87 88.29 336.52 87.68C337.18 87.06 337.5 86.28 337.5 85.34L335.76 85.34C335.76 85.79 335.6 86.17 335.26 86.48C334.94 86.78 334.55 86.94 334.08 86.94Q333.6 86.94 333.21 86.73Q333.01 86.63 332.84 86.48C332.52 86.17 332.36 85.79 332.36 85.34ZM88.6 100.1L88.6 88.18L96.18 88.18L96.18 100.1L98.44 100.1L98.44 86.1L86.36 86.1L86.36 100.1L88.6 100.1ZM103.51 99.79Q104.64 100.36 106.04 100.36Q107.44 100.36 108.57 99.79Q109.32 99.42 109.94 98.8C110.99 97.76 111.52 96.46 111.52 94.9C111.52 93.34 110.99 92.04 109.94 91C108.9 89.96 107.6 89.44 106.04 89.44Q104.64 89.44 103.51 90Q102.76 90.37 102.14 91Q101.52 91.62 101.14 92.37Q100.58 93.49 100.58 94.9Q100.58 96.3 101.14 97.42Q101.52 98.17 102.14 98.8Q102.76 99.42 103.51 99.79ZM141.33 95.66L149.97 95.66C150 95.2 150.01 94.95 150.01 94.9C150.01 93.34 149.49 92.04 148.45 91C147.44 89.96 146.16 89.44 144.61 89.44Q143.25 89.44 142.16 89.97Q141.38 90.35 140.73 91C139.71 92.05 139.19 93.35 139.19 94.9C139.19 96.46 139.73 97.76 140.79 98.8C141.85 99.84 143.17 100.36 144.77 100.36C145.8 100.36 146.73 100.12 147.57 99.66C148.43 99.19 149.09 98.55 149.57 97.74L147.53 97.12C146.87 97.98 145.95 98.42 144.77 98.42C143.91 98.42 143.15 98.16 142.51 97.66C141.89 97.14 141.49 96.47 141.33 95.66ZM151.86 104.6L153.94 104.6L153.94 98.98C154.9 99.9 156.05 100.36 157.4 100.36C158.85 100.36 160.07 99.84 161.06 98.8C162.03 97.77 162.52 96.47 162.52 94.9C162.52 93.32 162.03 92.02 161.06 91C160.07 89.96 158.85 89.44 157.4 89.44C156.05 89.44 154.9 89.9 153.94 90.82L153.94 89.7L151.86 89.7L151.86 104.6ZM197.77 90.82C196.81 89.9 195.66 89.44 194.31 89.44Q193.18 89.44 192.23 89.86Q191.36 90.25 190.65 91C189.68 92.02 189.19 93.32 189.19 94.9C189.19 96.47 189.68 97.77 190.65 98.8Q191.36 99.54 192.23 99.93Q193.18 100.36 194.31 100.36C195.66 100.36 196.81 99.9 197.77 98.98L197.77 100.1L199.85 100.1L199.85 89.7L197.77 89.7L197.77 90.82ZM227.95 90.82C226.99 89.9 225.84 89.44 224.49 89.44C223.04 89.44 221.82 89.96 220.83 91C219.86 92.02 219.37 93.32 219.37 94.9C219.37 96.47 219.86 97.77 220.83 98.8C221.82 99.84 223.04 100.36 224.49 100.36C225.84 100.36 226.99 99.9 227.95 98.98L227.95 100.1L230.03 100.1L230.03 89.7L227.95 89.7L227.95 90.82ZM244.5 104.6L246.58 104.6L246.58 98.98C247.54 99.9 248.69 100.36 250.04 100.36Q251.18 100.36 252.12 99.93Q252.99 99.54 253.7 98.8Q254.15 98.32 254.46 97.76Q255.16 96.52 255.16 94.9Q255.16 93.27 254.46 92.03Q254.15 91.47 253.7 91Q252.99 90.25 252.12 89.86Q251.18 89.44 250.04 89.44C248.69 89.44 247.54 89.9 246.58 90.82L246.58 89.7L244.5 89.7L244.5 104.6ZM265.29 90.82C264.33 89.9 263.18 89.44 261.83 89.44C260.38 89.44 259.16 89.96 258.17 91C257.2 92.02 256.71 93.32 256.71 94.9C256.71 96.47 257.2 97.77 258.17 98.8C259.16 99.84 260.38 100.36 261.83 100.36C263.18 100.36 264.33 99.9 265.29 98.98L265.29 100.1L267.37 100.1L267.37 89.7L265.29 89.7L265.29 90.82ZM294.28 95.66L302.92 95.66Q302.96 94.98 302.96 94.9C302.96 93.34 302.44 92.04 301.4 91C300.39 89.96 299.11 89.44 297.56 89.44C296.02 89.44 294.72 89.96 293.68 91Q293.05 91.65 292.68 92.42Q292.14 93.53 292.14 94.9C292.14 96.46 292.68 97.76 293.74 98.8C294.8 99.84 296.12 100.36 297.72 100.36Q298.89 100.36 299.9 99.95Q300.22 99.82 300.52 99.66C301.38 99.19 302.04 98.55 302.52 97.74L300.48 97.12Q300.07 97.65 299.53 97.96Q298.76 98.42 297.72 98.42C296.86 98.42 296.1 98.16 295.46 97.66C294.84 97.14 294.44 96.47 294.28 95.66ZM114.29 103.1L114.29 100.1L122.81 100.1L122.81 103.1L124.89 103.1L124.89 98.1L123.01 98.1L123.01 89.7L114.59 89.7L114.59 94.64C114.59 96.4 114.34 97.55 113.83 98.1L112.21 98.1L112.21 103.1L114.29 103.1ZM127.69 103.1L127.69 100.1L136.21 100.1L136.21 103.1L138.29 103.1L138.29 98.1L136.41 98.1L136.41 89.7L127.99 89.7L127.99 94.64Q127.99 97.28 127.23 98.1L125.61 98.1L125.61 103.1L127.69 103.1ZM163.17 100.1L165.67 100.1L169.55 94.98L169.55 100.1L171.63 100.1L171.63 94.96L175.53 100.1L178.03 100.1L173.91 94.72L177.61 89.7L175.15 89.7L171.63 94.48L171.63 89.7L169.55 89.7L169.55 94.44L166.05 89.7L163.59 89.7L167.27 94.72L163.17 100.1ZM181.6 100.1L181.6 89.7L179.52 89.7L179.52 100.1L181.6 100.1ZM186.14 100.1L188.7 100.1L184.18 94.72L188.26 89.7L185.72 89.7L181.62 94.72L186.14 100.1ZM209.72 100.1L209.72 95.8L215.26 95.8L215.26 100.1L217.34 100.1L217.34 89.7L215.26 89.7L215.26 93.8L209.72 93.8L209.72 89.7L207.64 89.7L207.64 100.1L209.72 100.1ZM234.59 100.1L234.59 91.7L239.93 91.7L239.93 100.1L242.01 100.1L242.01 89.7L232.51 89.7L232.51 100.1L234.59 100.1ZM275.33 89.7L269.85 89.7L269.85 100.1L275.75 100.1Q276.76 100.1 277.53 99.66Q277.85 99.48 278.13 99.22C278.77 98.63 279.09 97.88 279.09 96.98C279.09 95.95 278.6 95.14 277.61 94.56C278.26 94.02 278.59 93.26 278.59 92.28Q278.54 91.69 278.28 91.22Q278.01 90.75 277.53 90.4C276.88 89.93 276.14 89.7 275.33 89.7ZM279.81 100.1L280.55 100.1C281.59 100.1 282.4 99.7 282.99 98.9Q283.87 97.68 283.87 95.24L283.87 91.7L288.03 91.7L288.03 100.1L290.11 100.1L290.11 89.7L281.79 89.7L281.79 94.8C281.79 96 281.68 96.85 281.45 97.36Q281.24 97.82 280.88 97.99Q280.67 98.1 280.41 98.1L279.81 98.1L279.81 100.1ZM306.89 100.1L306.89 95.8L312.43 95.8L312.43 100.1L314.51 100.1L314.51 89.7L312.43 89.7L312.43 93.8L306.89 93.8L306.89 89.7L304.81 89.7L304.81 100.1L306.89 100.1ZM318.74 100.1L324.62 93.2L324.62 100.1L326.7 100.1L326.7 89.7L324.96 89.7L319.08 96.64L319.08 89.7L317 89.7L317 100.1L318.74 100.1ZM329.2 89.7L329.2 100.1L330.94 100.1L336.82 93.2L336.82 100.1L338.9 100.1L338.9 89.7L337.16 89.7L331.28 96.64L331.28 89.7L329.2 89.7ZM147.87 94L141.35 94C141.54 93.22 141.93 92.6 142.51 92.12Q143.01 91.71 143.57 91.53Q144.04 91.38 144.55 91.38C145.35 91.38 146.06 91.62 146.67 92.12C147.29 92.6 147.69 93.22 147.87 94ZM300.82 94L294.3 94C294.49 93.22 294.88 92.6 295.46 92.12C296.06 91.62 296.74 91.38 297.5 91.38Q298.15 91.38 298.71 91.59Q299.2 91.77 299.62 92.12C300.24 92.6 300.64 93.22 300.82 94ZM107.64 97.9Q106.94 98.28 106.04 98.28Q105.27 98.28 104.63 97.98Q104.11 97.74 103.68 97.32C103.05 96.65 102.74 95.84 102.74 94.9Q102.74 94.07 103.06 93.4Q103.29 92.91 103.68 92.5C104.32 91.84 105.11 91.52 106.04 91.52Q106.92 91.52 107.6 91.88Q108.04 92.11 108.4 92.5C109.04 93.14 109.36 93.94 109.36 94.9C109.36 95.86 109.04 96.66 108.4 97.32Q108.06 97.67 107.64 97.9ZM154.9 92.5C155.51 91.84 156.27 91.52 157.16 91.52C158.07 91.52 158.83 91.84 159.44 92.5C160.05 93.12 160.36 93.92 160.36 94.9C160.36 95.86 160.05 96.66 159.44 97.32C158.81 97.96 158.05 98.28 157.16 98.28Q156.47 98.28 155.9 98.02Q155.35 97.78 154.9 97.32C154.29 96.66 153.98 95.86 153.98 94.9C153.98 93.92 154.29 93.12 154.9 92.5ZM192.27 92.5C192.89 91.84 193.64 91.52 194.53 91.52C195.44 91.52 196.2 91.84 196.81 92.5C197.43 93.12 197.73 93.92 197.73 94.9C197.73 95.86 197.43 96.66 196.81 97.32C196.2 97.96 195.44 98.28 194.53 98.28Q193.91 98.28 193.38 98.06Q192.77 97.82 192.27 97.32C191.66 96.66 191.35 95.86 191.35 94.9C191.35 93.92 191.66 93.12 192.27 92.5ZM222.45 92.5C223.06 91.84 223.82 91.52 224.71 91.52C225.62 91.52 226.38 91.84 226.99 92.5C227.6 93.12 227.91 93.92 227.91 94.9Q227.91 95.8 227.55 96.52Q227.33 96.95 226.99 97.32C226.38 97.96 225.62 98.28 224.71 98.28C223.83 98.28 223.08 97.96 222.45 97.32C221.84 96.66 221.53 95.86 221.53 94.9C221.53 93.92 221.84 93.12 222.45 92.5ZM247.54 92.5C248.15 91.84 248.9 91.52 249.8 91.52C250.7 91.52 251.46 91.84 252.08 92.5C252.69 93.12 253 93.92 253 94.9C253 95.86 252.69 96.66 252.08 97.32C251.45 97.96 250.69 98.28 249.8 98.28C248.9 98.28 248.15 97.96 247.54 97.32C246.92 96.66 246.62 95.86 246.62 94.9C246.62 93.92 246.92 93.12 247.54 92.5ZM259.79 92.5C260.41 91.84 261.16 91.52 262.05 91.52C262.96 91.52 263.72 91.84 264.33 92.5C264.95 93.12 265.25 93.92 265.25 94.9Q265.25 95.8 264.89 96.52Q264.68 96.95 264.33 97.32C263.72 97.96 262.96 98.28 262.05 98.28C261.17 98.28 260.42 97.96 259.79 97.32C259.18 96.66 258.87 95.86 258.87 94.9C258.87 93.92 259.18 93.12 259.79 92.5ZM120.93 98.1L116.05 98.1C116.46 97.26 116.67 96.14 116.67 94.76L116.67 91.7L120.93 91.7L120.93 98.1ZM134.33 98.1L129.45 98.1C129.86 97.26 130.07 96.14 130.07 94.76L130.07 91.7L134.33 91.7L134.33 98.1ZM271.93 91.7L275.33 91.7C275.65 91.7 275.91 91.8 276.11 92C276.32 92.2 276.43 92.45 276.43 92.76C276.43 93.06 276.32 93.32 276.11 93.54C275.91 93.74 275.65 93.84 275.33 93.84L271.93 93.84L271.93 91.7ZM271.93 98.1L271.93 95.58L275.75 95.58C276.08 95.58 276.35 95.7 276.57 95.94C276.79 96.18 276.91 96.48 276.91 96.84C276.91 97.2 276.79 97.5 276.57 97.74C276.35 97.98 276.08 98.1 275.75 98.1L271.93 98.1ZM99.33 122.8C100.37 123.84 101.67 124.36 103.23 124.36C104.79 124.36 106.09 123.84 107.13 122.8C108.18 121.76 108.71 120.46 108.71 118.9C108.71 117.34 108.18 116.04 107.13 115C106.09 113.96 104.79 113.44 103.23 113.44Q101.82 113.44 100.7 114Q99.95 114.37 99.33 115C98.29 116.04 97.77 117.34 97.77 118.9Q97.77 120.3 98.33 121.42Q98.7 122.17 99.33 122.8ZM124 117.34L126.1 116.72C125.69 115.72 125.03 114.92 124.12 114.34C123.23 113.74 122.2 113.44 121.04 113.44Q119.64 113.44 118.51 114Q117.76 114.37 117.14 115C116.1 116.04 115.58 117.34 115.58 118.9C115.58 120.46 116.1 121.76 117.14 122.8C118.18 123.84 119.48 124.36 121.04 124.36C122.2 124.36 123.23 124.06 124.12 123.48C125.03 122.88 125.69 122.08 126.1 121.08L124 120.46C123.73 121.02 123.34 121.46 122.82 121.8C122.3 122.12 121.71 122.28 121.04 122.28Q120.27 122.28 119.63 121.98Q119.11 121.75 118.68 121.32C118.05 120.65 117.74 119.84 117.74 118.9C117.74 117.95 118.05 117.15 118.68 116.5Q119.13 116.04 119.67 115.79Q120.29 115.52 121.04 115.52C121.71 115.52 122.3 115.68 122.82 116.02C123.34 116.34 123.73 116.78 124 117.34ZM168.79 119.66L177.43 119.66C177.46 119.2 177.47 118.95 177.47 118.9C177.47 117.34 176.95 116.04 175.91 115C174.9 113.96 173.62 113.44 172.07 113.44C170.53 113.44 169.23 113.96 168.19 115C167.17 116.05 166.65 117.35 166.65 118.9Q166.65 120.24 167.19 121.33Q167.58 122.13 168.25 122.8C169.31 123.84 170.63 124.36 172.23 124.36C173.26 124.36 174.19 124.12 175.03 123.66C175.89 123.19 176.55 122.55 177.03 121.74L174.99 121.12C174.33 121.98 173.41 122.42 172.23 122.42C171.37 122.42 170.61 122.16 169.97 121.66Q169.54 121.3 169.26 120.84Q168.92 120.31 168.79 119.66ZM203.72 113.7L203.72 124.1L205.8 124.1L205.8 119.8L207.88 119.8C208.08 121.12 208.67 122.21 209.66 123.08Q210.19 123.54 210.8 123.84Q211.87 124.36 213.2 124.36C214.72 124.36 215.99 123.84 217.02 122.8C218.04 121.74 218.56 120.44 218.56 118.9C218.56 117.35 218.04 116.05 217.02 115C215.99 113.96 214.72 113.44 213.2 113.44C211.86 113.44 210.71 113.84 209.74 114.66C208.76 115.46 208.16 116.5 207.92 117.8L205.8 117.8L205.8 113.7L203.72 113.7ZM88.32 124.1L88.32 115.7L93.66 115.7L93.66 124.1L95.74 124.1L95.74 113.7L86.24 113.7L86.24 124.1L88.32 124.1ZM130 124.1L130 119.8L135.53 119.8L135.53 124.1L137.62 124.1L137.62 113.7L135.53 113.7L135.53 117.8L130 117.8L130 113.7L127.92 113.7L127.92 124.1L130 124.1ZM141.84 124.1L147.72 117.2L147.72 124.1L149.8 124.1L149.8 113.7L148.06 113.7L142.18 120.64L142.18 113.7L140.1 113.7L140.1 124.1L141.84 124.1ZM151.33 124.1L153.83 124.1L157.71 118.98L157.71 124.1L159.79 124.1L159.79 118.96L163.69 124.1L166.19 124.1L162.07 118.72L165.77 113.7L163.31 113.7L159.79 118.48L159.79 113.7L157.71 113.7L157.71 118.44L154.21 113.7L151.75 113.7L155.43 118.72L151.33 124.1ZM181.4 124.1L181.4 119.8L186.94 119.8L186.94 124.1L189.02 124.1L189.02 113.7L186.94 113.7L186.94 117.8L181.4 117.8L181.4 113.7L179.32 113.7L179.32 124.1L181.4 124.1ZM193.25 124.1L199.13 117.2L199.13 124.1L201.21 124.1L201.21 113.7L199.47 113.7L193.59 120.64L193.59 113.7L191.51 113.7L191.51 124.1L193.25 124.1ZM175.33 118L168.81 118C169 117.22 169.39 116.6 169.97 116.12C170.57 115.62 171.25 115.38 172.01 115.38C172.81 115.38 173.52 115.62 174.13 116.12C174.75 116.6 175.15 117.22 175.33 118ZM104.83 121.9Q104.13 122.28 103.23 122.28Q102.45 122.28 101.82 121.98Q101.3 121.75 100.87 121.32C100.24 120.65 99.93 119.84 99.93 118.9Q99.93 118.07 100.24 117.4Q100.47 116.91 100.87 116.5Q101.32 116.04 101.86 115.79Q102.48 115.52 103.23 115.52Q104.1 115.52 104.79 115.88Q105.23 116.11 105.59 116.5C106.23 117.14 106.55 117.94 106.55 118.9C106.55 119.86 106.23 120.66 105.59 121.32Q105.25 121.67 104.83 121.9ZM213.2 115.52C214.1 115.52 214.86 115.84 215.48 116.5C216.09 117.12 216.4 117.92 216.4 118.9C216.4 119.86 216.09 120.66 215.48 121.32C214.86 121.96 214.1 122.28 213.2 122.28C212.29 122.28 211.53 121.96 210.92 121.32C210.3 120.66 210 119.86 210 118.9C210 117.92 210.3 117.12 210.92 116.5C211.53 115.84 212.29 115.52 213.2 115.52ZM87.74 144.82L85.64 145.36Q85.85 146.04 86.26 146.58Q86.68 147.14 87.32 147.56C88.16 148.09 89.16 148.36 90.34 148.36C91.66 148.36 92.76 148.04 93.66 147.42Q94.48 146.84 94.79 146.05Q94.98 145.59 94.98 145.06Q94.98 144.39 94.71 143.86Q94.37 143.17 93.6 142.7C94.38 142.15 94.78 141.44 94.78 140.58C94.78 139.67 94.36 138.92 93.54 138.34Q92.32 137.44 90.42 137.44Q88.85 137.44 87.65 138.09Q87.53 138.16 87.42 138.24Q86.75 138.66 86.31 139.25Q85.91 139.77 85.7 140.44L87.8 140.98Q88.01 140.39 88.41 140.02Q89.09 139.42 90.32 139.42Q91.3 139.42 91.96 139.84C92.4 140.1 92.62 140.44 92.62 140.84C92.62 141.13 92.5 141.38 92.26 141.58C92.03 141.78 91.74 141.88 91.4 141.88L88.92 141.88L88.92 143.62L91.52 143.62C91.89 143.62 92.2 143.73 92.44 143.96C92.69 144.17 92.82 144.44 92.82 144.78C92.82 145.23 92.57 145.61 92.08 145.92C91.6 146.22 91 146.38 90.28 146.38C88.97 146.38 88.12 145.86 87.74 144.82ZM105.06 138.82C104.1 137.89 102.95 137.44 101.6 137.44Q100.46 137.44 99.51 137.86Q98.65 138.25 97.94 139Q97.49 139.47 97.17 140.03Q96.48 141.27 96.48 142.89Q96.48 144.52 97.17 145.76Q97.49 146.32 97.94 146.8C98.92 147.84 100.15 148.36 101.6 148.36C102.95 148.36 104.1 147.89 105.06 146.98L105.06 148.1L107.14 148.1L107.14 137.7L105.06 137.7L105.06 138.82ZM117.86 152.6L119.94 152.6L119.94 146.98C120.9 147.89 122.05 148.36 123.4 148.36C124.85 148.36 126.07 147.84 127.06 146.8C128.03 145.77 128.52 144.47 128.52 142.89C128.52 141.32 128.03 140.02 127.06 139Q126.35 138.25 125.48 137.86Q124.53 137.44 123.4 137.44C122.05 137.44 120.9 137.89 119.94 138.82L119.94 137.7L117.86 137.7L117.86 152.6ZM143.24 144.82L141.14 145.36C141.44 146.29 142 147.02 142.82 147.56C143.66 148.09 144.67 148.36 145.84 148.36C147.16 148.36 148.27 148.04 149.16 147.42C150.04 146.8 150.48 146.02 150.48 145.06C150.48 144.04 150.02 143.25 149.1 142.7C149.89 142.15 150.28 141.44 150.28 140.58C150.28 139.67 149.87 138.92 149.04 138.34C148.23 137.74 147.19 137.44 145.92 137.44C144.78 137.44 143.78 137.7 142.92 138.24C142.08 138.77 141.51 139.5 141.2 140.44L143.3 140.98Q143.51 140.39 143.92 140.02Q144.6 139.42 145.82 139.42C146.48 139.42 147.02 139.56 147.46 139.84C147.9 140.1 148.12 140.44 148.12 140.84C148.12 141.13 148 141.38 147.76 141.58C147.54 141.78 147.25 141.88 146.9 141.88L144.42 141.88L144.42 143.62L147.02 143.62C147.4 143.62 147.7 143.73 147.94 143.96C148.2 144.17 148.32 144.44 148.32 144.78C148.32 145.23 148.08 145.61 147.58 145.92C147.1 146.22 146.5 146.38 145.78 146.38C144.48 146.38 143.63 145.86 143.24 144.82ZM166.31 143.66L174.95 143.66C174.98 143.2 174.99 142.95 174.99 142.89C174.99 141.34 174.47 140.03 173.43 139C172.42 137.96 171.14 137.44 169.59 137.44C168.05 137.44 166.75 137.96 165.71 139C164.69 140.05 164.17 141.35 164.17 142.89Q164.17 144.24 164.7 145.33Q165.1 146.13 165.77 146.8C166.83 147.84 168.15 148.36 169.75 148.36C170.78 148.36 171.71 148.12 172.55 147.66C173.41 147.19 174.07 146.55 174.55 145.74L172.51 145.12C171.85 145.98 170.93 146.42 169.75 146.42C168.89 146.42 168.13 146.16 167.49 145.66Q167.06 145.3 166.78 144.84Q166.44 144.31 166.31 143.66ZM202.32 146.8C203.36 147.84 204.66 148.36 206.22 148.36C207.78 148.36 209.08 147.84 210.12 146.8C211.17 145.75 211.7 144.46 211.7 142.89C211.7 141.34 211.17 140.03 210.12 139C209.08 137.96 207.78 137.44 206.22 137.44C204.66 137.44 203.36 137.96 202.32 139C201.28 140.03 200.76 141.34 200.76 142.89C200.76 144.46 201.28 145.75 202.32 146.8ZM221.68 141.34L223.78 140.72C223.36 139.72 222.7 138.92 221.8 138.34C220.9 137.74 219.88 137.44 218.72 137.44C217.16 137.44 215.86 137.96 214.82 139C213.78 140.03 213.26 141.34 213.26 142.89C213.26 144.46 213.78 145.75 214.82 146.8C215.86 147.84 217.16 148.36 218.72 148.36C219.88 148.36 220.9 148.06 221.8 147.48C222.7 146.88 223.36 146.08 223.78 145.08L221.68 144.46C221.41 145.02 221.02 145.46 220.5 145.8C219.98 146.12 219.38 146.28 218.72 146.28Q217.94 146.28 217.3 145.98Q216.79 145.75 216.36 145.32C215.73 144.65 215.42 143.84 215.42 142.89C215.42 141.95 215.73 141.15 216.36 140.5Q216.8 140.04 217.35 139.79Q217.97 139.52 218.72 139.52C219.38 139.52 219.98 139.68 220.5 140.02C221.02 140.34 221.41 140.78 221.68 141.34ZM265.25 146.8C266.29 147.84 267.59 148.36 269.15 148.36C270.71 148.36 272.01 147.84 273.04 146.8C274.1 145.75 274.63 144.46 274.63 142.89C274.63 141.34 274.1 140.03 273.04 139C272.01 137.96 270.71 137.44 269.15 137.44C267.59 137.44 266.29 137.96 265.25 139C264.21 140.03 263.69 141.34 263.69 142.89C263.69 144.46 264.21 145.75 265.25 146.8ZM277.87 144.82L275.77 145.36C276.07 146.29 276.63 147.02 277.45 147.56C278.29 148.09 279.3 148.36 280.47 148.36C281.79 148.36 282.9 148.04 283.79 147.42C284.67 146.8 285.11 146.02 285.11 145.06C285.11 144.04 284.65 143.25 283.73 142.7C284.52 142.15 284.91 141.44 284.91 140.58C284.91 139.67 284.5 138.92 283.67 138.34C282.86 137.74 281.82 137.44 280.55 137.44Q278.99 137.44 277.79 138.09Q277.67 138.16 277.55 138.24Q276.89 138.66 276.44 139.25Q276.05 139.77 275.83 140.44L277.93 140.98C278.31 139.94 279.15 139.42 280.45 139.42C281.1 139.42 281.65 139.56 282.09 139.84C282.53 140.1 282.75 140.44 282.75 140.84C282.75 141.13 282.63 141.38 282.39 141.58C282.17 141.78 281.88 141.88 281.53 141.88L279.05 141.88L279.05 143.62L281.65 143.62C282.03 143.62 282.33 143.73 282.57 143.96C282.82 144.17 282.95 144.44 282.95 144.78C282.95 145.23 282.71 145.61 282.21 145.92C281.73 146.22 281.13 146.38 280.41 146.38C279.1 146.38 278.26 145.86 277.87 144.82ZM329.04 138.82C328.08 137.89 326.93 137.44 325.58 137.44C324.13 137.44 322.91 137.96 321.92 139C320.95 140.02 320.46 141.32 320.46 142.89C320.46 144.47 320.95 145.77 321.92 146.8C322.91 147.84 324.13 148.36 325.58 148.36C326.93 148.36 328.08 147.89 329.04 146.98L329.04 148.1L331.12 148.1L331.12 137.7L329.04 137.7L329.04 138.82ZM111.69 148.1L111.69 139.7L116.35 139.7L116.35 137.7L109.61 137.7L109.61 148.1L111.69 148.1ZM129.92 148.1L132.36 148.1L134.86 144.52L137.16 144.52L137.16 148.1L139.24 148.1L139.24 137.7L133.52 137.7C132.52 137.7 131.69 138.02 131.04 138.67C130.37 139.34 130.04 140.16 130.04 141.12C130.04 141.9 130.26 142.6 130.72 143.2C131.18 143.78 131.78 144.17 132.52 144.38L129.92 148.1ZM154.53 148.1L154.53 143.8L160.07 143.8L160.07 148.1L162.15 148.1L162.15 137.7L160.07 137.7L160.07 141.8L154.53 141.8L154.53 137.7L152.45 137.7L152.45 148.1L154.53 148.1ZM178.92 148.1L178.92 143.8L184.46 143.8L184.46 148.1L186.54 148.1L186.54 137.7L184.46 137.7L184.46 141.8L178.92 141.8L178.92 137.7L176.84 137.7L176.84 148.1L178.92 148.1ZM191.11 148.1L191.11 143.8L196.65 143.8L196.65 148.1L198.73 148.1L198.73 137.7L196.65 137.7L196.65 141.8L191.11 141.8L191.11 137.7L189.03 137.7L189.03 148.1L191.11 148.1ZM228.29 139.7L228.29 148.1L230.37 148.1L230.37 139.7L234.05 139.7L234.05 137.7L224.61 137.7L224.61 139.7L228.29 139.7ZM237.29 148.1L243.17 141.2L243.17 148.1L245.25 148.1L245.25 137.7L243.51 137.7L237.63 144.64L237.63 137.7L235.55 137.7L235.55 148.1L237.29 148.1ZM258.55 137.7L253.07 137.7L253.07 148.1L258.97 148.1C259.93 148.1 260.72 147.8 261.35 147.22C261.99 146.63 262.31 145.88 262.31 144.98Q262.31 144.38 262.09 143.88Q261.74 143.09 260.83 142.56C261.48 142.02 261.81 141.26 261.81 140.28Q261.76 139.69 261.5 139.22Q261.24 138.75 260.75 138.39C260.1 137.93 259.36 137.7 258.55 137.7ZM288.04 151.1L288.04 148.1L296.56 148.1L296.56 151.1L298.64 151.1L298.64 146.1L296.76 146.1L296.76 137.7L288.34 137.7L288.34 142.64C288.34 144.39 288.09 145.55 287.58 146.1L285.96 146.1L285.96 151.1L288.04 151.1ZM302.79 147.84L302.33 148.98C302.1 149.55 301.8 149.96 301.43 150.22C301.06 150.47 300.56 150.6 299.95 150.6L299.51 150.6L299.51 152.6L299.95 152.6C300.99 152.6 301.84 152.36 302.51 151.89C303.18 151.43 303.72 150.69 304.13 149.67L309.03 137.7L306.89 137.7L303.83 145.25L300.87 137.7L298.73 137.7L302.79 147.84ZM314.77 144.44L317.51 148.1L319.97 148.1L315.99 142.75L319.79 137.7L317.33 137.7L314.77 141.1L312.19 137.7L309.75 137.7L313.53 142.75L309.55 148.1L312.01 148.1L314.77 144.44ZM172.85 142L166.33 142C166.52 141.22 166.91 140.6 167.49 140.12C168.09 139.62 168.77 139.38 169.53 139.38C170.33 139.38 171.04 139.62 171.65 140.12C172.27 140.6 172.67 141.22 172.85 142ZM99.56 140.5C100.17 139.84 100.93 139.52 101.82 139.52Q102.52 139.52 103.11 139.78Q103.66 140.02 104.1 140.5C104.71 141.12 105.02 141.92 105.02 142.89Q105.02 143.8 104.66 144.52Q104.44 144.95 104.1 145.32Q103.67 145.76 103.15 146Q102.55 146.28 101.82 146.28Q101.2 146.28 100.66 146.06Q100.06 145.82 99.56 145.32Q99.21 144.95 99 144.52Q98.64 143.8 98.64 142.89C98.64 141.92 98.94 141.12 99.56 140.5ZM121.93 139.75Q122.49 139.52 123.16 139.52C124.06 139.52 124.82 139.84 125.44 140.5C126.05 141.12 126.36 141.92 126.36 142.89Q126.36 143.8 126 144.52Q125.78 144.95 125.44 145.32C124.81 145.96 124.05 146.28 123.16 146.28Q122.47 146.28 121.89 146.02Q121.35 145.78 120.9 145.32C120.28 144.66 119.98 143.86 119.98 142.89C119.98 141.92 120.28 141.12 120.9 140.5Q121.36 140 121.93 139.75ZM207.82 145.9Q207.12 146.28 206.22 146.28Q205.44 146.28 204.8 145.98Q204.29 145.75 203.86 145.32Q203.44 144.88 203.21 144.36Q202.92 143.69 202.92 142.89Q202.92 142.07 203.23 141.4Q203.46 140.91 203.86 140.5Q204.3 140.04 204.85 139.79Q205.47 139.52 206.22 139.52Q207.09 139.52 207.78 139.88Q208.22 140.11 208.58 140.5Q208.96 140.88 209.19 141.34Q209.54 142.03 209.54 142.89Q209.54 143.74 209.21 144.42Q208.97 144.91 208.58 145.32Q208.23 145.67 207.82 145.9ZM270.75 145.9Q270.05 146.28 269.15 146.28Q268.37 146.28 267.73 145.98Q267.22 145.75 266.79 145.32C266.16 144.65 265.85 143.84 265.85 142.89C265.85 141.95 266.16 141.15 266.79 140.5Q267.23 140.04 267.78 139.79Q268.4 139.52 269.15 139.52Q270.02 139.52 270.71 139.88Q271.15 140.11 271.51 140.5C272.15 141.14 272.47 141.94 272.47 142.89C272.47 143.86 272.15 144.66 271.51 145.32Q271.16 145.67 270.75 145.9ZM323.54 140.5C324.16 139.84 324.91 139.52 325.8 139.52C326.71 139.52 327.47 139.84 328.08 140.5C328.7 141.12 329 141.92 329 142.89Q329 143.8 328.64 144.52Q328.43 144.95 328.08 145.32C327.47 145.96 326.71 146.28 325.8 146.28C324.92 146.28 324.17 145.96 323.54 145.32C322.93 144.66 322.62 143.86 322.62 142.89C322.62 141.92 322.93 141.12 323.54 140.5ZM132.58 142.14C132.32 141.86 132.2 141.52 132.2 141.12C132.2 140.7 132.32 140.36 132.58 140.1C132.83 139.83 133.14 139.7 133.52 139.7L137.16 139.7L137.16 142.53L133.52 142.53C133.14 142.53 132.83 142.4 132.58 142.14ZM255.15 139.7L258.55 139.7C258.87 139.7 259.13 139.8 259.33 140C259.54 140.2 259.65 140.45 259.65 140.75C259.65 141.06 259.54 141.32 259.33 141.53C259.13 141.74 258.87 141.84 258.55 141.84L255.15 141.84L255.15 139.7ZM294.68 146.1L289.8 146.1C290.21 145.25 290.42 144.14 290.42 142.75L290.42 139.7L294.68 139.7L294.68 146.1ZM255.15 146.1L255.15 143.58L258.97 143.58C259.3 143.58 259.58 143.7 259.79 143.94C260.02 144.17 260.13 144.48 260.13 144.84C260.13 145.2 260.02 145.5 259.79 145.74C259.58 145.98 259.3 146.1 258.97 146.1L255.15 146.1Z" fill="#FFFFFF" fill-opacity="0.740000" fill-rule="evenodd"/>
	<path id="star/strokeoval/raydown" d="M43.16 126.71L43.73 140L44.19 140L44.76 126.71L56.5 126.06L56.5 125.54L44.77 124.89L44.6 112.91C55.88 112.85 64.92 111.32 64.92 109.43C64.92 108.79 63.9 108.2 62.12 107.69C63.9 107.18 64.92 106.58 64.92 105.95C64.92 105.31 63.9 104.72 62.12 104.21C63.9 103.7 64.92 103.1 64.92 102.47C64.92 101.83 63.9 101.24 62.12 100.73C63.9 100.21 64.92 99.62 64.92 98.99C64.92 98.35 63.9 97.76 62.12 97.25C63.9 96.73 64.92 96.14 64.92 95.5C64.92 93.6 55.73 92.06 44.31 92.02L44.19 83L43.73 83L43.61 92.02C32.19 92.06 23 93.6 23 95.5C23 96.14 24.02 96.73 25.8 97.25C24.02 97.76 23 98.35 23 98.99C23 99.62 24.02 100.21 25.8 100.73C24.02 101.24 23 101.83 23 102.47C23 103.1 24.02 103.7 25.8 104.21C24.02 104.72 23 105.31 23 105.95C23 106.58 24.02 107.18 25.8 107.69C24.02 108.2 23 108.79 23 109.43C23 111.32 32.04 112.85 43.32 112.91L43.15 124.89L31.41 125.54L31.41 126.06L43.16 126.71ZM44.6 112.39L44.55 109.43C51.4 109.4 57.41 108.82 61.1 107.95C61.91 108.14 62.58 108.35 63.13 108.56C63.64 108.76 64 108.96 64.23 109.15C64.35 109.24 64.41 109.31 64.44 109.37C64.46 109.39 64.46 109.41 64.47 109.42C64.47 109.42 64.47 109.42 64.47 109.43L64.47 109.43L64.47 109.43C64.47 109.43 64.47 109.43 64.47 109.44C64.46 109.45 64.46 109.47 64.44 109.49C64.41 109.54 64.35 109.62 64.23 109.71C64 109.9 63.64 110.09 63.13 110.3C62.11 110.7 60.6 111.07 58.72 111.38C55.09 111.98 50.12 112.36 44.6 112.39ZM44.55 108.91L44.51 106.46C50.07 106.49 55.07 106.87 58.72 107.48C59.13 107.55 59.51 107.62 59.89 107.69C59.51 107.76 59.13 107.83 58.72 107.9C55.08 108.5 50.09 108.89 44.55 108.91ZM44.51 105.95L44.51 105.95C51.37 105.92 57.41 105.34 61.1 104.47C61.91 104.66 62.58 104.87 63.13 105.08C63.64 105.28 64 105.48 64.23 105.67C64.35 105.76 64.41 105.83 64.44 105.89C64.46 105.91 64.46 105.93 64.47 105.94C64.47 105.94 64.47 105.94 64.47 105.95L64.47 105.95L64.47 105.95C64.47 105.95 64.47 105.95 64.47 105.96C64.46 105.97 64.46 105.98 64.44 106.01C64.41 106.06 64.35 106.14 64.23 106.23C64 106.41 63.64 106.61 63.13 106.82C62.58 107.03 61.91 107.23 61.1 107.42C57.41 106.55 51.37 105.98 44.51 105.95ZM44.5 105.43L44.47 102.98C50.04 103.01 55.06 103.39 58.72 104C59.13 104.06 59.51 104.13 59.89 104.21C59.51 104.28 59.13 104.35 58.72 104.42C55.07 105.02 50.06 105.41 44.5 105.43ZM44.46 102.47L44.46 102.47C51.34 102.44 57.4 101.86 61.1 100.99C61.91 101.18 62.58 101.39 63.13 101.6C63.64 101.8 64 102 64.23 102.18C64.35 102.28 64.41 102.35 64.44 102.4C64.46 102.43 64.46 102.45 64.47 102.46C64.47 102.46 64.47 102.46 64.47 102.46L64.47 102.47L64.47 102.47C64.47 102.47 64.47 102.47 64.47 102.48C64.46 102.49 64.46 102.5 64.44 102.53C64.41 102.58 64.35 102.66 64.23 102.75C64 102.93 63.64 103.13 63.13 103.33C62.58 103.55 61.91 103.75 61.1 103.94C57.4 103.07 51.34 102.49 44.46 102.47ZM44.45 101.95L44.42 99.5C50.01 99.52 55.05 99.91 58.72 100.52C59.13 100.58 59.51 100.65 59.89 100.73C59.51 100.8 59.13 100.87 58.72 100.94C55.06 101.54 50.03 101.93 44.45 101.95ZM44.41 98.99L44.41 98.98C51.31 98.96 57.39 98.38 61.1 97.51C61.91 97.7 62.58 97.9 63.13 98.12C63.64 98.32 64 98.52 64.23 98.7C64.35 98.79 64.41 98.87 64.44 98.92C64.46 98.95 64.46 98.97 64.47 98.97C64.47 98.98 64.47 98.98 64.47 98.98L64.47 98.99L64.47 98.99C64.47 98.99 64.47 98.99 64.47 99C64.46 99.01 64.46 99.02 64.44 99.05C64.41 99.1 64.35 99.18 64.23 99.27C64 99.45 63.64 99.65 63.13 99.85C62.58 100.07 61.91 100.27 61.1 100.46C57.39 99.59 51.31 99.01 44.41 98.99ZM44.4 98.47L44.37 96.02C49.98 96.04 55.04 96.42 58.72 97.03C59.13 97.1 59.51 97.17 59.89 97.25C59.51 97.32 59.13 97.39 58.72 97.46C55.05 98.06 50 98.45 44.4 98.47ZM44.36 95.51L44.32 92.54C49.95 92.56 55.03 92.94 58.72 93.55C60.6 93.87 62.11 94.24 63.13 94.64C63.64 94.84 64 95.04 64.23 95.22C64.35 95.31 64.41 95.39 64.44 95.44C64.46 95.47 64.46 95.48 64.47 95.49C64.47 95.5 64.47 95.5 64.47 95.5L64.47 95.5L64.47 95.51C64.47 95.51 64.47 95.51 64.47 95.52C64.46 95.52 64.46 95.54 64.44 95.57C64.41 95.62 64.35 95.7 64.23 95.79C64 95.97 63.64 96.17 63.13 96.37C62.58 96.59 61.91 96.79 61.1 96.98C57.38 96.1 51.28 95.53 44.36 95.51ZM43.6 92.54L43.56 95.51C36.64 95.53 30.54 96.1 26.82 96.98C26.01 96.79 25.33 96.59 24.79 96.37C24.28 96.17 23.91 95.97 23.69 95.79C23.57 95.7 23.51 95.62 23.48 95.57C23.46 95.54 23.46 95.52 23.45 95.52C23.45 95.51 23.45 95.51 23.45 95.51L23.45 95.5L23.45 95.5C23.45 95.5 23.45 95.5 23.45 95.49C23.46 95.48 23.46 95.47 23.48 95.44C23.51 95.39 23.57 95.31 23.69 95.22C23.91 95.04 24.28 94.84 24.79 94.64C25.81 94.24 27.32 93.87 29.2 93.55C32.89 92.94 37.97 92.56 43.6 92.54ZM43.55 96.02L43.52 98.47C37.92 98.45 32.87 98.06 29.2 97.46C28.79 97.39 28.41 97.32 28.03 97.25C28.41 97.17 28.79 97.1 29.2 97.03C32.88 96.42 37.94 96.04 43.55 96.02ZM43.51 98.98L43.51 98.99C36.61 99.01 30.53 99.59 26.82 100.46C26.01 100.27 25.33 100.07 24.79 99.85C24.28 99.65 23.91 99.45 23.69 99.27C23.57 99.18 23.51 99.1 23.48 99.05C23.46 99.02 23.46 99.01 23.45 99C23.45 98.99 23.45 98.99 23.45 98.99L23.45 98.99L23.45 98.98C23.45 98.98 23.45 98.98 23.45 98.97C23.46 98.97 23.46 98.95 23.48 98.92C23.51 98.87 23.57 98.79 23.69 98.7C23.91 98.52 24.28 98.32 24.79 98.12C25.33 97.9 26.01 97.7 26.82 97.51C30.53 98.38 36.61 98.96 43.51 98.98ZM43.5 99.5L43.47 101.95C37.89 101.93 32.86 101.54 29.2 100.94C28.79 100.87 28.41 100.8 28.03 100.73C28.41 100.65 28.79 100.58 29.2 100.52C32.87 99.91 37.91 99.52 43.5 99.5ZM43.46 102.47L43.46 102.47C36.58 102.49 30.52 103.07 26.82 103.94C26.01 103.75 25.33 103.55 24.79 103.33C24.28 103.13 23.91 102.93 23.69 102.75C23.57 102.66 23.51 102.58 23.48 102.53C23.46 102.5 23.46 102.49 23.45 102.48C23.45 102.47 23.45 102.47 23.45 102.47L23.45 102.47L23.45 102.46C23.45 102.46 23.45 102.46 23.45 102.46C23.46 102.45 23.46 102.43 23.48 102.4C23.51 102.35 23.57 102.28 23.69 102.18C23.91 102 24.28 101.8 24.79 101.6C25.33 101.39 26.01 101.18 26.82 100.99C30.52 101.86 36.58 102.44 43.46 102.47ZM43.45 102.98L43.42 105.43C37.86 105.41 32.85 105.02 29.2 104.42C28.79 104.35 28.41 104.28 28.03 104.21C28.41 104.13 28.79 104.06 29.2 104C32.86 103.39 37.88 103.01 43.45 102.98ZM43.41 105.95L43.41 105.95C36.55 105.98 30.51 106.55 26.82 107.42C26.01 107.23 25.33 107.03 24.79 106.82C24.28 106.61 23.91 106.41 23.69 106.23C23.57 106.14 23.51 106.06 23.48 106.01C23.46 105.98 23.46 105.97 23.45 105.96C23.45 105.95 23.45 105.95 23.45 105.95L23.45 105.95L23.45 105.95C23.45 105.94 23.45 105.94 23.45 105.94C23.46 105.93 23.46 105.91 23.48 105.89C23.51 105.83 23.57 105.76 23.69 105.67C23.91 105.48 24.28 105.28 24.79 105.08C25.33 104.87 26.01 104.66 26.82 104.47C30.51 105.34 36.55 105.92 43.41 105.95ZM43.41 106.46L43.37 108.91C37.83 108.89 32.84 108.5 29.2 107.9C28.79 107.83 28.41 107.76 28.03 107.69C28.41 107.62 28.79 107.55 29.2 107.48C32.85 106.87 37.85 106.49 43.41 106.46ZM43.36 109.43L43.32 112.39C37.8 112.36 32.83 111.98 29.2 111.38C27.32 111.07 25.81 110.7 24.79 110.3C24.28 110.09 23.91 109.9 23.69 109.71C23.57 109.62 23.51 109.54 23.48 109.49C23.46 109.47 23.46 109.45 23.45 109.44C23.45 109.43 23.45 109.43 23.45 109.43L23.45 109.43L23.45 109.43C23.45 109.42 23.45 109.42 23.45 109.42C23.46 109.41 23.46 109.39 23.48 109.37C23.51 109.31 23.57 109.24 23.69 109.15C23.91 108.96 24.28 108.76 24.79 108.56C25.33 108.35 26.01 108.14 26.82 107.95C30.5 108.82 36.52 109.4 43.36 109.43ZM43.96 134.71L43.59 126.22L36.09 125.8L43.6 125.39L43.77 112.91C43.83 112.91 43.9 112.91 43.96 112.91C44.02 112.91 44.08 112.91 44.15 112.91L44.32 125.39L51.83 125.8L44.33 126.22L43.96 134.71ZM43.78 112.39L43.82 109.43C43.87 109.43 43.91 109.43 43.96 109.43C44.01 109.43 44.05 109.43 44.1 109.43L44.14 112.39C44.08 112.39 44.02 112.39 43.96 112.39C43.9 112.39 43.84 112.39 43.78 112.39ZM43.83 108.91L43.86 106.46C43.9 106.46 43.93 106.46 43.96 106.46C43.99 106.46 44.02 106.46 44.06 106.46L44.09 108.91C44.05 108.91 44 108.91 43.96 108.91C43.91 108.91 43.87 108.91 43.83 108.91ZM43.87 105.95L43.87 105.95C43.9 105.95 43.93 105.95 43.96 105.95L44.05 105.95L44.05 105.95C44.02 105.95 43.99 105.95 43.96 105.95L43.87 105.95ZM43.88 105.43L43.91 102.98L43.96 102.98L44.01 102.98L44.04 105.43C44.01 105.43 43.99 105.43 43.96 105.43L43.88 105.43ZM43.92 101.95L43.96 99.5L43.96 99.5L44 101.95L43.96 101.95L43.92 101.95Z" fill="#FFFFFF" fill-opacity="1.000000" fill-rule="evenodd"/>
</svg>
