<svg width="426.433594" height="301.000000" viewBox="0 0 426.434 301" fill="none" xmlns="http://www.w3.org/2000/svg" xmlns:xlink="http://www.w3.org/1999/xlink">
	<desc>
			Created with Pixso.
	</desc>
	<defs>
		<filter id="filter_88_247_dd" x="0.000000" y="0.000000" width="426.433594" height="301.000000" filterUnits="userSpaceOnUse" color-interpolation-filters="sRGB">
			<feFlood flood-opacity="0" result="BackgroundImageFix"/>
			<feGaussianBlur in="BackgroundImage" stdDeviation="20"/>
			<feComposite in2="SourceAlpha" operator="in" result="effect_backgroundBlur_1"/>
			<feBlend mode="normal" in="SourceGraphic" in2="effect_backgroundBlur_1" result="shape"/>
		</filter>
		<linearGradient x1="36.644012" y1="-0.000061" x2="262.301331" y2="300.999969" id="paint_linear_88_245_0" gradientUnits="userSpaceOnUse">
			<stop offset="0.122952" stop-color="#E74040"/>
			<stop offset="1.000000" stop-color="#240404"/>
		</linearGradient>
	</defs>
	<path id="Subtract" d="M33.1387 0L0 28.4744L0 301L330.814 301L426.434 217.373L426.434 0L33.1387 0Z" clip-rule="evenodd" fill="url(#paint_linear_88_245_0)" fill-opacity="0.500000" fill-rule="evenodd"/>
	<path id="Удорожание парковок и тарифов на платные дороги" d="M86.34 86.1L92.38 96.6Q91.56 98.02 90.44 98.33Q90.13 98.42 89.8 98.42L88.5 98.42L88.5 100.1L89.94 100.1Q90.69 100.1 91.35 99.85Q93.1 99.2 94.22 96.86L99.34 86.1L97.4 86.1L93.28 94.74L88.34 86.1L86.34 86.1ZM112.73 97.29Q113.11 98.1 113.77 98.78Q114.44 99.43 115.25 99.81Q116.33 100.32 117.65 100.32Q118.96 100.32 120.05 99.81Q120.85 99.43 121.53 98.78C122.57 97.74 123.09 96.44 123.09 94.9C123.09 93.35 122.57 92.06 121.53 91.04C120.49 90 119.19 89.48 117.65 89.48Q116.29 89.48 115.19 90.01Q114.41 90.39 113.77 91.04Q113.16 91.64 112.79 92.37Q112.23 93.49 112.23 94.9Q112.23 96.21 112.73 97.29ZM125.38 104.6L127.06 104.6L127.06 98.62C128.04 99.75 129.3 100.32 130.84 100.32C132.3 100.32 133.52 99.8 134.5 98.78C135.49 97.72 135.98 96.43 135.98 94.9C135.98 93.35 135.49 92.06 134.5 91.04C133.53 90 132.31 89.48 130.84 89.48C129.3 89.48 128.04 90.04 127.06 91.18L127.06 89.7L125.38 89.7L125.38 104.6ZM138.24 97.29Q138.62 98.1 139.27 98.78C140.33 99.8 141.62 100.32 143.15 100.32Q144.47 100.32 145.55 99.81Q146.36 99.43 147.03 98.78C148.07 97.74 148.59 96.44 148.59 94.9C148.59 93.35 148.07 92.06 147.03 91.04C145.99 90 144.7 89.48 143.15 89.48Q141.8 89.48 140.7 90.01Q139.92 90.39 139.27 91.04Q138.67 91.64 138.3 92.37Q137.73 93.49 137.73 94.9Q137.73 96.21 138.24 97.29ZM173.39 91.18C172.42 90.04 171.15 89.48 169.59 89.48Q168.39 89.48 167.41 89.94Q166.6 90.33 165.93 91.04C164.96 92.05 164.47 93.34 164.47 94.9C164.47 96.46 164.96 97.75 165.93 98.78Q166.62 99.49 167.47 99.88Q168.43 100.32 169.59 100.32C171.15 100.32 172.42 99.75 173.39 98.62L173.39 100.1L175.07 100.1L175.07 89.7L173.39 89.7L173.39 91.18ZM203.95 95.48L212.89 95.48C212.91 95.13 212.93 94.94 212.93 94.9C212.93 93.35 212.41 92.06 211.39 91.04C210.37 90 209.1 89.48 207.57 89.48C206.05 89.48 204.77 90 203.75 91.04C202.72 92.06 202.21 93.35 202.21 94.9C202.21 96.44 202.73 97.74 203.79 98.78Q204.41 99.38 205.16 99.75Q206.31 100.32 207.75 100.32C208.75 100.32 209.66 100.09 210.49 99.64C211.33 99.18 211.99 98.56 212.47 97.76L210.83 97.24C210.09 98.24 209.07 98.74 207.75 98.74C206.73 98.74 205.88 98.43 205.19 97.82C204.48 97.19 204.07 96.41 203.95 95.48ZM241.19 91.18C240.21 90.04 238.95 89.48 237.39 89.48Q236.18 89.48 235.2 89.94Q234.39 90.33 233.73 91.04Q233.27 91.51 232.95 92.08Q232.27 93.29 232.27 94.9Q232.27 96.48 232.93 97.69Q233.25 98.28 233.73 98.78Q234.42 99.49 235.26 99.88Q236.22 100.32 237.39 100.32C238.95 100.32 240.21 99.75 241.19 98.62L241.19 100.1L242.87 100.1L242.87 89.7L241.19 89.7L241.19 91.18ZM245.7 104.6L247.38 104.6L247.38 98.62C248.35 99.75 249.61 100.32 251.16 100.32C252.61 100.32 253.83 99.8 254.82 98.78C255.8 97.72 256.3 96.43 256.3 94.9C256.3 93.35 255.8 92.06 254.82 91.04C253.84 90 252.62 89.48 251.16 89.48C249.61 89.48 248.35 90.04 247.38 91.18L247.38 89.7L245.7 89.7L245.7 104.6ZM268.03 94.9C268.03 96.43 268.54 97.72 269.57 98.78Q270.24 99.43 271.05 99.81Q272.13 100.32 273.45 100.32C274.98 100.32 276.27 99.8 277.33 98.78Q277.97 98.13 278.35 97.35Q278.89 96.25 278.89 94.9Q278.89 93.51 278.34 92.41Q277.96 91.66 277.33 91.04C276.29 90 274.99 89.48 273.45 89.48C271.9 89.48 270.61 90 269.57 91.04C268.54 92.06 268.03 93.35 268.03 94.9ZM291.8 94.9C291.8 96.43 292.31 97.72 293.34 98.78Q294.01 99.43 294.82 99.81Q295.9 100.32 297.22 100.32C298.75 100.32 300.04 99.8 301.1 98.78Q301.74 98.13 302.12 97.35Q302.66 96.25 302.66 94.9Q302.66 93.51 302.1 92.41Q301.73 91.66 301.1 91.04C300.06 90 298.76 89.48 297.22 89.48C295.67 89.48 294.38 90 293.34 91.04C292.31 92.06 291.8 93.35 291.8 94.9ZM100.34 103.1L100.34 100.1L109.5 100.1L109.5 103.1L111.18 103.1L111.18 98.48L109.28 98.48L109.28 89.7L101.12 89.7L101.12 95Q101.12 97.66 100.22 98.48L98.66 98.48L98.66 103.1L100.34 103.1ZM149.42 100.1L151.44 100.1L155.7 94.72L151.82 89.7L149.82 89.7L153.68 94.72L149.42 100.1ZM157.44 100.1L157.44 89.7L155.76 89.7L155.76 100.1L157.44 100.1ZM161.76 100.1L163.78 100.1L159.52 94.72L163.38 89.7L161.38 89.7L157.52 94.72L161.76 100.1ZM179.58 100.1L179.58 95.62L185.78 95.62L185.78 100.1L187.46 100.1L187.46 89.7L185.78 89.7L185.78 94L179.58 94L179.58 89.7L177.9 89.7L177.9 100.1L179.58 100.1ZM191.73 100.1L198.21 92.52L198.21 100.1L199.89 100.1L199.89 89.7L198.47 89.7L191.99 97.32L191.99 89.7L190.31 89.7L190.31 100.1L191.73 100.1ZM222.24 100.1L222.24 91.32L228.26 91.32L228.26 100.1L229.94 100.1L229.94 89.7L220.56 89.7L220.56 100.1L222.24 100.1ZM260.27 100.1L260.27 89.7L258.59 89.7L258.59 100.1L260.27 100.1ZM265.23 100.1L267.33 100.1L262.63 94.72L266.89 89.7L264.83 89.7L260.55 94.72L265.23 100.1ZM286.54 89.7L281.19 89.7L281.19 100.1L286.97 100.1C287.89 100.1 288.65 99.81 289.26 99.24C289.88 98.66 290.19 97.94 290.19 97.06Q290.19 96.7 290.1 96.38Q289.99 95.98 289.75 95.62C289.47 95.16 289.09 94.82 288.6 94.58Q289.04 94.24 289.29 93.8Q289.69 93.14 289.69 92.26C289.69 92.23 289.66 92.09 289.6 91.84Q289.52 91.45 289.32 91.12Q289.04 90.64 288.53 90.3C287.97 89.9 287.31 89.7 286.54 89.7ZM306.63 100.1L306.63 89.7L304.95 89.7L304.95 100.1L306.63 100.1ZM311.59 100.1L313.69 100.1L308.99 94.72L313.25 89.7L311.19 89.7L306.91 94.72L311.59 100.1ZM211.19 94.12L203.97 94.12C204.13 93.21 204.53 92.47 205.19 91.9Q205.59 91.54 206.07 91.33Q206.73 91.04 207.53 91.04C208.46 91.04 209.26 91.32 209.93 91.9C210.61 92.48 211.03 93.22 211.19 94.12ZM119.33 98.27Q118.58 98.64 117.65 98.64Q116.76 98.64 116.04 98.29Q115.49 98.03 115.03 97.58Q114.56 97.09 114.3 96.51Q113.97 95.78 113.97 94.9Q113.97 93.92 114.36 93.14Q114.61 92.65 115.03 92.24C115.72 91.52 116.59 91.16 117.65 91.16Q118.55 91.16 119.28 91.51Q119.83 91.77 120.29 92.24Q120.7 92.65 120.95 93.14Q121.35 93.92 121.35 94.9Q121.35 95.78 121.01 96.51Q120.75 97.09 120.29 97.58Q119.85 98.01 119.33 98.27ZM128.12 92.24C128.82 91.52 129.66 91.16 130.66 91.16C131.68 91.16 132.52 91.52 133.2 92.24C133.9 92.93 134.24 93.82 134.24 94.9C134.24 95.98 133.9 96.87 133.2 97.58C132.52 98.28 131.68 98.64 130.66 98.64C129.68 98.64 128.83 98.28 128.12 97.58Q127.75 97.18 127.52 96.72Q127.1 95.91 127.1 94.9Q127.1 93.86 127.53 93.05Q127.77 92.61 128.12 92.24ZM144.84 98.27Q144.09 98.64 143.15 98.64C142.11 98.64 141.24 98.28 140.53 97.58C139.83 96.84 139.47 95.95 139.47 94.9C139.47 93.83 139.83 92.94 140.53 92.24Q140.97 91.79 141.49 91.52Q142.23 91.16 143.15 91.16Q144.06 91.16 144.79 91.51Q145.34 91.77 145.79 92.24Q146.21 92.65 146.46 93.14Q146.85 93.92 146.85 94.9Q146.85 95.78 146.52 96.51Q146.26 97.09 145.79 97.58Q145.36 98.01 144.84 98.27ZM167.23 92.24C167.93 91.52 168.77 91.16 169.77 91.16C170.79 91.16 171.63 91.52 172.31 92.24C173.01 92.93 173.35 93.82 173.35 94.9C173.35 95.98 173.01 96.87 172.31 97.58C171.63 98.28 170.79 98.64 169.77 98.64C168.79 98.64 167.94 98.28 167.23 97.58C166.55 96.86 166.21 95.96 166.21 94.9C166.21 93.83 166.55 92.94 167.23 92.24ZM236.18 91.43Q236.82 91.16 237.57 91.16C238.58 91.16 239.43 91.52 240.11 92.24Q240.46 92.59 240.69 93Q241.15 93.82 241.15 94.9Q241.15 95.95 240.71 96.77Q240.47 97.2 240.11 97.58C239.43 98.28 238.58 98.64 237.57 98.64Q236.86 98.64 236.25 98.39Q235.58 98.13 235.03 97.58C234.35 96.86 234.01 95.96 234.01 94.9C234.01 93.83 234.35 92.94 235.03 92.24Q235.55 91.7 236.18 91.43ZM249.59 91.43Q250.23 91.16 250.98 91.16C251.99 91.16 252.84 91.52 253.52 92.24Q253.87 92.59 254.1 93Q254.56 93.82 254.56 94.9Q254.56 95.95 254.12 96.77Q253.88 97.2 253.52 97.58C252.84 98.28 251.99 98.64 250.98 98.64Q250.27 98.64 249.66 98.39Q248.99 98.13 248.44 97.58C247.76 96.86 247.42 95.96 247.42 94.9C247.42 93.83 247.76 92.94 248.44 92.24Q248.96 91.7 249.59 91.43ZM276.09 97.58C275.38 98.28 274.5 98.64 273.45 98.64C272.41 98.64 271.53 98.28 270.83 97.58Q270.36 97.09 270.1 96.51Q269.77 95.78 269.77 94.9Q269.77 93.92 270.16 93.14Q270.41 92.65 270.83 92.24Q271.26 91.79 271.78 91.52Q272.52 91.16 273.45 91.16C274.5 91.16 275.38 91.52 276.09 92.24Q276.5 92.65 276.75 93.14Q277.15 93.92 277.15 94.9Q277.15 95.78 276.82 96.51Q276.55 97.09 276.09 97.58ZM299.86 97.58C299.15 98.28 298.27 98.64 297.22 98.64C296.18 98.64 295.3 98.28 294.6 97.58Q294.13 97.09 293.87 96.51Q293.54 95.78 293.54 94.9Q293.54 93.92 293.93 93.14Q294.18 92.65 294.6 92.24Q295.03 91.79 295.55 91.52Q296.29 91.16 297.22 91.16C298.27 91.16 299.15 91.52 299.86 92.24Q300.27 92.65 300.52 93.14Q300.92 93.92 300.92 94.9Q300.92 95.78 300.58 96.51Q300.32 97.09 299.86 97.58ZM107.6 98.48L102.08 98.48Q102.8 97.18 102.8 95.04L102.8 91.32L107.6 91.32L107.6 98.48ZM282.87 91.32L286.54 91.32C286.96 91.32 287.29 91.44 287.54 91.7C287.81 91.95 287.95 92.27 287.95 92.66C287.95 93.04 287.81 93.36 287.54 93.62C287.29 93.87 286.96 94 286.54 94L282.87 94L282.87 91.32ZM282.87 98.48L282.87 95.42L286.97 95.42C287.38 95.42 287.73 95.56 288.01 95.86C288.29 96.15 288.43 96.52 288.43 96.96Q288.43 97.33 288.28 97.64Q288.18 97.86 288.01 98.04C287.73 98.33 287.38 98.48 286.97 98.48L282.87 98.48ZM160.52 124.3C160.61 124.31 160.82 124.32 161.16 124.32C162.7 124.32 163.99 123.8 165.02 122.78C166.06 121.74 166.58 120.44 166.58 118.9C166.58 117.34 166.06 116.05 165.02 115.04Q164.43 114.44 163.73 114.07Q162.6 113.48 161.16 113.48Q160.66 113.48 160.52 113.5L160.52 109.1L158.84 109.1L158.84 113.5C158.74 113.48 158.53 113.48 158.2 113.48C156.65 113.48 155.36 114 154.32 115.04C153.28 116.06 152.75 117.35 152.75 118.9C152.75 120.44 153.28 121.74 154.32 122.78C155.37 123.8 156.66 124.32 158.2 124.32C158.53 124.32 158.74 124.31 158.84 124.3L158.84 128.6L160.52 128.6L160.52 124.3ZM121.95 114.01Q120.91 113.48 119.59 113.48Q118.39 113.48 117.41 113.94Q116.6 114.33 115.93 115.04Q115.47 115.52 115.16 116.08Q114.47 117.29 114.47 118.9C114.47 120.46 114.96 121.75 115.93 122.78C116.92 123.8 118.14 124.32 119.59 124.32C121.15 124.32 122.42 123.75 123.39 122.62L123.39 124.1L125.07 124.1L125.07 113.7L123.39 113.7L123.39 115.18Q122.75 114.43 121.95 114.01ZM127.9 128.6L129.58 128.6L129.58 122.62C130.56 123.75 131.82 124.32 133.36 124.32C134.82 124.32 136.04 123.8 137.02 122.78C138.01 121.72 138.5 120.43 138.5 118.9C138.5 117.35 138.01 116.06 137.02 115.04C136.05 114 134.83 113.48 133.36 113.48C131.82 113.48 130.56 114.04 129.58 115.18L129.58 113.7L127.9 113.7L127.9 128.6ZM168.42 118.9C168.42 120.43 168.93 121.72 169.96 122.78C171.01 123.8 172.31 124.32 173.84 124.32C175.37 124.32 176.67 123.8 177.72 122.78C178.76 121.74 179.28 120.44 179.28 118.9C179.28 117.35 178.76 116.06 177.72 115.04C176.68 114 175.39 113.48 173.84 113.48Q172.48 113.48 171.38 114.01Q170.6 114.39 169.96 115.04C168.93 116.06 168.42 117.35 168.42 118.9ZM219 115.18C218.03 114.04 216.76 113.48 215.2 113.48Q214 113.48 213.02 113.94Q212.2 114.33 211.54 115.04C210.57 116.05 210.08 117.34 210.08 118.9C210.08 120.46 210.57 121.75 211.54 122.78C212.53 123.8 213.75 124.32 215.2 124.32C216.76 124.32 218.03 123.75 219 122.62L219 124.1L220.68 124.1L220.68 113.7L219 113.7L219 115.18ZM261.6 115.18C260.62 114.04 259.36 113.48 257.8 113.48Q256.59 113.48 255.61 113.94Q254.8 114.33 254.14 115.04Q253.68 115.52 253.36 116.08Q252.68 117.29 252.68 118.9C252.68 120.46 253.16 121.75 254.14 122.78C255.12 123.8 256.34 124.32 257.8 124.32C259.36 124.32 260.62 123.75 261.6 122.62L261.6 124.1L263.28 124.1L263.28 113.7L261.6 113.7L261.6 115.18ZM304.57 119.48L313.51 119.48C313.54 119.13 313.55 118.94 313.55 118.9Q313.55 117.49 312.98 116.37Q312.62 115.64 312.01 115.04Q311.39 114.4 310.63 114.02Q309.55 113.48 308.19 113.48C306.67 113.48 305.4 114 304.37 115.04C303.35 116.06 302.83 117.35 302.83 118.9C302.83 120.44 303.36 121.74 304.41 122.78C305.48 123.8 306.8 124.32 308.37 124.32C309.37 124.32 310.29 124.09 311.11 123.64C311.95 123.18 312.61 122.56 313.09 121.76L311.45 121.24C310.72 122.24 309.69 122.74 308.37 122.74C307.36 122.74 306.51 122.43 305.81 121.82C305.1 121.19 304.69 120.41 304.57 119.48ZM88.84 124.1L95.32 116.52L95.32 124.1L97 124.1L97 113.7L95.58 113.7L89.1 121.32L89.1 113.7L87.42 113.7L87.42 124.1L88.84 124.1ZM108.17 115.32L108.17 124.1L109.85 124.1L109.85 115.32L113.75 115.32L113.75 113.7L104.27 113.7L104.27 115.32L108.17 115.32ZM142.21 124.1L148.69 116.52L148.69 124.1L150.37 124.1L150.37 113.7L148.95 113.7L142.47 121.32L142.47 113.7L140.79 113.7L140.79 124.1L142.21 124.1ZM186.94 113.7L181.58 113.7L181.58 124.1L187.36 124.1C188.28 124.1 189.04 123.81 189.66 123.24C190.27 122.66 190.58 121.94 190.58 121.06C190.58 120.54 190.43 120.06 190.14 119.62C189.86 119.16 189.48 118.82 189 118.58C189.72 118.02 190.08 117.24 190.08 116.26C190.08 116.23 190.05 116.09 190 115.84C189.85 115.2 189.49 114.68 188.92 114.3C188.36 113.9 187.7 113.7 186.94 113.7ZM199.9 124.1L199.9 119.62L206.1 119.62L206.1 124.1L207.78 124.1L207.78 113.7L206.1 113.7L206.1 118L199.9 118L199.9 113.7L198.22 113.7L198.22 124.1L199.9 124.1ZM230.68 124.1L230.68 115.32L236.7 115.32L236.7 124.1L238.38 124.1L238.38 113.7L229 113.7L229 124.1L230.68 124.1ZM240.26 124.1L240.94 124.1C241.9 124.1 242.65 123.72 243.18 122.96Q244 121.8 244 119.52L244 115.32L248.7 115.32L248.7 124.1L250.38 124.1L250.38 113.7L242.32 113.7L242.32 119.2Q242.32 121.91 241.3 122.38Q241.08 122.48 240.82 122.48L240.26 122.48L240.26 124.1ZM268.93 115.32L268.93 124.1L270.61 124.1L270.61 115.32L274.51 115.32L274.51 113.7L265.03 113.7L265.03 115.32L268.93 115.32ZM277.94 124.1L277.94 119.62L284.14 119.62L284.14 124.1L285.82 124.1L285.82 113.7L284.14 113.7L284.14 118L277.94 118L277.94 113.7L276.26 113.7L276.26 124.1L277.94 124.1ZM288.67 124.1L294.07 124.1C294.99 124.02 295.73 123.67 296.31 123.06C296.88 122.44 297.17 121.68 297.17 120.78C297.17 119.83 296.85 119.04 296.21 118.42Q295.82 118.03 295.36 117.8Q294.67 117.46 293.81 117.46L290.35 117.46L290.35 113.7L288.67 113.7L288.67 124.1ZM298.85 124.1L300.53 124.1L300.53 113.7L298.85 113.7L298.85 124.1ZM311.81 118.12L304.59 118.12C304.75 117.21 305.16 116.47 305.81 115.9Q306.22 115.54 306.69 115.33Q307.36 115.04 308.15 115.04Q309.02 115.04 309.74 115.37Q310.18 115.57 310.55 115.9C311.23 116.48 311.65 117.22 311.81 118.12ZM118.39 115.43Q119.02 115.16 119.77 115.16C120.79 115.16 121.63 115.52 122.31 116.24C123.01 116.93 123.35 117.82 123.35 118.9C123.35 119.98 123.01 120.87 122.31 121.58C121.63 122.28 120.79 122.64 119.77 122.64C118.79 122.64 117.94 122.28 117.23 121.58C116.55 120.86 116.21 119.96 116.21 118.9C116.21 117.83 116.55 116.94 117.23 116.24Q117.75 115.7 118.39 115.43ZM130.64 116.24C131.34 115.52 132.18 115.16 133.18 115.16C134.2 115.16 135.04 115.52 135.72 116.24C136.42 116.93 136.76 117.82 136.76 118.9C136.76 119.98 136.42 120.87 135.72 121.58C135.04 122.28 134.2 122.64 133.18 122.64C132.2 122.64 131.35 122.28 130.64 121.58Q130.27 121.18 130.03 120.72Q129.62 119.91 129.62 118.9C129.62 117.83 129.96 116.94 130.64 116.24ZM155.56 116.24C156.26 115.52 157.14 115.16 158.2 115.16C158.22 115.16 158.44 115.17 158.84 115.2L158.84 122.6C158.44 122.62 158.22 122.64 158.2 122.64C157.14 122.64 156.26 122.28 155.56 121.58Q155.09 121.09 154.83 120.51Q154.5 119.78 154.5 118.9C154.5 117.83 154.85 116.94 155.56 116.24ZM160.52 115.2C160.86 115.17 161.08 115.16 161.16 115.16C162.21 115.16 163.08 115.52 163.78 116.24C164.48 116.94 164.84 117.83 164.84 118.9C164.84 119.95 164.48 120.84 163.78 121.58C163.07 122.28 162.2 122.64 161.16 122.64C161.08 122.64 160.86 122.62 160.52 122.6L160.52 115.2ZM176.48 121.58C175.77 122.28 174.89 122.64 173.84 122.64C172.8 122.64 171.93 122.28 171.22 121.58Q170.75 121.09 170.49 120.51Q170.16 119.78 170.16 118.9C170.16 117.83 170.51 116.94 171.22 116.24C171.91 115.52 172.79 115.16 173.84 115.16C174.89 115.16 175.77 115.52 176.48 116.24C177.19 116.94 177.54 117.83 177.54 118.9Q177.54 119.78 177.21 120.51Q176.94 121.09 176.48 121.58ZM212.84 116.24C213.53 115.52 214.38 115.16 215.38 115.16C216.39 115.16 217.24 115.52 217.92 116.24C218.61 116.93 218.96 117.82 218.96 118.9Q218.96 119.95 218.52 120.77Q218.28 121.2 217.92 121.58C217.24 122.28 216.39 122.64 215.38 122.64C214.39 122.64 213.55 122.28 212.84 121.58C212.16 120.86 211.82 119.96 211.82 118.9C211.82 117.83 212.16 116.94 212.84 116.24ZM256.59 115.43Q257.23 115.16 257.98 115.16C258.99 115.16 259.84 115.52 260.52 116.24C261.21 116.93 261.56 117.82 261.56 118.9Q261.56 119.95 261.12 120.77Q260.88 121.2 260.52 121.58C259.84 122.28 258.99 122.64 257.98 122.64C256.99 122.64 256.14 122.28 255.44 121.58C254.76 120.86 254.42 119.96 254.42 118.9C254.42 117.83 254.76 116.94 255.44 116.24Q255.96 115.7 256.59 115.43ZM183.26 115.32L186.94 115.32C187.35 115.32 187.68 115.44 187.94 115.7C188.2 115.95 188.34 116.27 188.34 116.66C188.34 117.04 188.2 117.36 187.94 117.62C187.68 117.87 187.35 118 186.94 118L183.26 118L183.26 115.32ZM290.35 119.08L293.81 119.08C294.26 119.08 294.64 119.24 294.95 119.58C295.26 119.9 295.43 120.3 295.43 120.78C295.43 121.26 295.26 121.66 294.95 122C294.64 122.32 294.26 122.48 293.81 122.48L290.35 122.48L290.35 119.08ZM183.26 122.48L183.26 119.42L187.36 119.42C187.77 119.42 188.12 119.56 188.4 119.86C188.68 120.15 188.82 120.52 188.82 120.96C188.82 121.38 188.68 121.74 188.4 122.04C188.12 122.33 187.77 122.48 187.36 122.48L183.26 122.48ZM100.51 145.29Q100.88 146.1 101.54 146.78C102.59 147.8 103.89 148.32 105.42 148.32C106.95 148.32 108.25 147.8 109.3 146.78C110.34 145.74 110.86 144.44 110.86 142.89Q110.86 141.52 110.31 140.41Q109.93 139.66 109.3 139.03C108.26 138 106.97 137.48 105.42 137.48C103.87 137.48 102.58 138 101.54 139.03Q100.94 139.64 100.57 140.37Q100 141.49 100 142.89Q100 144.21 100.51 145.29ZM113.16 152.6L114.84 152.6L114.84 146.62C115.81 147.75 117.07 148.32 118.62 148.32C120.07 148.32 121.29 147.8 122.28 146.78C123.26 145.72 123.76 144.43 123.76 142.89C123.76 141.35 123.26 140.06 122.28 139.03C121.3 138 120.08 137.48 118.62 137.48C117.07 137.48 115.81 138.04 114.84 139.17L114.84 137.7L113.16 137.7L113.16 152.6ZM126.01 145.29Q126.39 146.1 127.05 146.78C128.1 147.8 129.39 148.32 130.93 148.32C132.46 148.32 133.75 147.8 134.81 146.78C135.85 145.74 136.37 144.44 136.37 142.89C136.37 141.35 135.85 140.06 134.81 139.03C133.77 138 132.47 137.48 130.93 137.48C129.38 137.48 128.09 138 127.05 139.03Q126.44 139.64 126.08 140.37Q125.51 141.49 125.51 142.89Q125.51 144.21 126.01 145.29ZM88.12 151.1L88.12 148.1L97.28 148.1L97.28 151.1L98.96 151.1L98.96 146.48L97.06 146.48L97.06 137.7L88.9 137.7L88.9 143Q88.9 145.66 88 146.48L86.44 146.48L86.44 151.1L88.12 151.1ZM140.35 148.1L140.35 139.32L145.37 139.32L145.37 137.7L138.67 137.7L138.67 148.1L140.35 148.1ZM148.54 148.1L155.02 140.52L155.02 148.1L156.7 148.1L156.7 137.7L155.28 137.7L148.8 145.32L148.8 137.7L147.12 137.7L147.12 148.1L148.54 148.1ZM108.06 145.58C107.35 146.28 106.47 146.64 105.42 146.64C104.38 146.64 103.51 146.28 102.8 145.58Q102.33 145.09 102.07 144.51Q101.74 143.78 101.74 142.89C101.74 141.83 102.09 140.94 102.8 140.24C103.49 139.52 104.37 139.16 105.42 139.16Q106.32 139.16 107.06 139.51Q107.61 139.77 108.06 140.24C108.77 140.94 109.12 141.83 109.12 142.89Q109.12 143.78 108.79 144.51Q108.53 145.09 108.06 145.58ZM117.05 139.43Q117.69 139.16 118.44 139.16C119.45 139.16 120.3 139.52 120.98 140.24C121.67 140.93 122.02 141.82 122.02 142.89C122.02 143.98 121.67 144.87 120.98 145.58C120.3 146.28 119.45 146.64 118.44 146.64C117.45 146.64 116.6 146.28 115.9 145.58Q115.53 145.18 115.29 144.72Q114.88 143.91 114.88 142.89C114.88 141.83 115.22 140.94 115.9 140.24Q116.42 139.7 117.05 139.43ZM133.57 145.58C132.86 146.28 131.98 146.64 130.93 146.64C129.89 146.64 129.01 146.28 128.31 145.58C127.6 144.84 127.25 143.95 127.25 142.89C127.25 141.83 127.6 140.94 128.31 140.24Q128.74 139.79 129.26 139.53Q130 139.16 130.93 139.16Q131.83 139.16 132.57 139.51Q133.11 139.77 133.57 140.24C134.27 140.94 134.63 141.83 134.63 142.89Q134.63 143.78 134.3 144.51Q134.03 145.09 133.57 145.58ZM95.38 146.48L89.86 146.48Q90.58 145.17 90.58 143.03L90.58 139.32L95.38 139.32L95.38 146.48Z" fill="#FFFFFF" fill-opacity="0.740000" fill-rule="evenodd"/>
	<path id="star/strokeoval/raydown" d="M43.16 126.71L43.73 140L44.19 140L44.76 126.71L56.5 126.06L56.5 125.54L44.77 124.89L44.6 112.91C55.88 112.85 64.92 111.32 64.92 109.43C64.92 108.79 63.9 108.2 62.12 107.69C63.9 107.18 64.92 106.58 64.92 105.95C64.92 105.31 63.9 104.72 62.12 104.21C63.9 103.7 64.92 103.1 64.92 102.47C64.92 101.83 63.9 101.24 62.12 100.73C63.9 100.21 64.92 99.62 64.92 98.99C64.92 98.35 63.9 97.76 62.12 97.25C63.9 96.73 64.92 96.14 64.92 95.5C64.92 93.6 55.73 92.06 44.31 92.02L44.19 83L43.73 83L43.61 92.02C32.19 92.06 23 93.6 23 95.5C23 96.14 24.02 96.73 25.8 97.25C24.02 97.76 23 98.35 23 98.99C23 99.62 24.02 100.21 25.8 100.73C24.02 101.24 23 101.83 23 102.47C23 103.1 24.02 103.7 25.8 104.21C24.02 104.72 23 105.31 23 105.95C23 106.58 24.02 107.18 25.8 107.69C24.02 108.2 23 108.79 23 109.43C23 111.32 32.04 112.85 43.32 112.91L43.15 124.89L31.41 125.54L31.41 126.06L43.16 126.71ZM44.6 112.39L44.55 109.43C51.4 109.4 57.41 108.82 61.1 107.95C61.91 108.14 62.58 108.35 63.13 108.56C63.64 108.76 64 108.96 64.23 109.15C64.35 109.24 64.41 109.31 64.44 109.37C64.46 109.39 64.46 109.41 64.47 109.42C64.47 109.42 64.47 109.42 64.47 109.43L64.47 109.43L64.47 109.43C64.47 109.43 64.47 109.43 64.47 109.44C64.46 109.45 64.46 109.47 64.44 109.49C64.41 109.54 64.35 109.62 64.23 109.71C64 109.9 63.64 110.09 63.13 110.3C62.11 110.7 60.6 111.07 58.72 111.38C55.09 111.98 50.12 112.36 44.6 112.39ZM44.55 108.91L44.51 106.46C50.07 106.49 55.07 106.87 58.72 107.48C59.13 107.55 59.51 107.62 59.89 107.69C59.51 107.76 59.13 107.83 58.72 107.9C55.08 108.5 50.09 108.89 44.55 108.91ZM44.51 105.95L44.51 105.95C51.37 105.92 57.41 105.34 61.1 104.47C61.91 104.66 62.58 104.87 63.13 105.08C63.64 105.28 64 105.48 64.23 105.67C64.35 105.76 64.41 105.83 64.44 105.89C64.46 105.91 64.46 105.93 64.47 105.94C64.47 105.94 64.47 105.94 64.47 105.95L64.47 105.95L64.47 105.95C64.47 105.95 64.47 105.95 64.47 105.96C64.46 105.97 64.46 105.98 64.44 106.01C64.41 106.06 64.35 106.14 64.23 106.23C64 106.41 63.64 106.61 63.13 106.82C62.58 107.03 61.91 107.23 61.1 107.42C57.41 106.55 51.37 105.98 44.51 105.95ZM44.5 105.43L44.47 102.98C50.04 103.01 55.06 103.39 58.72 104C59.13 104.06 59.51 104.13 59.89 104.21C59.51 104.28 59.13 104.35 58.72 104.42C55.07 105.02 50.06 105.41 44.5 105.43ZM44.46 102.47L44.46 102.47C51.34 102.44 57.4 101.86 61.1 100.99C61.91 101.18 62.58 101.39 63.13 101.6C63.64 101.8 64 102 64.23 102.18C64.35 102.28 64.41 102.35 64.44 102.4C64.46 102.43 64.46 102.45 64.47 102.46C64.47 102.46 64.47 102.46 64.47 102.46L64.47 102.47L64.47 102.47C64.47 102.47 64.47 102.47 64.47 102.48C64.46 102.49 64.46 102.5 64.44 102.53C64.41 102.58 64.35 102.66 64.23 102.75C64 102.93 63.64 103.13 63.13 103.33C62.58 103.55 61.91 103.75 61.1 103.94C57.4 103.07 51.34 102.49 44.46 102.47ZM44.45 101.95L44.42 99.5C50.01 99.52 55.05 99.91 58.72 100.52C59.13 100.58 59.51 100.65 59.89 100.73C59.51 100.8 59.13 100.87 58.72 100.94C55.06 101.54 50.03 101.93 44.45 101.95ZM44.41 98.99L44.41 98.98C51.31 98.96 57.39 98.38 61.1 97.51C61.91 97.7 62.58 97.9 63.13 98.12C63.64 98.32 64 98.52 64.23 98.7C64.35 98.79 64.41 98.87 64.44 98.92C64.46 98.95 64.46 98.97 64.47 98.97C64.47 98.98 64.47 98.98 64.47 98.98L64.47 98.99L64.47 98.99C64.47 98.99 64.47 98.99 64.47 99C64.46 99.01 64.46 99.02 64.44 99.05C64.41 99.1 64.35 99.18 64.23 99.27C64 99.45 63.64 99.65 63.13 99.85C62.58 100.07 61.91 100.27 61.1 100.46C57.39 99.59 51.31 99.01 44.41 98.99ZM44.4 98.47L44.37 96.02C49.98 96.04 55.04 96.42 58.72 97.03C59.13 97.1 59.51 97.17 59.89 97.25C59.51 97.32 59.13 97.39 58.72 97.46C55.05 98.06 50 98.45 44.4 98.47ZM44.36 95.51L44.32 92.54C49.95 92.56 55.03 92.94 58.72 93.55C60.6 93.87 62.11 94.24 63.13 94.64C63.64 94.84 64 95.04 64.23 95.22C64.35 95.31 64.41 95.39 64.44 95.44C64.46 95.47 64.46 95.48 64.47 95.49C64.47 95.5 64.47 95.5 64.47 95.5L64.47 95.5L64.47 95.51C64.47 95.51 64.47 95.51 64.47 95.52C64.46 95.52 64.46 95.54 64.44 95.57C64.41 95.62 64.35 95.7 64.23 95.79C64 95.97 63.64 96.17 63.13 96.37C62.58 96.59 61.91 96.79 61.1 96.98C57.38 96.1 51.28 95.53 44.36 95.51ZM43.6 92.54L43.56 95.51C36.64 95.53 30.54 96.1 26.82 96.98C26.01 96.79 25.33 96.59 24.79 96.37C24.28 96.17 23.91 95.97 23.69 95.79C23.57 95.7 23.51 95.62 23.48 95.57C23.46 95.54 23.46 95.52 23.45 95.52C23.45 95.51 23.45 95.51 23.45 95.51L23.45 95.5L23.45 95.5C23.45 95.5 23.45 95.5 23.45 95.49C23.46 95.48 23.46 95.47 23.48 95.44C23.51 95.39 23.57 95.31 23.69 95.22C23.91 95.04 24.28 94.84 24.79 94.64C25.81 94.24 27.32 93.87 29.2 93.55C32.89 92.94 37.97 92.56 43.6 92.54ZM43.55 96.02L43.52 98.47C37.92 98.45 32.87 98.06 29.2 97.46C28.79 97.39 28.41 97.32 28.03 97.25C28.41 97.17 28.79 97.1 29.2 97.03C32.88 96.42 37.94 96.04 43.55 96.02ZM43.51 98.98L43.51 98.99C36.61 99.01 30.53 99.59 26.82 100.46C26.01 100.27 25.33 100.07 24.79 99.85C24.28 99.65 23.91 99.45 23.69 99.27C23.57 99.18 23.51 99.1 23.48 99.05C23.46 99.02 23.46 99.01 23.45 99C23.45 98.99 23.45 98.99 23.45 98.99L23.45 98.99L23.45 98.98C23.45 98.98 23.45 98.98 23.45 98.97C23.46 98.97 23.46 98.95 23.48 98.92C23.51 98.87 23.57 98.79 23.69 98.7C23.91 98.52 24.28 98.32 24.79 98.12C25.33 97.9 26.01 97.7 26.82 97.51C30.53 98.38 36.61 98.96 43.51 98.98ZM43.5 99.5L43.47 101.95C37.89 101.93 32.86 101.54 29.2 100.94C28.79 100.87 28.41 100.8 28.03 100.73C28.41 100.65 28.79 100.58 29.2 100.52C32.87 99.91 37.91 99.52 43.5 99.5ZM43.46 102.47L43.46 102.47C36.58 102.49 30.52 103.07 26.82 103.94C26.01 103.75 25.33 103.55 24.79 103.33C24.28 103.13 23.91 102.93 23.69 102.75C23.57 102.66 23.51 102.58 23.48 102.53C23.46 102.5 23.46 102.49 23.45 102.48C23.45 102.47 23.45 102.47 23.45 102.47L23.45 102.47L23.45 102.46C23.45 102.46 23.45 102.46 23.45 102.46C23.46 102.45 23.46 102.43 23.48 102.4C23.51 102.35 23.57 102.28 23.69 102.18C23.91 102 24.28 101.8 24.79 101.6C25.33 101.39 26.01 101.18 26.82 100.99C30.52 101.86 36.58 102.44 43.46 102.47ZM43.45 102.98L43.42 105.43C37.86 105.41 32.85 105.02 29.2 104.42C28.79 104.35 28.41 104.28 28.03 104.21C28.41 104.13 28.79 104.06 29.2 104C32.86 103.39 37.88 103.01 43.45 102.98ZM43.41 105.95L43.41 105.95C36.55 105.98 30.51 106.55 26.82 107.42C26.01 107.23 25.33 107.03 24.79 106.82C24.28 106.61 23.91 106.41 23.69 106.23C23.57 106.14 23.51 106.06 23.48 106.01C23.46 105.98 23.46 105.97 23.45 105.96C23.45 105.95 23.45 105.95 23.45 105.95L23.45 105.95L23.45 105.95C23.45 105.94 23.45 105.94 23.45 105.94C23.46 105.93 23.46 105.91 23.48 105.89C23.51 105.83 23.57 105.76 23.69 105.67C23.91 105.48 24.28 105.28 24.79 105.08C25.33 104.87 26.01 104.66 26.82 104.47C30.51 105.34 36.55 105.92 43.41 105.95ZM43.41 106.46L43.37 108.91C37.83 108.89 32.84 108.5 29.2 107.9C28.79 107.83 28.41 107.76 28.03 107.69C28.41 107.62 28.79 107.55 29.2 107.48C32.85 106.87 37.85 106.49 43.41 106.46ZM43.36 109.43L43.32 112.39C37.8 112.36 32.83 111.98 29.2 111.38C27.32 111.07 25.81 110.7 24.79 110.3C24.28 110.09 23.91 109.9 23.69 109.71C23.57 109.62 23.51 109.54 23.48 109.49C23.46 109.47 23.46 109.45 23.45 109.44C23.45 109.43 23.45 109.43 23.45 109.43L23.45 109.43L23.45 109.43C23.45 109.42 23.45 109.42 23.45 109.42C23.46 109.41 23.46 109.39 23.48 109.37C23.51 109.31 23.57 109.24 23.69 109.15C23.91 108.96 24.28 108.76 24.79 108.56C25.33 108.35 26.01 108.14 26.82 107.95C30.5 108.82 36.52 109.4 43.36 109.43ZM43.96 134.71L43.59 126.22L36.09 125.8L43.6 125.39L43.77 112.91C43.83 112.91 43.9 112.91 43.96 112.91C44.02 112.91 44.08 112.91 44.15 112.91L44.32 125.39L51.83 125.8L44.33 126.22L43.96 134.71ZM43.78 112.39L43.82 109.43C43.87 109.43 43.91 109.43 43.96 109.43C44.01 109.43 44.05 109.43 44.1 109.43L44.14 112.39C44.08 112.39 44.02 112.39 43.96 112.39C43.9 112.39 43.84 112.39 43.78 112.39ZM43.83 108.91L43.86 106.46C43.9 106.46 43.93 106.46 43.96 106.46C43.99 106.46 44.02 106.46 44.06 106.46L44.09 108.91C44.05 108.91 44 108.91 43.96 108.91C43.91 108.91 43.87 108.91 43.83 108.91ZM43.87 105.95L43.87 105.95C43.9 105.95 43.93 105.95 43.96 105.95L44.05 105.95L44.05 105.95C44.02 105.95 43.99 105.95 43.96 105.95L43.87 105.95ZM43.88 105.43L43.91 102.98L43.96 102.98L44.01 102.98L44.04 105.43C44.01 105.43 43.99 105.43 43.96 105.43L43.88 105.43ZM43.92 101.95L43.96 99.5L43.96 99.5L44 101.95L43.96 101.95L43.92 101.95Z" fill="#FFFFFF" fill-opacity="1.000000" fill-rule="evenodd"/>
</svg>
