<svg width="426.433594" height="301.000000" viewBox="0 0 426.434 301" fill="none" xmlns="http://www.w3.org/2000/svg" xmlns:xlink="http://www.w3.org/1999/xlink">
	<desc>
			Created with Pixso.
	</desc>
	<defs>
		<filter id="filter_88_263_dd" x="0.000000" y="0.000000" width="426.433594" height="301.000000" filterUnits="userSpaceOnUse" color-interpolation-filters="sRGB">
			<feFlood flood-opacity="0" result="BackgroundImageFix"/>
			<feGaussianBlur in="BackgroundImage" stdDeviation="20"/>
			<feComposite in2="SourceAlpha" operator="in" result="effect_backgroundBlur_1"/>
			<feBlend mode="normal" in="SourceGraphic" in2="effect_backgroundBlur_1" result="shape"/>
		</filter>
		<linearGradient x1="36.644012" y1="-0.000061" x2="262.301331" y2="300.999969" id="paint_linear_88_261_0" gradientUnits="userSpaceOnUse">
			<stop offset="0.122952" stop-color="#E74040"/>
			<stop offset="1.000000" stop-color="#240404"/>
		</linearGradient>
	</defs>
	<path id="Subtract" d="M33.1387 0L0 28.4744L0 301L330.814 301L426.434 217.373L426.434 0L33.1387 0Z" clip-rule="evenodd" fill="url(#paint_linear_88_261_0)" fill-opacity="0.500000" fill-rule="evenodd"/>
	<path id="Активная поддержка импортозамещения и снижению загрязненности воздуха" d="M85.34 100.1L87.24 100.1L88.6 96.96L95.82 96.96L97.18 100.1L99.08 100.1L92.94 86.1L91.48 86.1L85.34 100.1ZM92.22 88.68L95.08 95.28L89.34 95.28L92.22 88.68ZM165.87 91.18C164.9 90.04 163.63 89.48 162.07 89.48Q160.87 89.48 159.89 89.94Q159.07 90.33 158.41 91.04C157.44 92.05 156.95 93.34 156.95 94.9C156.95 96.46 157.44 97.75 158.41 98.78Q159.1 99.49 159.94 99.88Q160.91 100.32 162.07 100.32C163.63 100.32 164.9 99.75 165.87 98.62L165.87 100.1L167.55 100.1L167.55 89.7L165.87 89.7L165.87 91.18ZM199.02 94.9C199.02 96.43 199.53 97.72 200.56 98.78Q201.23 99.43 202.04 99.81Q203.12 100.32 204.44 100.32C205.97 100.32 207.27 99.8 208.32 98.78C209.36 97.74 209.88 96.44 209.88 94.9C209.88 93.35 209.36 92.06 208.32 91.04C207.28 90 205.99 89.48 204.44 89.48Q203.08 89.48 201.98 90.01Q201.21 90.39 200.56 91.04C199.53 92.06 199.02 93.35 199.02 94.9ZM239.41 95.48L248.35 95.48C248.38 95.13 248.39 94.94 248.39 94.9Q248.39 93.49 247.82 92.37Q247.46 91.64 246.85 91.04Q246.23 90.4 245.47 90.02Q244.39 89.48 243.03 89.48C241.51 89.48 240.24 90 239.21 91.04C238.19 92.06 237.67 93.35 237.67 94.9C237.67 96.44 238.2 97.74 239.25 98.78C240.32 99.8 241.64 100.32 243.21 100.32C244.21 100.32 245.13 100.09 245.95 99.64C246.79 99.18 247.45 98.56 247.93 97.76L246.29 97.24C245.56 98.24 244.53 98.74 243.21 98.74Q242.18 98.74 241.37 98.31Q240.99 98.11 240.65 97.82C239.95 97.19 239.53 96.41 239.41 95.48ZM250.54 104.6L252.22 104.6L252.22 98.62C253.19 99.75 254.45 100.32 256 100.32C257.45 100.32 258.67 99.8 259.66 98.78C260.64 97.72 261.14 96.43 261.14 94.9C261.14 93.35 260.64 92.06 259.66 91.04C258.68 90 257.46 89.48 256 89.48C254.45 89.48 253.19 90.04 252.22 91.18L252.22 89.7L250.54 89.7L250.54 104.6ZM296.44 91.18C295.46 90.04 294.2 89.48 292.64 89.48Q291.43 89.48 290.45 89.94Q289.64 90.33 288.98 91.04Q288.51 91.51 288.2 92.08Q287.52 93.29 287.52 94.9Q287.52 96.48 288.18 97.69Q288.5 98.28 288.98 98.78Q289.67 99.49 290.51 99.88Q291.47 100.32 292.64 100.32C294.2 100.32 295.46 99.75 296.44 98.62L296.44 100.1L298.12 100.1L298.12 89.7L296.44 89.7L296.44 91.18ZM102.51 100.1L102.51 89.7L100.83 89.7L100.83 100.1L102.51 100.1ZM107.47 100.1L109.57 100.1L104.87 94.72L109.13 89.7L107.07 89.7L102.79 94.72L107.47 100.1ZM114.16 91.32L114.16 100.1L115.84 100.1L115.84 91.32L119.74 91.32L119.74 89.7L110.26 89.7L110.26 91.32L114.16 91.32ZM122.91 100.1L129.39 92.52L129.39 100.1L131.07 100.1L131.07 89.7L129.65 89.7L123.17 97.32L123.17 89.7L121.49 89.7L121.49 100.1L122.91 100.1ZM139.3 89.7L133.94 89.7L133.94 100.1L139.72 100.1C140.64 100.1 141.4 99.81 142.02 99.24C142.63 98.66 142.94 97.94 142.94 97.06C142.94 96.54 142.79 96.06 142.5 95.62C142.22 95.16 141.84 94.82 141.36 94.58C142.08 94.02 142.44 93.24 142.44 92.26C142.44 92.23 142.41 92.09 142.36 91.84C142.21 91.2 141.85 90.68 141.28 90.3C140.72 89.9 140.06 89.7 139.3 89.7ZM146.77 100.1L146.77 95.62L152.97 95.62L152.97 100.1L154.65 100.1L154.65 89.7L152.97 89.7L152.97 94L146.77 94L146.77 89.7L145.09 89.7L145.09 100.1L146.77 100.1ZM171.92 100.1L174.56 96.32L177.3 96.32L177.3 100.1L178.98 100.1L178.98 89.7L173.32 89.7C172.39 89.7 171.59 90.01 170.94 90.64C170.31 91.26 170 92.05 170 93C170 93.81 170.24 94.52 170.72 95.12C171.21 95.72 171.85 96.1 172.62 96.26L169.94 100.1L171.92 100.1ZM188.99 100.1L188.99 91.32L195.01 91.32L195.01 100.1L196.69 100.1L196.69 89.7L187.31 89.7L187.31 100.1L188.99 100.1ZM212.39 103.1L212.39 100.1L221.55 100.1L221.55 103.1L223.23 103.1L223.23 98.48L221.33 98.48L221.33 89.7L213.17 89.7L213.17 95C213.17 96.77 212.87 97.93 212.27 98.48L210.71 98.48L210.71 103.1L212.39 103.1ZM225.79 103.1L225.79 100.1L234.95 100.1L234.95 103.1L236.63 103.1L236.63 98.48L234.73 98.48L234.73 89.7L226.57 89.7L226.57 95C226.57 96.77 226.27 97.93 225.67 98.48L224.11 98.48L224.11 103.1L225.79 103.1ZM261.96 100.1L263.98 100.1L268.24 94.72L264.36 89.7L262.36 89.7L266.22 94.72L261.96 100.1ZM269.98 100.1L269.98 89.7L268.3 89.7L268.3 100.1L269.98 100.1ZM274.3 100.1L276.32 100.1L272.06 94.72L275.92 89.7L273.92 89.7L270.06 94.72L274.3 100.1ZM279.76 100.1L279.76 89.7L278.07 89.7L278.07 100.1L279.76 100.1ZM284.72 100.1L286.82 100.1L282.12 94.72L286.38 89.7L284.32 89.7L280.04 94.72L284.72 100.1ZM246.65 94.12L239.43 94.12C239.59 93.21 240 92.47 240.65 91.9Q241.06 91.54 241.53 91.33Q242.2 91.04 242.99 91.04Q243.86 91.04 244.58 91.37Q245.01 91.57 245.39 91.9C246.07 92.48 246.49 93.22 246.65 94.12ZM159.71 92.24C160.4 91.52 161.25 91.16 162.25 91.16C163.26 91.16 164.11 91.52 164.79 92.24C165.48 92.93 165.83 93.82 165.83 94.9C165.83 95.98 165.48 96.87 164.79 97.58C164.11 98.28 163.26 98.64 162.25 98.64C161.26 98.64 160.42 98.28 159.71 97.58C159.03 96.86 158.69 95.96 158.69 94.9C158.69 93.83 159.03 92.94 159.71 92.24ZM207.08 97.58C206.37 98.28 205.49 98.64 204.44 98.64C203.4 98.64 202.53 98.28 201.82 97.58Q201.35 97.09 201.09 96.51Q200.76 95.78 200.76 94.9Q200.76 93.92 201.16 93.14Q201.41 92.65 201.82 92.24C202.51 91.52 203.39 91.16 204.44 91.16C205.49 91.16 206.37 91.52 207.08 92.24Q207.49 92.65 207.74 93.14Q208.14 93.92 208.14 94.9Q208.14 95.78 207.81 96.51Q207.55 97.09 207.08 97.58ZM254.43 91.43Q255.07 91.16 255.82 91.16C256.83 91.16 257.68 91.52 258.36 92.24Q258.71 92.59 258.94 93Q259.4 93.82 259.4 94.9Q259.4 95.95 258.96 96.77Q258.72 97.2 258.36 97.58C257.68 98.28 256.83 98.64 255.82 98.64Q255.11 98.64 254.5 98.39Q253.83 98.13 253.28 97.58C252.6 96.86 252.26 95.96 252.26 94.9C252.26 93.83 252.6 92.94 253.28 92.24Q253.8 91.7 254.43 91.43ZM291.43 91.43Q292.07 91.16 292.82 91.16C293.83 91.16 294.68 91.52 295.36 92.24Q295.71 92.59 295.94 93Q296.4 93.82 296.4 94.9Q296.4 95.95 295.96 96.77Q295.72 97.2 295.36 97.58C294.68 98.28 293.83 98.64 292.82 98.64Q292.11 98.64 291.5 98.39Q290.83 98.13 290.28 97.58C289.6 96.86 289.26 95.96 289.26 94.9C289.26 93.83 289.6 92.94 290.28 92.24Q290.79 91.7 291.43 91.43ZM135.62 91.32L139.3 91.32C139.71 91.32 140.04 91.44 140.3 91.7C140.56 91.95 140.7 92.27 140.7 92.66C140.7 93.04 140.56 93.36 140.3 93.62C140.04 93.87 139.71 94 139.3 94L135.62 94L135.62 91.32ZM177.3 94.7L173.32 94.7C172.87 94.7 172.49 94.54 172.18 94.22Q172.03 94.04 171.93 93.84Q171.74 93.47 171.74 93Q171.74 92.5 171.95 92.12Q172.04 91.94 172.18 91.8C172.49 91.48 172.87 91.32 173.32 91.32L177.3 91.32L177.3 94.7ZM219.65 98.48L214.13 98.48C214.61 97.61 214.85 96.46 214.85 95.04L214.85 91.32L219.65 91.32L219.65 98.48ZM233.05 98.48L227.53 98.48C228.01 97.61 228.25 96.46 228.25 95.04L228.25 91.32L233.05 91.32L233.05 98.48ZM135.62 98.48L135.62 95.42L139.72 95.42C140.13 95.42 140.48 95.56 140.75 95.86C141.03 96.15 141.17 96.52 141.17 96.96Q141.17 97.33 141.03 97.64Q140.93 97.86 140.75 98.04C140.48 98.33 140.13 98.48 139.72 98.48L135.62 98.48ZM125.23 121.29Q125.61 122.1 126.26 122.78C127.32 123.8 128.61 124.32 130.14 124.32C131.68 124.32 132.97 123.8 134.02 122.78C135.06 121.74 135.58 120.44 135.58 118.9C135.58 117.35 135.06 116.06 134.02 115.04C132.98 114 131.69 113.48 130.14 113.48Q128.78 113.48 127.69 114.01Q126.91 114.39 126.26 115.04Q125.66 115.64 125.29 116.37Q124.72 117.49 124.72 118.9Q124.72 120.21 125.23 121.29ZM137.88 128.6L139.56 128.6L139.56 122.62C140.53 123.75 141.79 124.32 143.34 124.32C144.79 124.32 146.01 123.8 147 122.78C147.99 121.72 148.48 120.43 148.48 118.9C148.48 117.35 147.99 116.06 147 115.04C146.03 114 144.81 113.48 143.34 113.48C141.79 113.48 140.53 114.04 139.56 115.18L139.56 113.7L137.88 113.7L137.88 128.6ZM159.64 118.9C159.64 120.43 160.16 121.72 161.19 122.78C162.24 123.8 163.53 124.32 165.07 124.32C166.6 124.32 167.89 123.8 168.95 122.78C169.99 121.74 170.51 120.44 170.51 118.9C170.51 117.35 169.99 116.06 168.95 115.04C167.91 114 166.61 113.48 165.07 113.48Q163.71 113.48 162.61 114.01Q161.83 114.39 161.19 115.04C160.16 116.06 159.64 117.35 159.64 118.9ZM173.65 121L171.95 121.46C172.27 122.36 172.83 123.07 173.63 123.58C174.43 124.07 175.39 124.32 176.51 124.32Q178.47 124.32 179.75 123.4C180.6 122.78 181.03 122.02 181.03 121.1C181.03 120.03 180.53 119.23 179.53 118.7C180.39 118.15 180.83 117.42 180.83 116.52C180.83 115.65 180.42 114.93 179.61 114.36C178.79 113.77 177.79 113.48 176.59 113.48C175.48 113.48 174.52 113.73 173.71 114.24C172.89 114.74 172.33 115.44 172.01 116.34L173.71 116.8C174.17 115.65 175.11 115.08 176.51 115.08Q177.61 115.08 178.35 115.56Q178.9 115.91 179.04 116.39Q179.09 116.55 179.09 116.74C179.09 117.1 178.94 117.4 178.65 117.66C178.35 117.9 177.98 118.02 177.53 118.02L175.09 118.02L175.09 119.44L177.65 119.44C178.11 119.44 178.5 119.58 178.81 119.86C179.13 120.12 179.29 120.46 179.29 120.88C179.29 121.4 179.02 121.84 178.49 122.2C177.95 122.54 177.28 122.72 176.47 122.72C175.05 122.72 174.11 122.14 173.65 121ZM191.73 115.18C190.76 114.04 189.49 113.48 187.93 113.48Q186.73 113.48 185.75 113.94Q184.93 114.33 184.27 115.04C183.3 116.05 182.81 117.34 182.81 118.9C182.81 120.46 183.3 121.75 184.27 122.78C185.26 123.8 186.48 124.32 187.93 124.32C189.49 124.32 190.76 123.75 191.73 122.62L191.73 124.1L193.41 124.1L193.41 113.7L191.73 113.7L191.73 115.18ZM211.6 119.48L220.54 119.48C220.57 119.13 220.58 118.94 220.58 118.9Q220.58 117.49 220.01 116.37Q219.64 115.64 219.04 115.04Q218.42 114.4 217.66 114.02Q216.58 113.48 215.22 113.48C213.7 113.48 212.43 114 211.4 115.04C210.37 116.06 209.86 117.35 209.86 118.9C209.86 120.44 210.39 121.74 211.44 122.78C212.51 123.8 213.83 124.32 215.4 124.32C216.4 124.32 217.31 124.09 218.14 123.64C218.98 123.18 219.64 122.56 220.12 121.76L218.48 121.24C217.75 122.24 216.72 122.74 215.4 122.74C214.39 122.74 213.53 122.43 212.84 121.82C212.13 121.19 211.72 120.41 211.6 119.48ZM242.01 119.48L250.95 119.48C250.98 119.13 250.99 118.94 250.99 118.9Q250.99 117.49 250.42 116.37Q250.05 115.64 249.45 115.04Q248.83 114.4 248.07 114.02Q246.99 113.48 245.63 113.48C244.11 113.48 242.84 114 241.81 115.04C240.78 116.06 240.27 117.35 240.27 118.9C240.27 120.44 240.8 121.74 241.85 122.78C242.92 123.8 244.24 124.32 245.81 124.32C246.81 124.32 247.72 124.09 248.55 123.64C249.39 123.18 250.05 122.56 250.53 121.76L248.89 121.24C248.16 122.24 247.13 122.74 245.81 122.74C244.8 122.74 243.94 122.43 243.25 121.82C242.54 121.19 242.13 120.41 242.01 119.48ZM87.84 124.1L94.32 116.52L94.32 124.1L96 124.1L96 113.7L94.58 113.7L88.1 121.32L88.1 113.7L86.42 113.7L86.42 124.1L87.84 124.1ZM100.54 124.1L100.54 116.86L104 122.9L105.04 122.9L108.48 116.9L108.48 124.1L110.16 124.1L110.16 113.7L108.48 113.7L104.52 120.62L100.54 113.7L98.86 113.7L98.86 124.1L100.54 124.1ZM114.7 124.1L114.7 115.32L120.72 115.32L120.72 124.1L122.4 124.1L122.4 113.7L113.02 113.7L113.02 124.1L114.7 124.1ZM153.34 115.32L153.34 124.1L155.02 124.1L155.02 115.32L158.92 115.32L158.92 113.7L149.44 113.7L149.44 115.32L153.34 115.32ZM197.92 124.1L197.92 116.86L201.38 122.9L202.42 122.9L205.86 116.9L205.86 124.1L207.54 124.1L207.54 113.7L205.86 113.7L201.9 120.62L197.92 113.7L196.24 113.7L196.24 124.1L197.92 124.1ZM224.4 113.7L222.72 113.7L222.72 124.1L237.54 124.1L237.54 127.1L239.22 127.1L239.22 122.48L237.3 122.48L237.3 113.7L235.62 113.7L235.62 122.48L230.86 122.48L230.86 113.7L229.18 113.7L229.18 122.48L224.4 122.48L224.4 113.7ZM254.81 124.1L254.81 119.62L261.01 119.62L261.01 124.1L262.69 124.1L262.69 113.7L261.01 113.7L261.01 118L254.81 118L254.81 113.7L253.13 113.7L253.13 124.1L254.81 124.1ZM266.96 124.1L273.44 116.52L273.44 124.1L275.12 124.1L275.12 113.7L273.7 113.7L267.22 121.32L267.22 113.7L265.54 113.7L265.54 124.1L266.96 124.1ZM279.52 124.1L282.16 120.32L284.9 120.32L284.9 124.1L286.58 124.1L286.58 113.7L280.92 113.7Q280.14 113.7 279.49 113.98Q278.97 114.22 278.54 114.64C277.91 115.26 277.6 116.05 277.6 117C277.6 117.81 277.84 118.52 278.32 119.12C278.81 119.72 279.44 120.1 280.22 120.26L277.54 124.1L279.52 124.1ZM296.33 124.1L302.81 116.52L302.81 124.1L304.49 124.1L304.49 113.7L303.07 113.7L296.59 121.32L296.59 113.7L294.91 113.7L294.91 124.1L296.33 124.1ZM218.84 118.12L211.62 118.12C211.78 117.21 212.19 116.47 212.84 115.9Q213.25 115.54 213.72 115.33Q214.38 115.04 215.18 115.04Q216.05 115.04 216.77 115.37Q217.2 115.57 217.58 115.9C218.26 116.48 218.68 117.22 218.84 118.12ZM249.25 118.12L242.03 118.12C242.19 117.21 242.6 116.47 243.25 115.9Q243.66 115.54 244.13 115.33Q244.79 115.04 245.59 115.04Q246.46 115.04 247.18 115.37Q247.61 115.57 247.99 115.9C248.67 116.48 249.09 117.22 249.25 118.12ZM132.78 121.58C132.08 122.28 131.2 122.64 130.14 122.64C129.1 122.64 128.23 122.28 127.52 121.58C126.82 120.84 126.46 119.95 126.46 118.9C126.46 117.83 126.82 116.94 127.52 116.24Q127.95 115.79 128.48 115.53Q129.22 115.16 130.14 115.16Q131.05 115.16 131.78 115.51Q132.33 115.77 132.78 116.24C133.49 116.94 133.84 117.83 133.84 118.9Q133.84 119.78 133.51 120.51Q133.25 121.09 132.78 121.58ZM140.62 116.24C141.31 115.52 142.16 115.16 143.16 115.16C144.17 115.16 145.02 115.52 145.7 116.24C146.39 116.93 146.74 117.82 146.74 118.9C146.74 119.98 146.39 120.87 145.7 121.58C145.02 122.28 144.17 122.64 143.16 122.64C142.17 122.64 141.33 122.28 140.62 121.58Q140.25 121.18 140.01 120.72Q139.6 119.91 139.6 118.9C139.6 117.83 139.94 116.94 140.62 116.24ZM167.71 121.58C167 122.28 166.12 122.64 165.07 122.64C164.03 122.64 163.15 122.28 162.45 121.58Q161.98 121.09 161.72 120.51Q161.39 119.78 161.39 118.9C161.39 117.83 161.74 116.94 162.45 116.24C163.14 115.52 164.01 115.16 165.07 115.16C166.12 115.16 167 115.52 167.71 116.24C168.41 116.94 168.77 117.83 168.77 118.9Q168.77 119.78 168.43 120.51Q168.17 121.09 167.71 121.58ZM185.57 116.24C186.26 115.52 187.11 115.16 188.11 115.16C189.12 115.16 189.97 115.52 190.65 116.24C191.34 116.93 191.69 117.82 191.69 118.9C191.69 119.98 191.34 120.87 190.65 121.58C189.97 122.28 189.12 122.64 188.11 122.64C187.12 122.64 186.28 122.28 185.57 121.58C184.89 120.86 184.55 119.96 184.55 118.9C184.55 117.83 184.89 116.94 185.57 116.24ZM284.9 118.7L280.92 118.7C280.46 118.7 280.08 118.54 279.78 118.22Q279.63 118.04 279.53 117.84Q279.34 117.47 279.34 117C279.34 116.52 279.48 116.12 279.78 115.8C280.08 115.48 280.46 115.32 280.92 115.32L284.9 115.32L284.9 118.7ZM94.58 141.12L96.26 140.62Q95.92 139.85 95.39 139.26Q94.91 138.72 94.28 138.32C93.4 137.75 92.4 137.48 91.3 137.48C89.75 137.48 88.46 138 87.42 139.03Q86.81 139.64 86.44 140.37Q85.88 141.49 85.88 142.89Q85.88 144.21 86.38 145.29Q86.76 146.1 87.42 146.78C88.47 147.8 89.76 148.32 91.3 148.32C92.4 148.32 93.4 148.03 94.28 147.48Q94.91 147.07 95.39 146.53Q95.92 145.94 96.26 145.17L94.58 144.67C94.27 145.28 93.82 145.75 93.24 146.12C92.66 146.46 92.02 146.64 91.3 146.64C90.26 146.64 89.38 146.28 88.68 145.58Q88.21 145.09 87.95 144.51Q87.62 143.78 87.62 142.89C87.62 141.83 87.97 140.94 88.68 140.24Q89.11 139.79 89.63 139.53Q90.37 139.16 91.3 139.16Q92.05 139.16 92.7 139.42Q92.98 139.53 93.24 139.7C93.82 140.04 94.27 140.52 94.58 141.12ZM138.94 143.48L147.88 143.48C147.91 143.13 147.92 142.94 147.92 142.89C147.92 141.35 147.41 140.06 146.38 139.03C145.37 138 144.1 137.48 142.56 137.48C141.04 137.48 139.77 138 138.74 139.03Q138.14 139.64 137.77 140.37Q137.2 141.49 137.2 142.89C137.2 144.44 137.73 145.74 138.78 146.78C139.85 147.8 141.17 148.32 142.74 148.32C143.74 148.32 144.66 148.09 145.48 147.64C146.32 147.18 146.98 146.56 147.46 145.75L145.82 145.24C145.09 146.24 144.06 146.74 142.74 146.74C141.73 146.74 140.88 146.43 140.18 145.82C139.48 145.19 139.06 144.41 138.94 143.48ZM174.91 137.7L174.91 148.1L176.59 148.1L176.59 143.62L178.93 143.62Q179.07 144.75 179.58 145.67Q180 146.4 180.65 147C181.64 147.88 182.83 148.32 184.23 148.32C185.74 148.32 187 147.8 188.03 146.78C189.04 145.75 189.55 144.46 189.55 142.89C189.55 141.34 189.04 140.05 188.03 139.03C187 138 185.74 137.48 184.23 137.48C182.86 137.48 181.68 137.9 180.71 138.75C179.74 139.6 179.15 140.67 178.95 142L176.59 142L176.59 137.7L174.91 137.7ZM100.07 148.1L100.07 143.62L106.27 143.62L106.27 148.1L107.95 148.1L107.95 137.7L106.27 137.7L106.27 142L100.07 142L100.07 137.7L98.39 137.7L98.39 148.1L100.07 148.1ZM112.21 148.1L118.69 140.52L118.69 148.1L120.37 148.1L120.37 137.7L118.95 137.7L112.47 145.32L112.47 137.7L110.79 137.7L110.79 148.1L112.21 148.1ZM122.15 148.1L124.17 148.1L128.43 142.72L124.55 137.7L122.55 137.7L126.41 142.72L122.15 148.1ZM130.17 148.1L130.17 137.7L128.49 137.7L128.49 148.1L130.17 148.1ZM134.49 148.1L136.51 148.1L132.25 142.72L136.11 137.7L134.11 137.7L130.25 142.72L134.49 148.1ZM151.75 148.1L151.75 143.62L157.95 143.62L157.95 148.1L159.63 148.1L159.63 137.7L157.95 137.7L157.95 142L151.75 142L151.75 137.7L150.07 137.7L150.07 148.1L151.75 148.1ZM163.89 148.1L170.37 140.52L170.37 148.1L172.05 148.1L172.05 137.7L170.63 137.7L164.15 145.32L164.15 137.7L162.47 137.7L162.47 148.1L163.89 148.1ZM146.18 142.12L138.96 142.12C139.12 141.21 139.53 140.47 140.18 139.89C140.84 139.32 141.62 139.03 142.52 139.03Q143.39 139.03 144.11 139.37Q144.55 139.57 144.92 139.89C145.6 140.48 146.02 141.22 146.18 142.12ZM184.23 139.16C185.26 139.16 186.11 139.52 186.79 140.24C187.47 140.94 187.81 141.83 187.81 142.89C187.81 143.96 187.47 144.86 186.79 145.58C186.11 146.28 185.26 146.64 184.23 146.64C183.2 146.64 182.35 146.28 181.67 145.58C180.99 144.86 180.65 143.96 180.65 142.89C180.65 141.83 180.99 140.94 181.67 140.24Q182.12 139.76 182.68 139.49Q183.37 139.16 184.23 139.16ZM87.52 169L85.82 169.46C86.14 170.36 86.7 171.07 87.5 171.58Q88.7 172.32 90.38 172.32C91.68 172.32 92.76 172.01 93.62 171.4C94.47 170.78 94.9 170.02 94.9 169.1C94.9 168.03 94.4 167.23 93.4 166.7C94.26 166.15 94.7 165.42 94.7 164.52C94.7 163.65 94.29 162.93 93.48 162.36Q93.4 162.3 93.33 162.25Q92.15 161.48 90.46 161.48Q88.88 161.48 87.71 162.16Q87.64 162.2 87.58 162.24C86.76 162.74 86.2 163.44 85.88 164.34L87.58 164.8C88.04 163.65 88.98 163.08 90.38 163.08C91.11 163.08 91.72 163.24 92.22 163.56Q92.76 163.91 92.91 164.39Q92.96 164.55 92.96 164.74C92.96 165.1 92.81 165.4 92.52 165.66C92.22 165.9 91.85 166.02 91.4 166.02L88.96 166.02L88.96 167.44L91.52 167.44C91.98 167.44 92.37 167.58 92.68 167.86C93 168.12 93.16 168.46 93.16 168.88C93.16 169.4 92.89 169.84 92.36 170.2C91.82 170.54 91.15 170.72 90.34 170.72Q89.05 170.72 88.29 170.09Q87.79 169.67 87.52 169ZM105.6 163.17C104.62 162.04 103.36 161.48 101.8 161.48C100.33 161.48 99.11 162 98.14 163.03Q97.67 163.52 97.36 164.08Q96.68 165.29 96.68 166.9C96.68 168.46 97.16 169.75 98.14 170.78C99.12 171.8 100.34 172.32 101.8 172.32C103.36 172.32 104.62 171.75 105.6 170.62L105.6 172.1L107.28 172.1L107.28 161.7L105.6 161.7L105.6 163.17ZM118.56 176.6L120.24 176.6L120.24 170.62C121.22 171.75 122.48 172.32 124.02 172.32C125.48 172.32 126.7 171.8 127.68 170.78C128.67 169.72 129.16 168.43 129.16 166.9C129.16 165.35 128.67 164.06 127.68 163.03C126.71 162 125.49 161.48 124.02 161.48C122.48 161.48 121.22 162.04 120.24 163.17L120.24 161.7L118.56 161.7L118.56 176.6ZM143.88 169L142.18 169.46C142.5 170.36 143.06 171.07 143.86 171.58C144.66 172.07 145.62 172.32 146.74 172.32C148.05 172.32 149.13 172.01 149.98 171.4C150.84 170.78 151.26 170.02 151.26 169.1C151.26 168.03 150.76 167.23 149.76 166.7C150.63 166.15 151.06 165.42 151.06 164.52C151.06 163.65 150.66 162.93 149.84 162.36C149.03 161.77 148.02 161.48 146.82 161.48Q145.25 161.48 144.07 162.16Q144.01 162.2 143.94 162.24C143.13 162.74 142.56 163.44 142.24 164.34L143.94 164.8C144.41 163.65 145.34 163.08 146.74 163.08C147.48 163.08 148.09 163.24 148.58 163.56Q149.13 163.91 149.27 164.39Q149.32 164.55 149.32 164.74C149.32 165.1 149.18 165.4 148.88 165.66C148.59 165.9 148.22 166.02 147.76 166.02L145.32 166.02L145.32 167.44L147.88 167.44C148.35 167.44 148.74 167.58 149.04 167.86C149.36 168.12 149.52 168.46 149.52 168.88C149.52 169.4 149.26 169.84 148.72 170.2C148.19 170.54 147.52 170.72 146.7 170.72Q145.42 170.72 144.66 170.09Q144.16 169.67 143.88 169ZM167.19 167.48L176.13 167.48C176.15 167.13 176.17 166.94 176.17 166.9C176.17 165.35 175.65 164.06 174.63 163.03C173.61 162 172.34 161.48 170.81 161.48C169.29 161.48 168.01 162 166.99 163.03C165.96 164.06 165.45 165.35 165.45 166.9C165.45 168.44 165.97 169.74 167.03 170.78C168.09 171.8 169.41 172.32 170.99 172.32C171.99 172.32 172.9 172.09 173.73 171.64C174.57 171.18 175.23 170.56 175.71 169.76L174.07 169.24C173.33 170.24 172.31 170.74 170.99 170.74C169.97 170.74 169.12 170.43 168.43 169.82C167.72 169.19 167.31 168.41 167.19 167.48ZM202.57 166.9C202.57 168.43 203.09 169.72 204.11 170.78C205.17 171.8 206.46 172.32 207.99 172.32C209.53 172.32 210.82 171.8 211.87 170.78C212.91 169.74 213.43 168.44 213.43 166.9C213.43 165.35 212.91 164.06 211.87 163.03C210.83 162 209.54 161.48 207.99 161.48C206.45 161.48 205.15 162 204.11 163.03C203.09 164.06 202.57 165.35 202.57 166.9ZM223.89 165.12L225.57 164.62C225.15 163.64 224.49 162.88 223.59 162.32C222.71 161.75 221.72 161.48 220.61 161.48C219.07 161.48 217.77 162 216.73 163.03C215.71 164.06 215.19 165.35 215.19 166.9C215.19 168.43 215.71 169.72 216.73 170.78C217.79 171.8 219.08 172.32 220.61 172.32C221.72 172.32 222.71 172.04 223.59 171.48C224.49 170.92 225.15 170.15 225.57 169.18L223.89 168.68C223.59 169.28 223.14 169.76 222.55 170.12C221.98 170.46 221.33 170.64 220.61 170.64C219.57 170.64 218.7 170.28 217.99 169.58Q217.53 169.09 217.26 168.51Q216.93 167.78 216.93 166.9C216.93 165.83 217.29 164.94 217.99 164.24Q218.42 163.79 218.95 163.53Q219.69 163.16 220.61 163.16Q221.37 163.16 222.01 163.42Q222.29 163.53 222.55 163.7C223.14 164.04 223.59 164.52 223.89 165.12ZM266.4 166.9C266.4 168.43 266.92 169.72 267.94 170.78C269 171.8 270.29 172.32 271.82 172.32C273.36 172.32 274.65 171.8 275.7 170.78C276.74 169.74 277.26 168.44 277.26 166.9Q277.26 165.52 276.71 164.41Q276.33 163.66 275.7 163.03C274.66 162 273.37 161.48 271.82 161.48C270.28 161.48 268.98 162 267.94 163.03C266.92 164.06 266.4 165.35 266.4 166.9ZM280.41 169L278.71 169.46C279.03 170.36 279.59 171.07 280.39 171.58C281.19 172.07 282.15 172.32 283.27 172.32C284.57 172.32 285.65 172.01 286.51 171.4C287.36 170.78 287.79 170.02 287.79 169.1C287.79 168.03 287.29 167.23 286.29 166.7C287.15 166.15 287.59 165.42 287.59 164.52C287.59 163.65 287.18 162.93 286.37 162.36C285.55 161.77 284.55 161.48 283.35 161.48C282.24 161.48 281.28 161.73 280.47 162.24C279.65 162.74 279.09 163.44 278.77 164.34L280.47 164.8C280.93 163.65 281.87 163.08 283.27 163.08C284 163.08 284.61 163.24 285.11 163.56C285.6 163.88 285.85 164.27 285.85 164.74C285.85 165.1 285.7 165.4 285.41 165.66C285.11 165.9 284.74 166.02 284.29 166.02L281.85 166.02L281.85 167.44L284.41 167.44C284.87 167.44 285.26 167.58 285.57 167.86C285.89 168.12 286.05 168.46 286.05 168.88C286.05 169.4 285.78 169.84 285.25 170.2C284.71 170.54 284.04 170.72 283.23 170.72C281.81 170.72 280.87 170.14 280.41 169ZM332.22 163.17C331.24 162.04 329.98 161.48 328.42 161.48C326.95 161.48 325.73 162 324.76 163.03Q324.3 163.52 323.98 164.08Q323.3 165.29 323.3 166.9C323.3 168.46 323.78 169.75 324.76 170.78C325.74 171.8 326.96 172.32 328.42 172.32C329.98 172.32 331.24 171.75 332.22 170.62L332.22 172.1L333.9 172.1L333.9 161.7L332.22 161.7L332.22 163.17ZM111.79 172.1L111.79 163.32L116.81 163.32L116.81 161.7L110.11 161.7L110.11 172.1L111.79 172.1ZM132.88 172.1L135.52 168.32L138.26 168.32L138.26 172.1L139.94 172.1L139.94 161.7L134.28 161.7C133.34 161.7 132.55 162.01 131.9 162.64C131.27 163.26 130.96 164.05 130.96 165C130.96 165.81 131.2 166.52 131.68 167.12C132.17 167.72 132.8 168.1 133.58 168.26L130.9 172.1L132.88 172.1ZM155.26 172.1L155.26 167.62L161.46 167.62L161.46 172.1L163.14 172.1L163.14 161.7L161.46 161.7L161.46 166L155.26 166L155.26 161.7L153.58 161.7L153.58 172.1L155.26 172.1ZM179.99 172.1L179.99 167.62L186.19 167.62L186.19 172.1L187.87 172.1L187.87 161.7L186.19 161.7L186.19 166L179.99 166L179.99 161.7L178.31 161.7L178.31 172.1L179.99 172.1ZM192.39 172.1L192.39 167.62L198.59 167.62L198.59 172.1L200.27 172.1L200.27 161.7L198.59 161.7L198.59 166L192.39 166L192.39 161.7L190.71 161.7L190.71 172.1L192.39 172.1ZM230.52 163.32L230.52 172.1L232.2 172.1L232.2 163.32L236.1 163.32L236.1 161.7L226.62 161.7L226.62 163.32L230.52 163.32ZM239.28 172.1L245.76 164.52L245.76 172.1L247.44 172.1L247.44 161.7L246.02 161.7L239.54 169.32L239.54 161.7L237.86 161.7L237.86 172.1L239.28 172.1ZM261.15 161.7L255.79 161.7L255.79 172.1L261.57 172.1C262.49 172.1 263.26 171.81 263.87 171.24C264.48 170.66 264.79 169.94 264.79 169.06C264.79 168.54 264.64 168.06 264.35 167.62C264.07 167.16 263.69 166.82 263.21 166.58C263.93 166.02 264.29 165.24 264.29 164.26C264.29 164.23 264.26 164.09 264.21 163.84C264.06 163.2 263.7 162.68 263.13 162.3C262.57 161.89 261.91 161.7 261.15 161.7ZM290.53 175.1L290.53 172.1L299.69 172.1L299.69 175.1L301.37 175.1L301.37 170.48L299.47 170.48L299.47 161.7L291.31 161.7L291.31 167C291.31 168.77 291.01 169.93 290.41 170.48L288.85 170.48L288.85 175.1L290.53 175.1ZM305.86 171.8L305.24 173.32C304.77 174.42 303.99 174.98 302.9 174.98L302.42 174.98L302.42 176.6L302.9 176.6C303.83 176.6 304.6 176.38 305.2 175.94C305.81 175.51 306.31 174.82 306.7 173.88L311.82 161.7L310.08 161.7L306.72 169.78L303.46 161.7L301.72 161.7L305.86 171.8ZM317.53 168.12L320.57 172.1L322.57 172.1L318.53 166.78L322.39 161.7L320.39 161.7L317.53 165.44L314.65 161.7L312.65 161.7L316.53 166.78L312.47 172.1L314.47 172.1L317.53 168.12ZM174.43 166.12L167.21 166.12C167.37 165.21 167.77 164.47 168.43 163.9C169.08 163.32 169.86 163.03 170.77 163.03C171.7 163.03 172.5 163.32 173.17 163.9C173.85 164.48 174.27 165.22 174.43 166.12ZM100.59 163.43Q101.23 163.16 101.98 163.16C102.99 163.16 103.84 163.52 104.52 164.24C105.21 164.93 105.56 165.82 105.56 166.9Q105.56 167.95 105.12 168.77Q104.88 169.2 104.52 169.58C103.84 170.28 102.99 170.64 101.98 170.64Q101.27 170.64 100.66 170.39Q99.99 170.13 99.44 169.58Q99.06 169.18 98.83 168.72Q98.42 167.91 98.42 166.9C98.42 165.83 98.76 164.94 99.44 164.24Q99.96 163.7 100.59 163.43ZM121.3 164.24C122 163.52 122.84 163.16 123.84 163.16C124.86 163.16 125.7 163.52 126.38 164.24C127.08 164.93 127.42 165.82 127.42 166.9C127.42 167.98 127.08 168.87 126.38 169.58C125.7 170.28 124.86 170.64 123.84 170.64C122.86 170.64 122.01 170.28 121.3 169.58Q120.93 169.18 120.69 168.72Q120.28 167.91 120.28 166.9C120.28 165.83 120.62 164.94 121.3 164.24ZM210.63 169.58C209.93 170.28 209.05 170.64 207.99 170.64C206.95 170.64 206.08 170.28 205.37 169.58Q204.91 169.09 204.65 168.51Q204.31 167.78 204.31 166.9C204.31 165.83 204.67 164.94 205.37 164.24C206.07 163.52 206.94 163.16 207.99 163.16C209.05 163.16 209.93 163.52 210.63 164.24C211.34 164.94 211.69 165.83 211.69 166.9Q211.69 167.78 211.36 168.51Q211.1 169.09 210.63 169.58ZM274.46 169.58C273.76 170.28 272.88 170.64 271.82 170.64C270.78 170.64 269.91 170.28 269.2 169.58Q268.74 169.09 268.48 168.51Q268.14 167.78 268.14 166.9C268.14 165.83 268.5 164.94 269.2 164.24Q269.63 163.79 270.16 163.53Q270.9 163.16 271.82 163.16C272.88 163.16 273.76 163.52 274.46 164.24C275.17 164.94 275.52 165.83 275.52 166.9Q275.52 167.78 275.19 168.51Q274.93 169.09 274.46 169.58ZM327.21 163.43Q327.85 163.16 328.6 163.16C329.61 163.16 330.46 163.52 331.14 164.24C331.83 164.93 332.18 165.82 332.18 166.9Q332.18 167.95 331.74 168.77Q331.5 169.2 331.14 169.58C330.46 170.28 329.61 170.64 328.6 170.64Q327.89 170.64 327.28 170.39Q326.61 170.13 326.06 169.58C325.38 168.86 325.04 167.96 325.04 166.9C325.04 165.83 325.38 164.94 326.06 164.24Q326.58 163.7 327.21 163.43ZM138.26 166.7L134.28 166.7C133.82 166.7 133.44 166.54 133.14 166.22C132.84 165.88 132.7 165.48 132.7 165Q132.7 164.5 132.91 164.12Q133 163.95 133.14 163.8C133.44 163.48 133.82 163.32 134.28 163.32L138.26 163.32L138.26 166.7ZM257.47 163.32L261.15 163.32C261.56 163.32 261.9 163.44 262.15 163.7Q262.32 163.86 262.42 164.05Q262.55 164.32 262.55 164.66C262.55 165.04 262.42 165.36 262.15 165.62C261.9 165.87 261.56 166 261.15 166L257.47 166L257.47 163.32ZM297.79 170.48L292.27 170.48C292.75 169.61 292.99 168.46 292.99 167.04L292.99 163.32L297.79 163.32L297.79 170.48ZM257.47 170.48L257.47 167.42L261.57 167.42C261.98 167.42 262.33 167.56 262.61 167.86C262.89 168.15 263.03 168.52 263.03 168.96Q263.03 169.33 262.88 169.64Q262.78 169.86 262.61 170.04C262.33 170.33 261.98 170.48 261.57 170.48L257.47 170.48Z" fill="#FFFFFF" fill-opacity="0.740000" fill-rule="evenodd"/>
	<path id="star/strokeoval/raydown" d="M38.16 137.71L38.73 151L39.19 151L39.76 137.71L51.5 137.06L51.5 136.54L39.77 135.89L39.6 123.91C50.88 123.85 59.92 122.32 59.92 120.43C59.92 119.79 58.9 119.2 57.12 118.69C58.9 118.18 59.92 117.58 59.92 116.95C59.92 116.31 58.9 115.72 57.12 115.21C58.9 114.7 59.92 114.1 59.92 113.47C59.92 112.83 58.9 112.24 57.12 111.73C58.9 111.21 59.92 110.62 59.92 109.99C59.92 109.35 58.9 108.76 57.12 108.25C58.9 107.73 59.92 107.14 59.92 106.51C59.92 104.6 50.73 103.06 39.31 103.02L39.19 94L38.73 94L38.61 103.02C27.19 103.06 18 104.6 18 106.51C18 107.14 19.02 107.73 20.8 108.25C19.02 108.76 18 109.35 18 109.99C18 110.62 19.02 111.21 20.8 111.73C19.02 112.24 18 112.83 18 113.47C18 114.1 19.02 114.7 20.8 115.21C19.02 115.72 18 116.31 18 116.95C18 117.58 19.02 118.18 20.8 118.69C19.02 119.2 18 119.79 18 120.43C18 122.32 27.04 123.85 38.32 123.91L38.15 135.89L26.41 136.54L26.41 137.06L38.16 137.71ZM39.6 123.39L39.55 120.43C46.4 120.4 52.41 119.82 56.1 118.95C56.91 119.14 57.58 119.35 58.13 119.56C58.64 119.76 59 119.96 59.23 120.15C59.35 120.24 59.41 120.31 59.44 120.37C59.46 120.39 59.46 120.41 59.47 120.42C59.47 120.42 59.47 120.42 59.47 120.43L59.47 120.43L59.47 120.43C59.47 120.43 59.47 120.43 59.47 120.44C59.46 120.45 59.46 120.47 59.44 120.49C59.41 120.54 59.35 120.62 59.23 120.71C59 120.9 58.64 121.09 58.13 121.3C57.11 121.7 55.6 122.07 53.72 122.38C50.09 122.98 45.12 123.36 39.6 123.39ZM39.55 119.91L39.51 117.46C45.07 117.49 50.07 117.87 53.72 118.48C54.13 118.55 54.51 118.62 54.89 118.69C54.51 118.76 54.13 118.83 53.72 118.9C50.08 119.5 45.09 119.89 39.55 119.91ZM39.51 116.95L39.51 116.95C46.37 116.92 52.41 116.34 56.1 115.47C56.91 115.66 57.58 115.87 58.13 116.08C58.64 116.28 59 116.48 59.23 116.67C59.35 116.76 59.41 116.83 59.44 116.89C59.46 116.91 59.46 116.93 59.47 116.94C59.47 116.94 59.47 116.94 59.47 116.95L59.47 116.95L59.47 116.95C59.47 116.95 59.47 116.95 59.47 116.96C59.46 116.97 59.46 116.98 59.44 117.01C59.41 117.06 59.35 117.14 59.23 117.23C59 117.41 58.64 117.61 58.13 117.82C57.58 118.03 56.91 118.23 56.1 118.42C52.41 117.55 46.37 116.98 39.51 116.95ZM39.5 116.43L39.47 113.98C45.04 114.01 50.06 114.39 53.72 115C54.13 115.06 54.51 115.13 54.89 115.21C54.51 115.28 54.13 115.35 53.72 115.42C50.07 116.02 45.06 116.41 39.5 116.43ZM39.46 113.47L39.46 113.47C46.34 113.44 52.4 112.86 56.1 111.99C56.91 112.18 57.58 112.39 58.13 112.6C58.64 112.8 59 113 59.23 113.18C59.35 113.28 59.41 113.35 59.44 113.4C59.46 113.43 59.46 113.45 59.47 113.46C59.47 113.46 59.47 113.46 59.47 113.46L59.47 113.47L59.47 113.47C59.47 113.47 59.47 113.47 59.47 113.48C59.46 113.49 59.46 113.5 59.44 113.53C59.41 113.58 59.35 113.66 59.23 113.75C59 113.93 58.64 114.13 58.13 114.33C57.58 114.55 56.91 114.75 56.1 114.94C52.4 114.07 46.34 113.49 39.46 113.47ZM39.45 112.95L39.42 110.5C45.01 110.52 50.05 110.91 53.72 111.52C54.13 111.58 54.51 111.65 54.89 111.73C54.51 111.8 54.13 111.87 53.72 111.94C50.06 112.54 45.03 112.93 39.45 112.95ZM39.41 109.99L39.41 109.99C46.31 109.96 52.39 109.38 56.1 108.51C56.91 108.7 57.58 108.9 58.13 109.12C58.64 109.32 59 109.52 59.23 109.7C59.35 109.79 59.41 109.87 59.44 109.92C59.46 109.95 59.46 109.97 59.47 109.97C59.47 109.98 59.47 109.98 59.47 109.98L59.47 109.99L59.47 109.99C59.47 109.99 59.47 109.99 59.47 110C59.46 110.01 59.46 110.02 59.44 110.05C59.41 110.1 59.35 110.18 59.23 110.27C59 110.45 58.64 110.65 58.13 110.85C57.58 111.07 56.91 111.27 56.1 111.46C52.39 110.59 46.31 110.01 39.41 109.99ZM39.4 109.47L39.37 107.02C44.98 107.04 50.04 107.42 53.72 108.03C54.13 108.1 54.51 108.17 54.89 108.25C54.51 108.32 54.13 108.39 53.72 108.46C50.05 109.07 45 109.45 39.4 109.47ZM39.36 106.51L39.32 103.54C44.95 103.56 50.03 103.94 53.72 104.55C55.6 104.87 57.11 105.24 58.13 105.64C58.64 105.84 59 106.04 59.23 106.22C59.35 106.31 59.41 106.39 59.44 106.44C59.46 106.47 59.46 106.49 59.47 106.49C59.47 106.5 59.47 106.5 59.47 106.5L59.47 106.5L59.47 106.51C59.47 106.51 59.47 106.51 59.47 106.52C59.46 106.52 59.46 106.54 59.44 106.57C59.41 106.62 59.35 106.7 59.23 106.79C59 106.97 58.64 107.17 58.13 107.37C57.58 107.59 56.91 107.79 56.1 107.98C52.38 107.11 46.28 106.53 39.36 106.51ZM38.6 103.54L38.56 106.51C31.64 106.53 25.54 107.11 21.82 107.98C21.01 107.79 20.33 107.59 19.79 107.37C19.28 107.17 18.91 106.97 18.69 106.79C18.57 106.7 18.51 106.62 18.48 106.57C18.46 106.54 18.46 106.52 18.45 106.52C18.45 106.51 18.45 106.51 18.45 106.51L18.45 106.51L18.45 106.5C18.45 106.5 18.45 106.5 18.45 106.49C18.46 106.49 18.46 106.47 18.48 106.44C18.51 106.39 18.57 106.31 18.69 106.22C18.91 106.04 19.28 105.84 19.79 105.64C20.81 105.24 22.32 104.87 24.2 104.55C27.89 103.94 32.97 103.56 38.6 103.54ZM38.55 107.02L38.52 109.47C32.92 109.45 27.87 109.07 24.2 108.46C23.79 108.39 23.41 108.32 23.03 108.25C23.41 108.17 23.79 108.1 24.2 108.03C27.88 107.42 32.94 107.04 38.55 107.02ZM38.51 109.99L38.51 109.99C31.61 110.01 25.53 110.59 21.82 111.46C21.01 111.27 20.33 111.07 19.79 110.85C19.28 110.65 18.91 110.45 18.69 110.27C18.57 110.18 18.51 110.1 18.48 110.05C18.46 110.02 18.46 110.01 18.45 110C18.45 109.99 18.45 109.99 18.45 109.99L18.45 109.99L18.45 109.98C18.45 109.98 18.45 109.98 18.45 109.97C18.46 109.97 18.46 109.95 18.48 109.92C18.51 109.87 18.57 109.79 18.69 109.7C18.91 109.52 19.28 109.32 19.79 109.12C20.33 108.9 21.01 108.7 21.82 108.51C25.53 109.38 31.61 109.96 38.51 109.99ZM38.5 110.5L38.47 112.95C32.89 112.93 27.86 112.54 24.2 111.94C23.79 111.87 23.41 111.8 23.03 111.73C23.41 111.65 23.79 111.58 24.2 111.52C27.87 110.91 32.91 110.52 38.5 110.5ZM38.46 113.47L38.46 113.47C31.58 113.49 25.52 114.07 21.82 114.94C21.01 114.75 20.33 114.55 19.79 114.33C19.28 114.13 18.91 113.93 18.69 113.75C18.57 113.66 18.51 113.58 18.48 113.53C18.46 113.5 18.46 113.49 18.45 113.48C18.45 113.47 18.45 113.47 18.45 113.47L18.45 113.47L18.45 113.46C18.45 113.46 18.45 113.46 18.45 113.46C18.46 113.45 18.46 113.43 18.48 113.4C18.51 113.35 18.57 113.28 18.69 113.18C18.91 113 19.28 112.8 19.79 112.6C20.33 112.39 21.01 112.18 21.82 111.99C25.52 112.86 31.58 113.44 38.46 113.47ZM38.45 113.98L38.42 116.43C32.86 116.41 27.85 116.02 24.2 115.42C23.79 115.35 23.41 115.28 23.03 115.21C23.41 115.13 23.79 115.06 24.2 115C27.86 114.39 32.88 114.01 38.45 113.98ZM38.41 116.95L38.41 116.95C31.55 116.98 25.51 117.55 21.82 118.42C21.01 118.23 20.33 118.03 19.79 117.82C19.28 117.61 18.91 117.41 18.69 117.23C18.57 117.14 18.51 117.06 18.48 117.01C18.46 116.98 18.46 116.97 18.45 116.96C18.45 116.95 18.45 116.95 18.45 116.95L18.45 116.95L18.45 116.95C18.45 116.94 18.45 116.94 18.45 116.94C18.46 116.93 18.46 116.91 18.48 116.89C18.51 116.83 18.57 116.76 18.69 116.67C18.91 116.48 19.28 116.28 19.79 116.08C20.33 115.87 21.01 115.66 21.82 115.47C25.51 116.34 31.55 116.92 38.41 116.95ZM38.41 117.46L38.37 119.91C32.83 119.89 27.84 119.5 24.2 118.9C23.79 118.83 23.41 118.76 23.03 118.69C23.41 118.62 23.79 118.55 24.2 118.48C27.85 117.87 32.85 117.49 38.41 117.46ZM38.36 120.43L38.32 123.39C32.8 123.36 27.83 122.98 24.2 122.38C22.32 122.07 20.81 121.7 19.79 121.3C19.28 121.09 18.91 120.9 18.69 120.71C18.57 120.62 18.51 120.54 18.48 120.49C18.46 120.47 18.46 120.45 18.45 120.44C18.45 120.43 18.45 120.43 18.45 120.43L18.45 120.43L18.45 120.43C18.45 120.42 18.45 120.42 18.45 120.42C18.46 120.41 18.46 120.39 18.48 120.37C18.51 120.31 18.57 120.24 18.69 120.15C18.91 119.96 19.28 119.76 19.79 119.56C20.33 119.35 21.01 119.14 21.82 118.95C25.5 119.82 31.52 120.4 38.36 120.43ZM38.96 145.71L38.59 137.22L31.09 136.8L38.6 136.39L38.77 123.91C38.83 123.91 38.9 123.91 38.96 123.91C39.02 123.91 39.08 123.91 39.15 123.91L39.32 136.39L46.83 136.8L39.33 137.22L38.96 145.71ZM38.78 123.39L38.82 120.43C38.87 120.43 38.91 120.43 38.96 120.43C39.01 120.43 39.05 120.43 39.1 120.43L39.14 123.39C39.08 123.39 39.02 123.39 38.96 123.39C38.9 123.39 38.84 123.39 38.78 123.39ZM38.83 119.91L38.86 117.46C38.9 117.46 38.93 117.46 38.96 117.46C38.99 117.46 39.02 117.46 39.06 117.46L39.09 119.91C39.05 119.91 39 119.91 38.96 119.91C38.91 119.91 38.87 119.91 38.83 119.91ZM38.87 116.95L38.87 116.95C38.9 116.95 38.93 116.95 38.96 116.95L39.05 116.95L39.05 116.95C39.02 116.95 38.99 116.95 38.96 116.95L38.87 116.95ZM38.88 116.43L38.91 113.98L38.96 113.98L39.01 113.98L39.04 116.43C39.01 116.43 38.99 116.43 38.96 116.43L38.88 116.43ZM38.92 112.95L38.96 110.5L38.96 110.5L39 112.95L38.96 112.95L38.92 112.95Z" fill="#FFFFFF" fill-opacity="1.000000" fill-rule="evenodd"/>
</svg>
