<svg width="426.433594" height="301.000000" viewBox="0 0 426.434 301" fill="none" xmlns="http://www.w3.org/2000/svg" xmlns:xlink="http://www.w3.org/1999/xlink">
	<desc>
			Created with Pixso.
	</desc>
	<defs>
		<filter id="filter_88_255_dd" x="0.000000" y="0.000000" width="426.433594" height="301.000000" filterUnits="userSpaceOnUse" color-interpolation-filters="sRGB">
			<feFlood flood-opacity="0" result="BackgroundImageFix"/>
			<feGaussianBlur in="BackgroundImage" stdDeviation="20"/>
			<feComposite in2="SourceAlpha" operator="in" result="effect_backgroundBlur_1"/>
			<feBlend mode="normal" in="SourceGraphic" in2="effect_backgroundBlur_1" result="shape"/>
		</filter>
		<linearGradient x1="36.644012" y1="-0.000061" x2="262.301331" y2="300.999969" id="paint_linear_88_253_0" gradientUnits="userSpaceOnUse">
			<stop offset="0.122952" stop-color="#E74040"/>
			<stop offset="1.000000" stop-color="#240404"/>
		</linearGradient>
	</defs>
	<path id="Subtract" d="M33.1387 0L0 28.4744L0 301L330.814 301L426.434 217.373L426.434 0L33.1387 0Z" clip-rule="evenodd" fill="url(#paint_linear_88_253_0)" fill-opacity="0.500000" fill-rule="evenodd"/>
	<path id="Увеличение стоимости машиномест" d="M85.34 86.1L91.38 96.6Q90.56 98.02 89.44 98.33Q89.13 98.42 88.8 98.42L87.5 98.42L87.5 100.1L88.94 100.1Q89.69 100.1 90.35 99.85Q92.1 99.2 93.22 96.86L98.34 86.1L96.4 86.1L92.28 94.74L87.34 86.1L85.34 86.1ZM111.72 95.48L120.66 95.48C120.68 95.13 120.7 94.94 120.7 94.9C120.7 93.35 120.18 92.06 119.16 91.04Q118.53 90.4 117.78 90.02Q116.69 89.48 115.34 89.48Q114.05 89.48 112.99 89.97Q112.19 90.36 111.52 91.04Q110.91 91.64 110.54 92.37Q109.98 93.49 109.98 94.9Q109.98 96.23 110.5 97.31Q110.88 98.11 111.56 98.78Q112.18 99.38 112.93 99.75Q114.08 100.32 115.52 100.32C116.52 100.32 117.43 100.09 118.26 99.64Q118.99 99.24 119.54 98.67Q119.94 98.26 120.24 97.76L118.6 97.24C117.86 98.24 116.84 98.74 115.52 98.74Q114.49 98.74 113.68 98.31Q113.29 98.11 112.96 97.82Q112.42 97.34 112.11 96.74Q111.81 96.16 111.72 95.48ZM159.06 95.48L168 95.48C168.03 95.13 168.04 94.94 168.04 94.9C168.04 93.35 167.53 92.06 166.5 91.04C165.49 90 164.21 89.48 162.68 89.48C161.16 89.48 159.89 90 158.86 91.04C157.83 92.06 157.32 93.35 157.32 94.9C157.32 96.44 157.85 97.74 158.9 98.78Q159.53 99.38 160.27 99.75Q161.42 100.32 162.86 100.32C163.86 100.32 164.77 100.09 165.6 99.64C166.44 99.18 167.1 98.56 167.58 97.76L165.94 97.24C165.21 98.24 164.18 98.74 162.86 98.74C161.85 98.74 160.99 98.43 160.3 97.82C159.59 97.19 159.18 96.41 159.06 95.48ZM196.23 95.48L205.17 95.48C205.2 95.13 205.21 94.94 205.21 94.9C205.21 93.35 204.7 92.06 203.67 91.04C202.66 90 201.38 89.48 199.85 89.48C198.33 89.48 197.06 90 196.03 91.04C195 92.06 194.49 93.35 194.49 94.9C194.49 96.44 195.02 97.74 196.07 98.78Q196.7 99.38 197.44 99.75Q198.59 100.32 200.03 100.32C201.03 100.32 201.94 100.09 202.77 99.64C203.61 99.18 204.27 98.56 204.75 97.76L203.11 97.24C202.38 98.24 201.35 98.74 200.03 98.74C199.02 98.74 198.16 98.43 197.47 97.82C196.76 97.19 196.35 96.41 196.23 95.48ZM221 93.12L222.68 92.62C222.25 91.64 221.59 90.88 220.7 90.32C219.82 89.76 218.83 89.48 217.72 89.48C216.17 89.48 214.88 90 213.84 91.04C212.81 92.06 212.3 93.35 212.3 94.9C212.3 96.43 212.81 97.72 213.84 98.78Q214.52 99.43 215.32 99.81Q216.4 100.32 217.72 100.32C218.83 100.32 219.82 100.04 220.7 99.48C221.59 98.92 222.25 98.15 222.68 97.18L221 96.68C220.69 97.28 220.25 97.76 219.66 98.12Q219.44 98.25 219.21 98.35Q218.53 98.64 217.72 98.64C216.68 98.64 215.81 98.28 215.1 97.58Q214.63 97.09 214.37 96.51Q214.04 95.78 214.04 94.9Q214.04 93.92 214.44 93.14Q214.69 92.65 215.1 92.24Q215.53 91.79 216.06 91.52Q216.8 91.16 217.72 91.16Q218.48 91.16 219.12 91.42Q219.4 91.53 219.66 91.7C220.25 92.04 220.69 92.52 221 93.12ZM233.94 94.9C233.94 96.43 234.46 97.72 235.48 98.78Q236.16 99.43 236.96 99.81Q238.04 100.32 239.36 100.32C240.9 100.32 242.19 99.8 243.24 98.78Q243.89 98.13 244.27 97.35Q244.8 96.25 244.8 94.9Q244.8 93.51 244.25 92.41Q243.87 91.66 243.24 91.04C242.2 90 240.91 89.48 239.36 89.48C237.82 89.48 236.52 90 235.48 91.04C234.46 92.06 233.94 93.35 233.94 94.9ZM273.16 94.9C273.16 96.43 273.67 97.72 274.7 98.78Q275.38 99.43 276.18 99.81Q277.26 100.32 278.58 100.32C280.11 100.32 281.41 99.8 282.46 98.78Q283.11 98.13 283.49 97.35Q284.02 96.25 284.02 94.9Q284.02 93.51 283.47 92.41Q283.09 91.66 282.46 91.04C281.42 90 280.13 89.48 278.58 89.48C277.03 89.48 275.74 90 274.7 91.04C273.67 92.06 273.16 93.35 273.16 94.9ZM294.48 93.12L296.16 92.62C295.73 91.64 295.07 90.88 294.18 90.32C293.3 89.76 292.3 89.48 291.2 89.48C289.65 89.48 288.36 90 287.32 91.04C286.29 92.06 285.78 93.35 285.78 94.9C285.78 96.43 286.29 97.72 287.32 98.78Q287.99 99.43 288.8 99.81Q289.88 100.32 291.2 100.32C292.3 100.32 293.3 100.04 294.18 99.48C295.07 98.92 295.73 98.15 296.16 97.18L294.48 96.68C294.17 97.28 293.72 97.76 293.14 98.12Q292.92 98.25 292.69 98.35Q292 98.64 291.2 98.64C290.16 98.64 289.28 98.28 288.58 97.58Q288.11 97.09 287.85 96.51Q287.52 95.78 287.52 94.9Q287.52 93.92 287.91 93.14Q288.16 92.65 288.58 92.24Q289.01 91.79 289.53 91.52Q290.27 91.16 291.2 91.16Q291.95 91.16 292.6 91.42Q292.88 91.53 293.14 91.7C293.72 92.04 294.17 92.52 294.48 93.12ZM104.72 89.7L99.36 89.7L99.36 100.1L105.14 100.1Q106.07 100.1 106.78 99.71Q107.14 99.52 107.44 99.24C108.06 98.66 108.36 97.94 108.36 97.06C108.36 96.54 108.22 96.06 107.92 95.62C107.64 95.16 107.26 94.82 106.78 94.58C107.5 94.02 107.86 93.24 107.86 92.26C107.86 92.23 107.84 92.09 107.78 91.84C107.64 91.2 107.28 90.68 106.7 90.3Q106.5 90.15 106.28 90.04Q105.59 89.7 104.72 89.7ZM121.37 100.1L122.05 100.1C123.01 100.1 123.76 99.72 124.29 98.96C124.84 98.18 125.11 97.04 125.11 95.52L125.11 91.32L129.81 91.32L129.81 100.1L131.49 100.1L131.49 89.7L123.43 89.7L123.43 95.2Q123.43 97.91 122.41 98.38Q122.19 98.48 121.93 98.48L121.37 98.48L121.37 100.1ZM135.75 100.1L142.23 92.52L142.23 100.1L143.91 100.1L143.91 89.7L142.49 89.7L136 97.32L136 89.7L134.33 89.7L134.33 100.1L135.75 100.1ZM146.27 89.7L146.27 92.98C146.27 93.94 146.62 94.73 147.33 95.36C148.06 95.98 149.03 96.3 150.23 96.3Q151.23 96.3 153.35 96.06L153.35 100.1L155.03 100.1L155.03 89.7L153.35 89.7L153.35 94.44C151.93 94.6 150.93 94.68 150.35 94.68C149.59 94.68 149.01 94.52 148.61 94.22C148.21 93.91 148.01 93.5 148.01 92.98L148.01 89.7L146.27 89.7ZM171.87 100.1L171.87 95.62L178.07 95.62L178.07 100.1L179.75 100.1L179.75 89.7L178.07 89.7L178.07 94L171.87 94L171.87 89.7L170.19 89.7L170.19 100.1L171.87 100.1ZM184.01 100.1L190.49 92.52L190.49 100.1L192.17 100.1L192.17 89.7L190.75 89.7L184.27 97.32L184.27 89.7L182.59 89.7L182.59 100.1L184.01 100.1ZM227.63 91.32L227.63 100.1L229.31 100.1L229.31 91.32L233.21 91.32L233.21 89.7L223.73 89.7L223.73 91.32L227.63 91.32ZM248.52 100.1L255 92.52L255 100.1L256.68 100.1L256.68 89.7L255.26 89.7L248.78 97.32L248.78 89.7L247.1 89.7L247.1 100.1L248.52 100.1ZM261.22 100.1L261.22 92.86L264.68 98.9L265.72 98.9L269.16 92.9L269.16 100.1L270.84 100.1L270.84 89.7L269.16 89.7L265.2 96.62L261.22 89.7L259.54 89.7L259.54 100.1L261.22 100.1ZM301.11 91.32L301.11 100.1L302.79 100.1L302.79 91.32L306.69 91.32L306.69 89.7L297.21 89.7L297.21 91.32L301.11 91.32ZM309.87 100.1L316.35 92.52L316.35 100.1L318.03 100.1L318.03 89.7L316.61 89.7L310.13 97.32L310.13 89.7L308.45 89.7L308.45 100.1L309.87 100.1ZM118.96 94.12L111.74 94.12C111.9 93.21 112.3 92.47 112.96 91.9C113.61 91.32 114.39 91.04 115.3 91.04C116.23 91.04 117.03 91.32 117.7 91.9C118.38 92.48 118.8 93.22 118.96 94.12ZM166.3 94.12L159.08 94.12C159.24 93.21 159.65 92.47 160.3 91.9Q160.71 91.54 161.18 91.33Q161.85 91.04 162.64 91.04C163.57 91.04 164.37 91.32 165.04 91.9C165.72 92.48 166.14 93.22 166.3 94.12ZM203.47 94.12L196.25 94.12C196.41 93.21 196.82 92.47 197.47 91.9Q197.88 91.54 198.35 91.33Q199.01 91.04 199.81 91.04C200.74 91.04 201.54 91.32 202.21 91.9C202.89 92.48 203.31 93.22 203.47 94.12ZM242 97.58C241.3 98.28 240.42 98.64 239.36 98.64C238.32 98.64 237.45 98.28 236.74 97.58Q236.28 97.09 236.01 96.51Q235.68 95.78 235.68 94.9Q235.68 93.92 236.08 93.14Q236.33 92.65 236.74 92.24Q237.17 91.79 237.7 91.52Q238.44 91.16 239.36 91.16C240.42 91.16 241.3 91.52 242 92.24Q242.41 92.65 242.67 93.14Q243.06 93.92 243.06 94.9Q243.06 95.78 242.73 96.51Q242.47 97.09 242 97.58ZM281.22 97.58C280.51 98.28 279.63 98.64 278.58 98.64C277.54 98.64 276.67 98.28 275.96 97.58Q275.49 97.09 275.23 96.51Q274.9 95.78 274.9 94.9Q274.9 93.92 275.29 93.14Q275.55 92.65 275.96 92.24Q276.39 91.79 276.92 91.52Q277.66 91.16 278.58 91.16C279.63 91.16 280.51 91.52 281.22 92.24Q281.63 92.65 281.89 93.14Q282.28 93.92 282.28 94.9Q282.28 95.78 281.95 96.51Q281.69 97.09 281.22 97.58ZM101.04 91.32L104.72 91.32C105.14 91.32 105.47 91.44 105.72 91.7C105.99 91.95 106.12 92.27 106.12 92.66C106.12 93.04 105.99 93.36 105.72 93.62C105.47 93.87 105.14 94 104.72 94L101.04 94L101.04 91.32ZM101.04 98.48L101.04 95.42L105.14 95.42C105.56 95.42 105.9 95.56 106.18 95.86C106.46 96.15 106.6 96.52 106.6 96.96Q106.6 97.33 106.46 97.64Q106.36 97.86 106.18 98.04C105.9 98.33 105.56 98.48 105.14 98.48L101.04 98.48ZM107.51 114.01Q106.47 113.48 105.16 113.48Q103.95 113.48 102.97 113.94Q102.16 114.33 101.5 115.04Q101.03 115.52 100.72 116.08Q100.04 117.29 100.04 118.9C100.04 120.46 100.52 121.75 101.5 122.78C102.48 123.8 103.7 124.32 105.16 124.32C106.72 124.32 107.98 123.75 108.96 122.62L108.96 124.1L110.64 124.1L110.64 113.7L108.96 113.7L108.96 115.18Q108.32 114.43 107.51 114.01ZM155.21 118.9C155.21 120.43 155.72 121.72 156.75 122.78C157.8 123.8 159.1 124.32 160.63 124.32C162.16 124.32 163.46 123.8 164.51 122.78C165.55 121.74 166.07 120.44 166.07 118.9C166.07 117.35 165.55 116.06 164.51 115.04C163.47 114 162.18 113.48 160.63 113.48Q159.27 113.48 158.17 114.01Q157.4 114.39 156.75 115.04C155.72 116.06 155.21 117.35 155.21 118.9ZM183.73 119.48L192.67 119.48C192.7 119.13 192.71 118.94 192.71 118.9C192.71 117.35 192.2 116.06 191.17 115.04C190.16 114 188.88 113.48 187.35 113.48C185.83 113.48 184.56 114 183.53 115.04C182.5 116.06 181.99 117.35 181.99 118.9C181.99 120.44 182.52 121.74 183.57 122.78C184.64 123.8 185.96 124.32 187.53 124.32C188.53 124.32 189.44 124.09 190.27 123.64C191.11 123.18 191.77 122.56 192.25 121.76L190.61 121.24C189.88 122.24 188.85 122.74 187.53 122.74C186.52 122.74 185.66 122.43 184.97 121.82C184.26 121.19 183.85 120.41 183.73 119.48ZM203.01 117.12L204.69 116.62C204.27 115.64 203.61 114.88 202.71 114.32C201.83 113.76 200.84 113.48 199.73 113.48Q198.37 113.48 197.28 114.01Q196.5 114.39 195.85 115.04C194.83 116.06 194.31 117.35 194.31 118.9C194.31 120.43 194.83 121.72 195.85 122.78C196.91 123.8 198.2 124.32 199.73 124.32C200.84 124.32 201.83 124.04 202.71 123.48C203.61 122.92 204.27 122.15 204.69 121.18L203.01 120.68C202.71 121.28 202.26 121.76 201.67 122.12C201.1 122.46 200.45 122.64 199.73 122.64C198.69 122.64 197.82 122.28 197.11 121.58Q196.65 121.09 196.39 120.51Q196.05 119.78 196.05 118.9C196.05 117.83 196.41 116.94 197.11 116.24C197.81 115.52 198.68 115.16 199.73 115.16C200.45 115.16 201.1 115.34 201.67 115.7C202.26 116.04 202.71 116.52 203.01 117.12ZM88.1 124.1L88.1 116.86L91.56 122.9L92.6 122.9L96.04 116.9L96.04 124.1L97.72 124.1L97.72 113.7L96.04 113.7L92.08 120.62L88.1 113.7L86.42 113.7L86.42 124.1L88.1 124.1ZM113.47 113.7L113.47 124.1L128.05 124.1L128.05 113.7L126.37 113.7L126.37 122.48L121.61 122.48L121.61 113.7L119.93 113.7L119.93 122.48L115.15 122.48L115.15 113.7L113.47 113.7ZM132.33 124.1L138.81 116.52L138.81 124.1L140.49 124.1L140.49 113.7L139.07 113.7L132.59 121.32L132.59 113.7L130.91 113.7L130.91 124.1L132.33 124.1ZM145.03 124.1L145.03 119.62L151.23 119.62L151.23 124.1L152.91 124.1L152.91 113.7L151.23 113.7L151.23 118L145.03 118L145.03 113.7L143.35 113.7L143.35 124.1L145.03 124.1ZM170.05 124.1L170.05 116.86L173.51 122.9L174.55 122.9L177.99 116.9L177.99 124.1L179.67 124.1L179.67 113.7L177.99 113.7L174.03 120.62L170.05 113.7L168.37 113.7L168.37 124.1L170.05 124.1ZM209.65 115.32L209.65 124.1L211.33 124.1L211.33 115.32L215.23 115.32L215.23 113.7L205.75 113.7L205.75 115.32L209.65 115.32ZM190.97 118.12L183.75 118.12C183.91 117.21 184.32 116.47 184.97 115.9Q185.38 115.54 185.85 115.33Q186.51 115.04 187.31 115.04C188.24 115.04 189.04 115.32 189.71 115.9C190.39 116.48 190.81 117.22 190.97 118.12ZM103.95 115.43Q104.58 115.16 105.34 115.16C106.35 115.16 107.2 115.52 107.88 116.24C108.57 116.93 108.92 117.82 108.92 118.9Q108.92 119.95 108.48 120.77Q108.24 121.2 107.88 121.58C107.2 122.28 106.35 122.64 105.34 122.64C104.35 122.64 103.5 122.28 102.8 121.58C102.12 120.86 101.78 119.96 101.78 118.9C101.78 117.83 102.12 116.94 102.8 116.24Q103.31 115.7 103.95 115.43ZM163.27 121.58C162.56 122.28 161.68 122.64 160.63 122.64C159.59 122.64 158.72 122.28 158.01 121.58Q157.55 121.09 157.28 120.51Q156.95 119.78 156.95 118.9C156.95 117.83 157.3 116.94 158.01 116.24C158.7 115.52 159.58 115.16 160.63 115.16C161.68 115.16 162.56 115.52 163.27 116.24C163.98 116.94 164.33 117.83 164.33 118.9Q164.33 119.78 164 120.51Q163.74 121.09 163.27 121.58Z" fill="#FFFFFF" fill-opacity="0.740000" fill-rule="evenodd"/>
	<path id="star/strokeoval/raydown" d="M36.16 126.71L36.73 140L37.19 140L37.76 126.71L49.5 126.06L49.5 125.54L37.77 124.89L37.6 112.91C48.88 112.85 57.92 111.32 57.92 109.43C57.92 108.79 56.9 108.2 55.12 107.69C56.9 107.18 57.92 106.58 57.92 105.95C57.92 105.31 56.9 104.72 55.12 104.21C56.9 103.7 57.92 103.1 57.92 102.47C57.92 101.83 56.9 101.24 55.12 100.73C56.9 100.21 57.92 99.62 57.92 98.99C57.92 98.35 56.9 97.76 55.12 97.25C56.9 96.73 57.92 96.14 57.92 95.5C57.92 93.6 48.73 92.06 37.31 92.02L37.19 83L36.73 83L36.61 92.02C25.19 92.06 16 93.6 16 95.5C16 96.14 17.02 96.73 18.8 97.25C17.02 97.76 16 98.35 16 98.99C16 99.62 17.02 100.21 18.8 100.73C17.02 101.24 16 101.83 16 102.47C16 103.1 17.02 103.7 18.8 104.21C17.02 104.72 16 105.31 16 105.95C16 106.58 17.02 107.18 18.8 107.69C17.02 108.2 16 108.79 16 109.43C16 111.32 25.04 112.85 36.32 112.91L36.15 124.89L24.41 125.54L24.41 126.06L36.16 126.71ZM37.6 112.39L37.55 109.43C44.4 109.4 50.41 108.82 54.1 107.95C54.91 108.14 55.58 108.35 56.13 108.56C56.64 108.76 57 108.96 57.23 109.15C57.35 109.24 57.41 109.31 57.44 109.37C57.46 109.39 57.46 109.41 57.47 109.42C57.47 109.42 57.47 109.42 57.47 109.43L57.47 109.43L57.47 109.43C57.47 109.43 57.47 109.43 57.47 109.44C57.46 109.45 57.46 109.47 57.44 109.49C57.41 109.54 57.35 109.62 57.23 109.71C57 109.9 56.64 110.09 56.13 110.3C55.11 110.7 53.6 111.07 51.72 111.38C48.09 111.98 43.12 112.36 37.6 112.39ZM37.55 108.91L37.51 106.46C43.07 106.49 48.07 106.87 51.72 107.48C52.13 107.55 52.51 107.62 52.89 107.69C52.51 107.76 52.13 107.83 51.72 107.9C48.08 108.5 43.09 108.89 37.55 108.91ZM37.51 105.95L37.51 105.95C44.37 105.92 50.41 105.34 54.1 104.47C54.91 104.66 55.58 104.87 56.13 105.08C56.64 105.28 57 105.48 57.23 105.67C57.35 105.76 57.41 105.83 57.44 105.89C57.46 105.91 57.46 105.93 57.47 105.94C57.47 105.94 57.47 105.94 57.47 105.95L57.47 105.95L57.47 105.95C57.47 105.95 57.47 105.95 57.47 105.96C57.46 105.97 57.46 105.98 57.44 106.01C57.41 106.06 57.35 106.14 57.23 106.23C57 106.41 56.64 106.61 56.13 106.82C55.58 107.03 54.91 107.23 54.1 107.42C50.41 106.55 44.37 105.98 37.51 105.95ZM37.5 105.43L37.47 102.98C43.04 103.01 48.06 103.39 51.72 104C52.13 104.06 52.51 104.13 52.89 104.21C52.51 104.28 52.13 104.35 51.72 104.42C48.07 105.02 43.06 105.41 37.5 105.43ZM37.46 102.47L37.46 102.47C44.34 102.44 50.4 101.86 54.1 100.99C54.91 101.18 55.58 101.39 56.13 101.6C56.64 101.8 57 102 57.23 102.18C57.35 102.28 57.41 102.35 57.44 102.4C57.46 102.43 57.46 102.45 57.47 102.46C57.47 102.46 57.47 102.46 57.47 102.46L57.47 102.47L57.47 102.47C57.47 102.47 57.47 102.47 57.47 102.48C57.46 102.49 57.46 102.5 57.44 102.53C57.41 102.58 57.35 102.66 57.23 102.75C57 102.93 56.64 103.13 56.13 103.33C55.58 103.55 54.91 103.75 54.1 103.94C50.4 103.07 44.34 102.49 37.46 102.47ZM37.45 101.95L37.42 99.5C43.01 99.52 48.05 99.91 51.72 100.52C52.13 100.58 52.51 100.65 52.89 100.73C52.51 100.8 52.13 100.87 51.72 100.94C48.06 101.54 43.03 101.93 37.45 101.95ZM37.41 98.99L37.41 98.98C44.31 98.96 50.39 98.38 54.1 97.51C54.91 97.7 55.58 97.9 56.13 98.12C56.64 98.32 57 98.52 57.23 98.7C57.35 98.79 57.41 98.87 57.44 98.92C57.46 98.95 57.46 98.97 57.47 98.97C57.47 98.98 57.47 98.98 57.47 98.98L57.47 98.99L57.47 98.99C57.47 98.99 57.47 98.99 57.47 99C57.46 99.01 57.46 99.02 57.44 99.05C57.41 99.1 57.35 99.18 57.23 99.27C57 99.45 56.64 99.65 56.13 99.85C55.58 100.07 54.91 100.27 54.1 100.46C50.39 99.59 44.31 99.01 37.41 98.99ZM37.4 98.47L37.37 96.02C42.98 96.04 48.04 96.42 51.72 97.03C52.13 97.1 52.51 97.17 52.89 97.25C52.51 97.32 52.13 97.39 51.72 97.46C48.05 98.06 43 98.45 37.4 98.47ZM37.36 95.51L37.32 92.54C42.95 92.56 48.03 92.94 51.72 93.55C53.6 93.87 55.11 94.24 56.13 94.64C56.64 94.84 57 95.04 57.23 95.22C57.35 95.31 57.41 95.39 57.44 95.44C57.46 95.47 57.46 95.48 57.47 95.49C57.47 95.5 57.47 95.5 57.47 95.5L57.47 95.5L57.47 95.51C57.47 95.51 57.47 95.51 57.47 95.52C57.46 95.52 57.46 95.54 57.44 95.57C57.41 95.62 57.35 95.7 57.23 95.79C57 95.97 56.64 96.17 56.13 96.37C55.58 96.59 54.91 96.79 54.1 96.98C50.38 96.1 44.28 95.53 37.36 95.51ZM36.6 92.54L36.56 95.51C29.64 95.53 23.54 96.1 19.82 96.98C19.01 96.79 18.33 96.59 17.79 96.37C17.28 96.17 16.91 95.97 16.69 95.79C16.57 95.7 16.51 95.62 16.48 95.57C16.46 95.54 16.46 95.52 16.45 95.52C16.45 95.51 16.45 95.51 16.45 95.51L16.45 95.5L16.45 95.5C16.45 95.5 16.45 95.5 16.45 95.49C16.46 95.48 16.46 95.47 16.48 95.44C16.51 95.39 16.57 95.31 16.69 95.22C16.91 95.04 17.28 94.84 17.79 94.64C18.81 94.24 20.32 93.87 22.2 93.55C25.89 92.94 30.97 92.56 36.6 92.54ZM36.55 96.02L36.52 98.47C30.92 98.45 25.87 98.06 22.2 97.46C21.79 97.39 21.41 97.32 21.03 97.25C21.41 97.17 21.79 97.1 22.2 97.03C25.88 96.42 30.94 96.04 36.55 96.02ZM36.51 98.98L36.51 98.99C29.61 99.01 23.53 99.59 19.82 100.46C19.01 100.27 18.33 100.07 17.79 99.85C17.28 99.65 16.91 99.45 16.69 99.27C16.57 99.18 16.51 99.1 16.48 99.05C16.46 99.02 16.46 99.01 16.45 99C16.45 98.99 16.45 98.99 16.45 98.99L16.45 98.99L16.45 98.98C16.45 98.98 16.45 98.98 16.45 98.97C16.46 98.97 16.46 98.95 16.48 98.92C16.51 98.87 16.57 98.79 16.69 98.7C16.91 98.52 17.28 98.32 17.79 98.12C18.33 97.9 19.01 97.7 19.82 97.51C23.53 98.38 29.61 98.96 36.51 98.98ZM36.5 99.5L36.47 101.95C30.89 101.93 25.86 101.54 22.2 100.94C21.79 100.87 21.41 100.8 21.03 100.73C21.41 100.65 21.79 100.58 22.2 100.52C25.87 99.91 30.91 99.52 36.5 99.5ZM36.46 102.47L36.46 102.47C29.58 102.49 23.52 103.07 19.82 103.94C19.01 103.75 18.33 103.55 17.79 103.33C17.28 103.13 16.91 102.93 16.69 102.75C16.57 102.66 16.51 102.58 16.48 102.53C16.46 102.5 16.46 102.49 16.45 102.48C16.45 102.47 16.45 102.47 16.45 102.47L16.45 102.47L16.45 102.46C16.45 102.46 16.45 102.46 16.45 102.46C16.46 102.45 16.46 102.43 16.48 102.4C16.51 102.35 16.57 102.28 16.69 102.18C16.91 102 17.28 101.8 17.79 101.6C18.33 101.39 19.01 101.18 19.82 100.99C23.52 101.86 29.58 102.44 36.46 102.47ZM36.45 102.98L36.42 105.43C30.86 105.41 25.85 105.02 22.2 104.42C21.79 104.35 21.41 104.28 21.03 104.21C21.41 104.13 21.79 104.06 22.2 104C25.86 103.39 30.88 103.01 36.45 102.98ZM36.41 105.95L36.41 105.95C29.55 105.98 23.51 106.55 19.82 107.42C19.01 107.23 18.33 107.03 17.79 106.82C17.28 106.61 16.91 106.41 16.69 106.23C16.57 106.14 16.51 106.06 16.48 106.01C16.46 105.98 16.46 105.97 16.45 105.96C16.45 105.95 16.45 105.95 16.45 105.95L16.45 105.95L16.45 105.95C16.45 105.94 16.45 105.94 16.45 105.94C16.46 105.93 16.46 105.91 16.48 105.89C16.51 105.83 16.57 105.76 16.69 105.67C16.91 105.48 17.28 105.28 17.79 105.08C18.33 104.87 19.01 104.66 19.82 104.47C23.51 105.34 29.55 105.92 36.41 105.95ZM36.41 106.46L36.37 108.91C30.83 108.89 25.84 108.5 22.2 107.9C21.79 107.83 21.41 107.76 21.03 107.69C21.41 107.62 21.79 107.55 22.2 107.48C25.85 106.87 30.85 106.49 36.41 106.46ZM36.36 109.43L36.32 112.39C30.8 112.36 25.83 111.98 22.2 111.38C20.32 111.07 18.81 110.7 17.79 110.3C17.28 110.09 16.91 109.9 16.69 109.71C16.57 109.62 16.51 109.54 16.48 109.49C16.46 109.47 16.46 109.45 16.45 109.44C16.45 109.43 16.45 109.43 16.45 109.43L16.45 109.43L16.45 109.43C16.45 109.42 16.45 109.42 16.45 109.42C16.46 109.41 16.46 109.39 16.48 109.37C16.51 109.31 16.57 109.24 16.69 109.15C16.91 108.96 17.28 108.76 17.79 108.56C18.33 108.35 19.01 108.14 19.82 107.95C23.5 108.82 29.52 109.4 36.36 109.43ZM36.96 134.71L36.59 126.22L29.09 125.8L36.6 125.39L36.77 112.91C36.83 112.91 36.9 112.91 36.96 112.91C37.02 112.91 37.08 112.91 37.15 112.91L37.32 125.39L44.83 125.8L37.33 126.22L36.96 134.71ZM36.78 112.39L36.82 109.43C36.87 109.43 36.91 109.43 36.96 109.43C37.01 109.43 37.05 109.43 37.1 109.43L37.14 112.39C37.08 112.39 37.02 112.39 36.96 112.39C36.9 112.39 36.84 112.39 36.78 112.39ZM36.83 108.91L36.86 106.46C36.9 106.46 36.93 106.46 36.96 106.46C36.99 106.46 37.02 106.46 37.06 106.46L37.09 108.91C37.05 108.91 37 108.91 36.96 108.91C36.91 108.91 36.87 108.91 36.83 108.91ZM36.87 105.95L36.87 105.95C36.9 105.95 36.93 105.95 36.96 105.95L37.05 105.95L37.05 105.95C37.02 105.95 36.99 105.95 36.96 105.95L36.87 105.95ZM36.88 105.43L36.91 102.98L36.96 102.98L37.01 102.98L37.04 105.43C37.01 105.43 36.99 105.43 36.96 105.43L36.88 105.43ZM36.92 101.95L36.96 99.5L36.96 99.5L37 101.95L36.96 101.95L36.92 101.95Z" fill="#FFFFFF" fill-opacity="1.000000" fill-rule="evenodd"/>
</svg>
