<svg width="35.000000" height="35.000000" viewBox="0 0 35 35" fill="none" xmlns="http://www.w3.org/2000/svg" xmlns:xlink="http://www.w3.org/1999/xlink">
	<desc>
			Created with Pixso.
	</desc>
	<defs>
		<clipPath id="clip88_108">
			<rect id="telegram" rx="-0.500000" width="34.000000" height="34.000000" transform="translate(0.500000 0.500000)" fill="white" fill-opacity="0"/>
		</clipPath>
	</defs>
	<rect id="telegram" rx="-0.500000" width="34.000000" height="34.000000" transform="translate(0.500000 0.500000)" fill="#FFFFFF" fill-opacity="0"/>
	<g clip-path="url(#clip88_108)">
		<path id="Vector" d="M6.45 28.54C9.38 31.47 13.35 33.12 17.5 33.12C21.64 33.12 25.62 31.47 28.55 28.54C31.48 25.61 33.12 21.64 33.12 17.5C33.12 13.35 31.48 9.38 28.55 6.45C25.62 3.52 21.64 1.87 17.5 1.87C13.35 1.87 9.38 3.52 6.45 6.45C3.52 9.38 1.87 13.35 1.87 17.5C1.87 21.64 3.52 25.61 6.45 28.54Z" stroke="#FFFFFF" stroke-opacity="0.600000" stroke-width="1.000000" stroke-linejoin="round"/>
		<path id="Vector" d="M23.04 26.58L15.83 19.18L7.3 17.4L24.35 9.52L23.04 26.58Z" stroke="#FFFFFF" stroke-opacity="0.600000" stroke-width="1.000000" stroke-linejoin="round"/>
		<path id="Vector" d="M12.66 18.51L13.94 25.91L18.63 22.02M15.83 19.14L18.56 16.96" stroke="#FFFFFF" stroke-opacity="0.600000" stroke-width="1.000000" stroke-linejoin="round" stroke-linecap="round"/>
	</g>
</svg>
