<svg width="35.000000" height="35.000000" viewBox="0 0 35 35" fill="none" xmlns="http://www.w3.org/2000/svg" xmlns:xlink="http://www.w3.org/1999/xlink">
	<desc>
			Created with Pixso.
	</desc>
	<defs>
		<clipPath id="clip88_113">
			<rect id="whatsapp" rx="-0.500000" width="34.000000" height="34.000000" transform="translate(0.500000 0.500000)" fill="white" fill-opacity="0"/>
		</clipPath>
	</defs>
	<rect id="whatsapp" rx="-0.500000" width="34.000000" height="34.000000" transform="translate(0.500000 0.500000)" fill="#FFFFFF" fill-opacity="0"/>
	<g clip-path="url(#clip88_113)">
		<path id="Vector" d="M30.74 18.15C30.74 10.47 24.52 4.25 16.84 4.25C9.16 4.25 2.94 10.47 2.94 18.15C2.94 20.07 3.33 21.89 4.03 23.55C4.42 24.47 4.61 24.93 4.63 25.28C4.66 25.63 4.56 26.01 4.35 26.77L2.94 32.05L8.22 30.64C8.98 30.43 9.36 30.33 9.71 30.35C10.06 30.38 10.52 30.57 11.43 30.96C13.15 31.68 14.98 32.05 16.84 32.05C24.52 32.05 30.74 25.83 30.74 18.15Z" stroke="#FFFFFF" stroke-opacity="0.600000" stroke-width="1.500000" stroke-linejoin="round"/>
		<path id="Vector" d="M12.04 18.68L13.27 17.16C13.78 16.52 14.42 15.92 14.47 15.07C14.48 14.85 14.33 13.88 14.03 11.95C13.91 11.18 13.2 11.12 12.58 11.12C11.78 11.12 11.38 11.12 10.98 11.3C10.48 11.53 9.96 12.17 9.85 12.72C9.76 13.14 9.83 13.44 9.96 14.03C10.52 16.54 11.85 19.02 13.91 21.08C15.97 23.13 18.45 24.46 20.96 25.03C21.55 25.16 21.84 25.23 22.27 25.14C22.82 25.03 23.46 24.51 23.69 24.01C23.87 23.61 23.87 23.21 23.87 22.41C23.87 21.79 23.8 21.08 23.04 20.96C21.11 20.66 20.14 20.51 19.92 20.52C19.07 20.57 18.47 21.21 17.83 21.72L16.31 22.95" stroke="#FFFFFF" stroke-opacity="0.600000" stroke-width="1.500000" stroke-linejoin="round" stroke-linecap="round"/>
	</g>
</svg>
