<svg width="261.150391" height="33.600098" viewBox="0 0 261.15 33.6001" fill="none" xmlns="http://www.w3.org/2000/svg" xmlns:xlink="http://www.w3.org/1999/xlink">
	<desc>
			Created with Pixso.
	</desc>
	<defs>
		<linearGradient x1="-2.400391" y1="18.840088" x2="263.599609" y2="18.840088" id="paint_linear_88_634_0" gradientUnits="userSpaceOnUse">
			<stop stop-color="#EB4E4E"/>
			<stop offset="0.956667" stop-color="#C31111"/>
		</linearGradient>
	</defs>
	<g opacity="0.100000">
		<path id="H1" d="M33.59 14.4L33.59 9.6C33.45 4.27 29.13 8.39e-5 23.99 8.39e-5L-0.01 8.39e-5L-0.01 33.6L4.79 33.6L4.79 24L23.99 24C29.37 24 33.59 19.48 33.59 14.4ZM42.25 14.4L42.25 8.39e-5L37.45 8.39e-5L37.45 33.6L42.25 33.6L42.25 19.2L66.25 19.2L66.25 33.6L71.05 33.6L71.05 8.39e-5L66.25 8.39e-5L66.25 14.4L42.25 14.4ZM109.44 33.6L109.44 9.6C109.29 4.27 104.97 8.39e-5 99.84 8.39e-5L85.44 8.39e-5C80.06 8.39e-5 75.84 4.51 75.84 9.6L75.84 33.6L80.64 33.6L80.64 24L104.64 24L104.64 33.6L109.44 33.6ZM147.83 33.6L147.83 8.39e-5L143.03 8.39e-5L143.03 25.44L119.03 8.39e-5L114.23 8.39e-5L114.23 33.6L119.03 33.6L119.03 7.77L143.03 33.6L147.83 33.6ZM169.42 4.8L183.82 4.8L183.82 8.39e-5L150.22 8.39e-5L150.22 4.8L164.62 4.8L164.62 33.6L169.42 33.6L169.42 4.8ZM218.41 24L218.41 9.6C218.41 4.36 213.9 8.39e-5 208.81 8.39e-5L194.41 8.39e-5C189.13 8.39e-5 184.81 4.32 184.81 9.6L184.81 24C184.81 29.32 189.08 33.6 194.41 33.6L208.81 33.6C214.09 33.6 218.41 29.28 218.41 24ZM227.55 8.59L241.95 29.37L256.35 8.59L256.35 33.6L261.15 33.6L261.15 8.39e-5L256.35 8.39e-5L241.95 20.78L227.55 8.39e-5L222.75 8.39e-5L222.75 33.6L227.55 33.6L227.55 8.59ZM28.79 9.6L28.79 14.4C28.79 17.04 26.63 19.2 23.99 19.2L4.79 19.2L4.79 4.8L23.99 4.8C26.63 4.8 28.79 6.96 28.79 9.6ZM85.44 4.8L99.84 4.8C102.48 4.8 104.64 6.96 104.64 9.6L104.64 19.2L80.64 19.2L80.64 9.6C80.64 6.96 82.8 4.8 85.44 4.8ZM213.61 9.6L213.61 24C213.61 26.64 211.45 28.8 208.81 28.8L194.41 28.8C191.77 28.8 189.61 26.64 189.61 24L189.61 9.6C189.61 6.96 191.77 4.8 194.41 4.8L208.81 4.8C211.45 4.8 213.61 6.96 213.61 9.6Z" fill="url(#paint_linear_88_634_0)" fill-opacity="1.000000" fill-rule="evenodd"/>
	</g>
</svg>
