<svg width="55" height="56" viewBox="0 0 55 56" fill="none" xmlns="http://www.w3.org/2000/svg">
<path d="M26.4727 50.8739C38.5382 50.8739 48.3185 41.0936 48.3185 29.0281C48.3185 16.9627 38.5382 7.18233 26.4727 7.18233C14.4073 7.18233 4.62695 16.9627 4.62695 29.0281C4.62695 32.0407 5.23864 34.9112 6.33966 37.5218C6.94916 38.9636 7.25282 39.6845 7.29214 40.2306C7.32928 40.7768 7.16762 41.3754 6.84649 42.5747L4.62695 50.8739L12.9262 48.6544C14.1255 48.3332 14.7241 48.1738 15.2702 48.2087C15.8164 48.2481 16.5373 48.5517 17.9791 49.1612C20.6676 50.2935 23.5556 50.8758 26.4727 50.8739Z" stroke="#141414" stroke-width="0.7" stroke-linecap="round" stroke-linejoin="round"/>
<path d="M18.9321 29.8612L20.8572 27.4719C21.6684 26.464 22.6696 25.5269 22.7514 24.1831C22.7691 23.8449 22.5304 22.3243 22.0552 19.2808C21.8673 18.085 20.7489 17.9767 19.7831 17.9767C18.5232 17.9767 17.8933 17.9767 17.2678 18.264C16.4765 18.6243 15.6654 19.6388 15.4864 20.4898C15.3449 21.1639 15.451 21.628 15.661 22.5563C16.5495 26.4972 18.6382 30.3894 21.874 33.6274C25.112 36.8632 29.0042 38.9519 32.9473 39.8404C33.8756 40.0504 34.3375 40.1565 35.0116 40.015C35.8626 39.8382 36.8771 39.0249 37.2396 38.2336C37.5247 37.6081 37.5247 36.9782 37.5247 35.7183C37.5247 34.7502 37.4164 33.6341 36.2206 33.4462C33.1771 32.9688 31.6565 32.7323 31.3183 32.75C29.9767 32.8295 29.0373 33.833 28.0295 34.6442L25.6402 36.5671" stroke="#141414" stroke-width="0.7" stroke-linecap="round" stroke-linejoin="round"/>
</svg>
