<svg width="524" height="68" viewBox="0 0 524 68" fill="none" xmlns="http://www.w3.org/2000/svg">
<path d="M58.4 29.6V20C58.4 14.72 54.08 10.4 48.8 10.4H10.4V39.2H48.8C54.08 39.2 58.4 34.88 58.4 29.6ZM68 20V29.6C68 39.776 59.552 48.8 48.8 48.8H10.4V68H0.8V0.799995H48.8C59.072 0.799995 67.712 9.344 68 20ZM85.3063 0.799995V29.6H133.306V0.799995H142.906V68H133.306V39.2H85.3063V68H75.7063V0.799995H85.3063ZM200.488 10.4H171.688C166.408 10.4 162.088 14.72 162.088 20V39.2H210.088V20C210.088 14.72 205.768 10.4 200.488 10.4ZM219.688 20V68H210.088V48.8H162.088V68H152.488V20C152.488 9.824 160.936 0.799995 171.688 0.799995H200.488C210.76 0.799995 219.4 9.344 219.688 20ZM296.469 0.799995V68H286.869L238.869 16.352V68H229.269V0.799995H238.869L286.869 51.68V0.799995H296.469ZM368.45 10.4H339.65V68H330.05V10.4H301.25V0.799995H368.45V10.4ZM428.034 48.8V20C428.034 14.72 423.714 10.4 418.434 10.4H389.634C384.354 10.4 380.034 14.72 380.034 20V48.8C380.034 54.08 384.354 58.4 389.634 58.4H418.434C423.714 58.4 428.034 54.08 428.034 48.8ZM437.634 20V48.8C437.634 59.36 428.994 68 418.434 68H389.634C378.978 68 370.434 59.456 370.434 48.8V20C370.434 9.44 379.074 0.799995 389.634 0.799995H418.434C428.61 0.799995 437.634 9.536 437.634 20ZM484.7 59.552L455.9 17.984V68H446.3V0.799995H455.9L484.7 42.368L513.5 0.799995H523.1V68H513.5V17.984L484.7 59.552Z" fill="url(#paint0_linear_34_5)"/>
<defs>
<linearGradient id="paint0_linear_34_5" x1="-4" y1="38.5" x2="528" y2="38.5" gradientUnits="userSpaceOnUse">
<stop stop-color="#EB4E4E"/>
<stop offset="0.956667" stop-color="#C31111"/>
</linearGradient>
</defs>
</svg>
