<svg width="55" height="56" viewBox="0 0 55 56" fill="none" xmlns="http://www.w3.org/2000/svg">
<path d="M2.94727 28C2.94727 34.512 5.53415 40.7573 10.1388 45.362C14.7435 49.9667 20.9888 52.5536 27.5008 52.5536C34.0128 52.5536 40.2581 49.9667 44.8628 45.362C49.4675 40.7573 52.0544 34.512 52.0544 28C52.0544 21.488 49.4675 15.2427 44.8628 10.638C40.2581 6.03331 34.0128 3.44643 27.5008 3.44643C20.9888 3.44643 14.7435 6.03331 10.1388 10.638C5.53415 15.2427 2.94727 21.488 2.94727 28Z" stroke="#141414" stroke-width="0.7" stroke-linecap="round" stroke-linejoin="round"/>
<path d="M38.2734 15.4718L36.2109 42.2725L24.8887 30.6518L11.4727 27.8429L38.2734 15.4718Z" stroke="#141414" stroke-width="0.7" stroke-linecap="round" stroke-linejoin="round"/>
<path d="M19.8906 29.595L21.906 41.2314L29.2799 35.1186M24.876 30.5928L29.1738 27.1553" stroke="#141414" stroke-width="0.7" stroke-linecap="round" stroke-linejoin="round"/>
</svg>
