<svg width="430" height="236" viewBox="0 0 430 236" fill="none" xmlns="http://www.w3.org/2000/svg">
<g filter="url(#filter0_iii_85_74)">
<mask id="path-1-inside-1_85_74" fill="white">
<path fill-rule="evenodd" clip-rule="evenodd" d="M379.114 3.62837C376.393 1.28739 372.922 0 369.332 0H49.6125C46.0227 0 42.552 1.28739 39.8306 3.62837L5.22198 33.3988C1.90932 36.2484 0.00390625 40.4008 0.00390625 44.7705V177.004C0.00390625 180.875 1.49976 184.595 4.1788 187.388L46.3795 231.383C49.2084 234.333 53.1181 236 57.2047 236H380.035C384.1 236 387.991 234.35 390.817 231.428L425.782 195.276C428.488 192.478 430 188.739 430 184.848V54.2837C430 49.9141 428.095 45.7617 424.782 42.9121L379.114 3.62837ZM430 235.899C430 235.838 429.947 235.792 429.887 235.799L428.217 236H429.899C429.955 236 430 235.955 430 235.899V235.899Z"/>
</mask>
<path d="M428.217 236L427.738 232.029C425.637 232.282 424.097 234.127 424.224 236.24C424.351 238.352 426.101 240 428.217 240V236ZM429.887 235.799L429.408 231.827L429.887 235.799ZM424.782 42.9121L427.39 39.8797L424.782 42.9121ZM425.782 195.276L428.657 198.057L425.782 195.276ZM390.817 231.428L387.942 228.647L390.817 231.428ZM46.3795 231.383L49.2662 228.615L46.3795 231.383ZM4.1788 187.388L1.2921 190.157L4.1788 187.388ZM379.114 3.62837L376.506 6.66081L379.114 3.62837ZM39.8306 3.62837L37.2221 0.595939L39.8306 3.62837ZM49.6125 4H369.332V-4H49.6125V4ZM7.83049 36.4313L42.4391 6.66081L37.2221 0.595939L2.61347 30.3664L7.83049 36.4313ZM4.00391 177.004V44.7705H-3.99609V177.004H4.00391ZM49.2662 228.615L7.06549 184.619L1.2921 190.157L43.4928 234.152L49.2662 228.615ZM380.035 232H57.2047V240H380.035V232ZM393.693 234.209L428.657 198.057L422.907 192.495L387.942 228.647L393.693 234.209ZM426 54.2837V184.848H434V54.2837H426ZM376.506 6.66081L422.173 45.9446L427.39 39.8797L381.723 0.595939L376.506 6.66081ZM429.408 231.827L427.738 232.029L428.695 239.971L430.365 239.77L429.408 231.827ZM429.899 232H428.217V240H429.899V232ZM429.899 240C432.164 240 434 238.164 434 235.899H426C426 233.746 427.746 232 429.899 232V240ZM430.365 239.77C428.044 240.05 426 238.237 426 235.899H434C434 233.44 431.85 231.533 429.408 231.827L430.365 239.77ZM434 54.2837C434 48.7489 431.586 43.4891 427.39 39.8797L422.173 45.9446C424.603 48.0342 426 51.0793 426 54.2837H434ZM428.657 198.057C432.084 194.513 434 189.777 434 184.848H426C426 187.702 424.891 190.444 422.907 192.495L428.657 198.057ZM380.035 240C385.184 240 390.113 237.91 393.693 234.209L387.942 228.647C385.87 230.79 383.016 232 380.035 232V240ZM43.4928 234.152C47.0761 237.888 52.0283 240 57.2047 240V232C54.2078 232 51.3407 230.777 49.2662 228.615L43.4928 234.152ZM-3.99609 177.004C-3.99609 181.907 -2.10135 186.619 1.2921 190.157L7.06549 184.619C5.10086 182.571 4.00391 179.843 4.00391 177.004H-3.99609ZM2.61347 30.3664C-1.58257 33.9759 -3.99609 39.2356 -3.99609 44.7705H4.00391C4.00391 41.5661 5.40121 38.521 7.83049 36.4313L2.61347 30.3664ZM369.332 4C371.965 4 374.51 4.94408 376.506 6.66081L381.723 0.595939C378.275 -2.36931 373.879 -4 369.332 -4V4ZM49.6125 -4C45.0655 -4 40.6692 -2.36931 37.2221 0.595939L42.4391 6.66081C44.4348 4.94408 46.98 4 49.6125 4V-4Z" fill="#D63131" mask="url(#path-1-inside-1_85_74)"/>
</g>
<defs>
<filter id="filter0_iii_85_74" x="0.00390625" y="-1" width="433.996" height="241" filterUnits="userSpaceOnUse" color-interpolation-filters="sRGB">
<feFlood flood-opacity="0" result="BackgroundImageFix"/>
<feBlend mode="normal" in="SourceGraphic" in2="BackgroundImageFix" result="shape"/>
<feColorMatrix in="SourceAlpha" type="matrix" values="0 0 0 0 0 0 0 0 0 0 0 0 0 0 0 0 0 0 127 0" result="hardAlpha"/>
<feOffset dy="3"/>
<feGaussianBlur stdDeviation="0.5"/>
<feComposite in2="hardAlpha" operator="arithmetic" k2="-1" k3="1"/>
<feColorMatrix type="matrix" values="0 0 0 0 1 0 0 0 0 1 0 0 0 0 1 0 0 0 0.45 0"/>
<feBlend mode="normal" in2="shape" result="effect1_innerShadow_85_74"/>
<feColorMatrix in="SourceAlpha" type="matrix" values="0 0 0 0 0 0 0 0 0 0 0 0 0 0 0 0 0 0 127 0" result="hardAlpha"/>
<feOffset dy="-3"/>
<feGaussianBlur stdDeviation="0.5"/>
<feComposite in2="hardAlpha" operator="arithmetic" k2="-1" k3="1"/>
<feColorMatrix type="matrix" values="0 0 0 0 0 0 0 0 0 0 0 0 0 0 0 0 0 0 0.45 0"/>
<feBlend mode="normal" in2="effect1_innerShadow_85_74" result="effect2_innerShadow_85_74"/>
<feColorMatrix in="SourceAlpha" type="matrix" values="0 0 0 0 0 0 0 0 0 0 0 0 0 0 0 0 0 0 127 0" result="hardAlpha"/>
<feOffset dx="4" dy="4"/>
<feGaussianBlur stdDeviation="7.5"/>
<feComposite in2="hardAlpha" operator="arithmetic" k2="-1" k3="1"/>
<feColorMatrix type="matrix" values="0 0 0 0 0.759679 0 0 0 0 0.160377 0 0 0 0 0.160377 0 0 0 0.41 0"/>
<feBlend mode="normal" in2="effect2_innerShadow_85_74" result="effect3_innerShadow_85_74"/>
</filter>
</defs>
</svg>
