<svg width="35" height="35" viewBox="0 0 35 35" fill="none" xmlns="http://www.w3.org/2000/svg">
<path d="M1.87695 17.5C1.87695 21.644 3.52315 25.6183 6.45341 28.5485C9.38366 31.4788 13.3579 33.125 17.502 33.125C21.646 33.125 25.6202 31.4788 28.5505 28.5485C31.4807 25.6183 33.127 21.644 33.127 17.5C33.127 13.356 31.4807 9.38171 28.5505 6.45146C25.6202 3.5212 21.646 1.875 17.502 1.875C13.3579 1.875 9.38366 3.5212 6.45341 6.45146C3.52315 9.38171 1.87695 13.356 1.87695 17.5Z" stroke="white" stroke-opacity="0.6" stroke-linecap="round" stroke-linejoin="round"/>
<path d="M24.3558 9.52783L23.0433 26.5828L15.8383 19.1878L7.30078 17.4003L24.3558 9.52783Z" stroke="white" stroke-opacity="0.6" stroke-linecap="round" stroke-linejoin="round"/>
<path d="M12.6602 18.5144L13.9427 25.9194L18.6352 22.0294M15.8327 19.1494L18.5677 16.9619" stroke="white" stroke-opacity="0.6" stroke-linecap="round" stroke-linejoin="round"/>
</svg>
