<svg width="30" height="30" viewBox="0 0 30 30" fill="none" xmlns="http://www.w3.org/2000/svg">
<path d="M14.8452 29.0557C22.5232 29.0557 28.7471 22.8318 28.7471 15.1538C28.7471 7.47582 22.5232 1.25195 14.8452 1.25195C7.16723 1.25195 0.943359 7.47582 0.943359 15.1538C0.943359 17.0709 1.33261 18.8976 2.03327 20.5589C2.42113 21.4764 2.61436 21.9352 2.63939 22.2827C2.66302 22.6302 2.56015 23.0112 2.35579 23.7744L0.943359 29.0557L6.22468 27.6433C6.98789 27.4389 7.3688 27.3374 7.71635 27.3597C8.0639 27.3847 8.52266 27.5779 9.44018 27.9658C11.151 28.6863 12.9888 29.0569 14.8452 29.0557Z" stroke="white" stroke-opacity="0.6" stroke-width="1.5" stroke-linecap="round" stroke-linejoin="round"/>
<path d="M10.0463 15.6839L11.2714 14.1635C11.7876 13.5221 12.4247 12.9258 12.4768 12.0706C12.488 11.8554 12.3361 10.8877 12.0337 8.95094C11.9141 8.19001 11.2024 8.12109 10.5878 8.12109C9.78609 8.12109 9.38523 8.12109 8.98718 8.30394C8.48365 8.5332 7.96746 9.1788 7.85353 9.7203C7.76351 10.1493 7.83103 10.4447 7.96465 11.0354C8.53007 13.5432 9.85923 16.0201 11.9184 18.0806C13.9789 20.1398 16.4558 21.4689 18.965 22.0344C19.5558 22.168 19.8497 22.2355 20.2787 22.1455C20.8202 22.033 21.4658 21.5154 21.6965 21.0118C21.8779 20.6138 21.8779 20.2129 21.8779 19.4112C21.8779 18.7952 21.809 18.0849 21.0481 17.9653C19.1113 17.6615 18.1436 17.511 17.9284 17.5223C17.0747 17.5729 16.4769 18.2115 15.8355 18.7276L14.3151 19.9513" stroke="white" stroke-opacity="0.6" stroke-width="1.5" stroke-linecap="round" stroke-linejoin="round"/>
</svg>
