<svg width="171" height="114" viewBox="0 0 171 114" fill="none" xmlns="http://www.w3.org/2000/svg">
<path d="M0.436849 3C0.436849 4.47276 1.63076 5.66667 3.10352 5.66667C4.57627 5.66667 5.77018 4.47276 5.77018 3C5.77018 1.52724 4.57627 0.333333 3.10352 0.333333C1.63076 0.333333 0.436849 1.52724 0.436849 3ZM81.1035 3L81.4931 2.68655L81.343 2.5H81.1035V3ZM164.937 110.5C164.937 111.973 166.131 113.167 167.604 113.167C169.076 113.167 170.27 111.973 170.27 110.5C170.27 109.027 169.076 107.833 167.604 107.833C166.131 107.833 164.937 109.027 164.937 110.5ZM3.10352 3.5H81.1035V2.5H3.10352V3.5ZM80.714 3.31345L167.214 110.813L167.993 110.187L81.4931 2.68655L80.714 3.31345Z" fill="white" fill-opacity="0.74"/>
</svg>
